<svg width="328" height="348" viewBox="0 0 328 348" fill="none" xmlns="http://www.w3.org/2000/svg">
<rect x="0.5" y="0.5" width="327" height="347" rx="15.5" fill="#E6F2F9"/>
<rect x="0.5" y="0.5" width="327" height="347" rx="15.5" stroke="#B0D6EB"/>
<g clip-path="url(#clip0_1585_7002)">
<path d="M56.6669 99.0829C45.3489 110.656 35.9412 123.913 29.3517 138.007C19.3169 159.468 14.4802 183.105 14.1929 206.744C13.3532 275.833 94.5148 281.092 105.799 302.334C117.085 323.576 118.412 362.077 163.551 363.405C191.942 364.24 221.137 357.613 243.257 338.975C263.517 321.905 273.785 296.828 281.371 272.122C289.89 244.378 298.247 214.954 292.499 185.771C286.601 155.822 262.886 134.781 246.862 110.186C236.772 94.6996 226.147 80.8003 209.956 71.239C208.023 70.097 206.046 69.0244 204.045 68.0056C178.886 55.2057 149.866 52.6952 122.641 59.7551C98.212 66.0908 74.947 80.3909 56.6669 99.0829Z" fill="#FDFDFD"/>
<path d="M238.009 170.734H143.896C138.54 170.734 134.198 166.392 134.198 161.037V86.7579C134.198 81.4016 138.54 77.0596 143.896 77.0596H238.009C243.365 77.0596 247.707 81.4016 247.707 86.7579V161.037C247.707 166.392 243.365 170.734 238.009 170.734Z" fill="#0070AF" stroke="#151515" stroke-width="0.328" stroke-miterlimit="10" stroke-linecap="round" stroke-linejoin="round"/>
<path d="M295.866 122.165H220.127C211.885 122.165 205.081 128.302 204.022 136.255H311.972C310.914 128.302 304.109 122.165 295.866 122.165Z" fill="#007BC0" stroke="#151515" stroke-width="0.328" stroke-miterlimit="10" stroke-linecap="round" stroke-linejoin="round"/>
<path d="M312.119 138.418C312.119 137.684 312.066 136.963 311.972 136.255H204.022C203.928 136.963 203.875 137.684 203.875 138.418V146.039H312.119V138.418Z" fill="#0070AF" stroke="#151515" stroke-width="0.328" stroke-miterlimit="10" stroke-linecap="round" stroke-linejoin="round"/>
<path d="M203.875 308.9V309.498C203.875 318.474 211.151 325.751 220.127 325.751H295.866C304.842 325.751 312.119 318.474 312.119 309.498V308.9H203.875Z" fill="#007BC0" stroke="#151515" stroke-width="0.328" stroke-miterlimit="10" stroke-linecap="round" stroke-linejoin="round"/>
<path d="M312.119 146.039H203.875V308.901H312.119V146.039Z" fill="#FDFDFD" stroke="#151515" stroke-width="0.328" stroke-miterlimit="10" stroke-linecap="round" stroke-linejoin="round"/>
<path d="M312.119 146.039H251.325V308.901H312.119V146.039Z" fill="#FFBD07" stroke="#151515" stroke-width="0.328" stroke-miterlimit="10" stroke-linecap="round" stroke-linejoin="round"/>
<path d="M312.119 229.025H251.325V308.9H312.119V229.025Z" fill="#007BC0" stroke="#151515" stroke-width="0.328" stroke-miterlimit="10" stroke-linecap="round" stroke-linejoin="round"/>
<path d="M204.022 173.621H251.325" stroke="#151515" stroke-width="0.328" stroke-miterlimit="10" stroke-linecap="round" stroke-linejoin="round"/>
<path d="M204.022 201.203H251.325" stroke="#151515" stroke-width="0.328" stroke-miterlimit="10" stroke-linecap="round" stroke-linejoin="round"/>
<path d="M204.022 228.785H251.325" stroke="#151515" stroke-width="0.328" stroke-miterlimit="10" stroke-linecap="round" stroke-linejoin="round"/>
<path d="M204.022 256.368H251.325" stroke="#151515" stroke-width="0.328" stroke-miterlimit="10" stroke-linecap="round" stroke-linejoin="round"/>
<path d="M204.022 283.95H251.325" stroke="#151515" stroke-width="0.328" stroke-miterlimit="10" stroke-linecap="round" stroke-linejoin="round"/>
<path d="M246.622 153.721H209.76C209.162 153.721 208.676 153.236 208.676 152.637C208.676 152.038 209.162 151.552 209.76 151.552H246.622C247.221 151.552 247.707 152.038 247.707 152.637C247.707 153.236 247.221 153.721 246.622 153.721Z" fill="#B1B4B9"/>
<path d="M246.622 159.09H209.761C209.162 159.09 208.676 158.604 208.676 158.006C208.676 157.407 209.162 156.921 209.761 156.921H246.622C247.221 156.921 247.707 157.407 247.707 158.006C247.707 158.604 247.221 159.09 246.622 159.09Z" fill="#B1B4B9"/>
<path d="M246.622 164.459H209.761C209.162 164.459 208.676 163.974 208.676 163.375C208.676 162.776 209.162 162.291 209.761 162.291H246.622C247.221 162.291 247.707 162.776 247.707 163.375C247.707 163.974 247.221 164.459 246.622 164.459Z" fill="#B1B4B9"/>
<path d="M246.622 181.925H209.76C209.162 181.925 208.676 181.44 208.676 180.841C208.676 180.242 209.162 179.757 209.76 179.757H246.622C247.221 179.757 247.707 180.242 247.707 180.841C247.707 181.44 247.221 181.925 246.622 181.925Z" fill="#B1B4B9"/>
<path d="M246.622 187.294H209.761C209.162 187.294 208.676 186.809 208.676 186.21C208.676 185.611 209.162 185.125 209.761 185.125H246.622C247.221 185.125 247.707 185.611 247.707 186.21C247.707 186.809 247.221 187.294 246.622 187.294Z" fill="#B1B4B9"/>
<path d="M246.622 192.663H209.761C209.162 192.663 208.676 192.178 208.676 191.579C208.676 190.98 209.162 190.495 209.761 190.495H246.622C247.221 190.495 247.707 190.98 247.707 191.579C247.707 192.178 247.221 192.663 246.622 192.663Z" fill="#B1B4B9"/>
<path d="M246.622 209.106H209.76C209.162 209.106 208.676 208.62 208.676 208.021C208.676 207.422 209.162 206.937 209.76 206.937H246.622C247.221 206.937 247.707 207.422 247.707 208.021C247.707 208.62 247.221 209.106 246.622 209.106Z" fill="#B1B4B9"/>
<path d="M246.622 214.474H209.761C209.162 214.474 208.676 213.989 208.676 213.39C208.676 212.791 209.162 212.306 209.761 212.306H246.622C247.221 212.306 247.707 212.791 247.707 213.39C247.707 213.989 247.221 214.474 246.622 214.474Z" fill="#B1B4B9"/>
<path d="M246.622 219.844H209.761C209.162 219.844 208.676 219.359 208.676 218.76C208.676 218.161 209.162 217.675 209.761 217.675H246.622C247.221 217.675 247.707 218.161 247.707 218.76C247.707 219.359 247.221 219.844 246.622 219.844Z" fill="#B1B4B9"/>
<path d="M259.582 207.324V203.518L269.682 193.617C270.648 192.642 271.452 191.775 272.096 191.018C272.74 190.26 273.223 189.526 273.545 188.816C273.867 188.106 274.028 187.348 274.028 186.543C274.028 185.625 273.82 184.839 273.403 184.185C272.987 183.522 272.414 183.011 271.684 182.651C270.955 182.291 270.127 182.111 269.199 182.111C268.242 182.111 267.404 182.31 266.684 182.708C265.965 183.096 265.406 183.65 265.008 184.37C264.62 185.09 264.426 185.947 264.426 186.941H259.412C259.412 185.094 259.833 183.489 260.676 182.126C261.519 180.762 262.679 179.706 264.156 178.958C265.643 178.21 267.347 177.836 269.27 177.836C271.22 177.836 272.934 178.2 274.412 178.93C275.889 179.659 277.035 180.658 277.849 181.927C278.673 183.196 279.085 184.645 279.085 186.273C279.085 187.362 278.877 188.432 278.46 189.484C278.043 190.535 277.309 191.699 276.258 192.978C275.217 194.256 273.754 195.805 271.869 197.623L266.855 202.722V202.921H279.525V207.324H259.582ZM283.275 201.927V197.736L295.619 178.234H299.113V184.199H296.983L288.673 197.367V197.594H305.903V201.927H283.275ZM297.153 207.324V200.648L297.21 198.773V178.234H302.182V207.324H297.153Z" fill="#FDFDFD"/>
<path d="M263.811 163.54H264.868V169.779C264.868 170.336 264.765 170.809 264.561 171.198C264.356 171.587 264.068 171.883 263.696 172.084C263.324 172.286 262.885 172.387 262.379 172.387C261.902 172.387 261.477 172.3 261.105 172.127C260.733 171.951 260.44 171.701 260.227 171.377C260.014 171.053 259.908 170.668 259.908 170.222H260.947C260.947 170.469 261.008 170.685 261.131 170.87C261.256 171.052 261.426 171.194 261.642 171.296C261.858 171.398 262.104 171.449 262.379 171.449C262.683 171.449 262.942 171.385 263.155 171.258C263.368 171.13 263.53 170.942 263.64 170.695C263.754 170.445 263.811 170.14 263.811 169.779V163.54ZM272.713 163.54H273.77V169.319C273.77 169.915 273.629 170.448 273.348 170.917C273.069 171.383 272.676 171.751 272.167 172.02C271.659 172.287 271.062 172.421 270.378 172.421C269.693 172.421 269.096 172.287 268.588 172.02C268.079 171.751 267.685 171.383 267.403 170.917C267.125 170.448 266.986 169.915 266.986 169.319V163.54H268.042V169.233C268.042 169.66 268.136 170.039 268.324 170.371C268.511 170.701 268.778 170.961 269.125 171.151C269.474 171.339 269.892 171.432 270.378 171.432C270.863 171.432 271.281 171.339 271.631 171.151C271.98 170.961 272.247 170.701 272.432 170.371C272.619 170.039 272.713 169.66 272.713 169.233V163.54ZM282.801 163.54V172.268H281.778L277.022 165.415H276.937V172.268H275.88V163.54H276.903L281.676 170.41H281.761V163.54H282.801ZM284.915 172.268V163.54H290.182V164.478H285.972V167.427H289.91V168.364H285.972V171.33H290.251V172.268H284.915Z" fill="#FDFDFD"/>
<path d="M255.316 303.875V232.608H308.128V303.875" stroke="#FDFDFD" stroke-width="0.216874" stroke-miterlimit="10" stroke-linecap="round" stroke-linejoin="round"/>
<path d="M308.128 250.425H255.316" stroke="#FDFDFD" stroke-width="0.216874" stroke-miterlimit="10" stroke-linecap="round" stroke-linejoin="round"/>
<path d="M308.128 268.241H255.316" stroke="#FDFDFD" stroke-width="0.216874" stroke-miterlimit="10" stroke-linecap="round" stroke-linejoin="round"/>
<path d="M308.128 286.058H255.316" stroke="#FDFDFD" stroke-width="0.216874" stroke-miterlimit="10" stroke-linecap="round" stroke-linejoin="round"/>
<path d="M308.128 303.875H255.316" stroke="#FDFDFD" stroke-width="0.216874" stroke-miterlimit="10" stroke-linecap="round" stroke-linejoin="round"/>
<path d="M265.879 303.875V232.608" stroke="#FDFDFD" stroke-width="0.216874" stroke-miterlimit="10" stroke-linecap="round" stroke-linejoin="round"/>
<path d="M276.441 303.875V232.608" stroke="#FDFDFD" stroke-width="0.216874" stroke-miterlimit="10" stroke-linecap="round" stroke-linejoin="round"/>
<path d="M287.003 303.875V232.608" stroke="#FDFDFD" stroke-width="0.216874" stroke-miterlimit="10" stroke-linecap="round" stroke-linejoin="round"/>
<path d="M297.565 303.875V232.608" stroke="#FDFDFD" stroke-width="0.216874" stroke-miterlimit="10" stroke-linecap="round" stroke-linejoin="round"/>
<path d="M263.29 234.6V238.507H262.817V235.096H262.794L261.841 235.729V235.249L262.817 234.6H263.29Z" fill="#FDFDFD"/>
<path d="M271.5 238.507V238.163L272.79 236.752C272.941 236.586 273.066 236.443 273.164 236.321C273.262 236.197 273.334 236.082 273.381 235.973C273.43 235.864 273.454 235.75 273.454 235.63C273.454 235.493 273.421 235.374 273.355 235.273C273.29 235.173 273.201 235.095 273.088 235.041C272.974 234.986 272.847 234.959 272.706 234.959C272.556 234.959 272.425 234.99 272.313 235.052C272.202 235.113 272.117 235.199 272.056 235.31C271.996 235.42 271.966 235.55 271.966 235.699H271.516C271.516 235.47 271.568 235.269 271.674 235.096C271.78 234.923 271.923 234.788 272.105 234.691C272.288 234.595 272.494 234.546 272.721 234.546C272.95 234.546 273.153 234.595 273.33 234.691C273.507 234.788 273.645 234.918 273.746 235.083C273.846 235.247 273.896 235.429 273.896 235.63C273.896 235.774 273.87 235.914 273.818 236.052C273.767 236.188 273.678 236.34 273.551 236.508C273.425 236.674 273.25 236.878 273.027 237.118L272.149 238.057V238.087H273.965V238.507H271.5Z" fill="#FDFDFD"/>
<path d="M283.716 238.56C283.464 238.56 283.24 238.517 283.043 238.431C282.847 238.344 282.691 238.224 282.575 238.07C282.461 237.915 282.399 237.735 282.388 237.53H282.869C282.879 237.656 282.923 237.765 282.999 237.856C283.075 237.947 283.175 238.017 283.298 238.066C283.422 238.116 283.558 238.141 283.708 238.141C283.876 238.141 284.025 238.111 284.155 238.053C284.285 237.994 284.386 237.913 284.46 237.809C284.534 237.704 284.571 237.584 284.571 237.446C284.571 237.302 284.535 237.176 284.464 237.067C284.393 236.956 284.288 236.869 284.151 236.807C284.014 236.745 283.846 236.714 283.647 236.714H283.335V236.294H283.647C283.803 236.294 283.939 236.266 284.056 236.21C284.174 236.154 284.266 236.075 284.332 235.973C284.4 235.872 284.433 235.752 284.433 235.615C284.433 235.483 284.404 235.367 284.346 235.269C284.287 235.172 284.204 235.095 284.098 235.041C283.992 234.986 283.867 234.959 283.724 234.959C283.589 234.959 283.462 234.983 283.342 235.033C283.224 235.081 283.127 235.152 283.052 235.245C282.977 235.336 282.937 235.447 282.93 235.577H282.472C282.48 235.372 282.542 235.193 282.657 235.039C282.773 234.884 282.924 234.763 283.111 234.676C283.3 234.59 283.506 234.546 283.731 234.546C283.973 234.546 284.18 234.595 284.353 234.693C284.526 234.79 284.659 234.918 284.752 235.077C284.845 235.236 284.891 235.407 284.891 235.592C284.891 235.812 284.833 235.999 284.718 236.155C284.603 236.31 284.447 236.417 284.25 236.477V236.508C284.497 236.548 284.69 236.653 284.828 236.822C284.967 236.99 285.036 237.198 285.036 237.446C285.036 237.659 284.978 237.849 284.863 238.018C284.748 238.186 284.592 238.319 284.393 238.415C284.195 238.512 283.969 238.56 283.716 238.56Z" fill="#FDFDFD"/>
<path d="M292.643 237.706V237.316L294.36 234.6H294.642V235.203H294.452L293.154 237.255V237.286H295.466V237.706H292.643ZM294.482 238.507V237.587V237.406V234.6H294.932V238.507H294.482Z" fill="#FDFDFD"/>
<path d="M305.606 238.56C305.382 238.56 305.181 238.516 305.001 238.427C304.822 238.338 304.678 238.216 304.57 238.06C304.462 237.905 304.403 237.728 304.393 237.53H304.851C304.869 237.707 304.949 237.853 305.091 237.969C305.235 238.083 305.407 238.141 305.606 238.141C305.766 238.141 305.909 238.103 306.034 238.028C306.159 237.953 306.258 237.85 306.329 237.719C306.402 237.587 306.438 237.437 306.438 237.271C306.438 237.1 306.4 236.948 306.325 236.815C306.252 236.68 306.15 236.574 306.02 236.496C305.89 236.419 305.742 236.379 305.576 236.378C305.456 236.377 305.333 236.395 305.207 236.433C305.082 236.47 304.978 236.518 304.897 236.576L304.454 236.523L304.69 234.6H306.72V235.02H305.087L304.95 236.172H304.973C305.053 236.108 305.153 236.055 305.274 236.013C305.395 235.972 305.521 235.951 305.652 235.951C305.891 235.951 306.104 236.008 306.291 236.122C306.479 236.235 306.627 236.391 306.734 236.588C306.842 236.785 306.896 237.01 306.896 237.263C306.896 237.512 306.84 237.735 306.728 237.931C306.617 238.125 306.465 238.279 306.27 238.392C306.075 238.504 305.854 238.56 305.606 238.56Z" fill="#FDFDFD"/>
<path d="M263.214 257.498C263.054 257.495 262.894 257.465 262.733 257.406C262.573 257.348 262.427 257.249 262.295 257.11C262.162 256.971 262.056 256.782 261.976 256.544C261.896 256.305 261.856 256.005 261.856 255.643C261.856 255.298 261.888 254.991 261.953 254.724C262.018 254.456 262.112 254.23 262.235 254.047C262.359 253.862 262.508 253.722 262.682 253.627C262.857 253.532 263.055 253.484 263.275 253.484C263.494 253.484 263.688 253.528 263.859 253.616C264.031 253.702 264.17 253.823 264.279 253.978C264.387 254.133 264.457 254.312 264.488 254.514H264.023C263.98 254.339 263.896 254.193 263.771 254.077C263.646 253.962 263.481 253.904 263.275 253.904C262.972 253.904 262.734 254.035 262.56 254.299C262.387 254.562 262.3 254.931 262.298 255.407H262.329C262.4 255.299 262.485 255.207 262.583 255.13C262.682 255.053 262.791 254.993 262.911 254.951C263.03 254.909 263.157 254.888 263.29 254.888C263.514 254.888 263.719 254.944 263.905 255.056C264.09 255.167 264.239 255.32 264.351 255.516C264.463 255.71 264.519 255.933 264.519 256.185C264.519 256.427 264.465 256.648 264.357 256.849C264.249 257.049 264.097 257.208 263.901 257.326C263.706 257.443 263.477 257.5 263.214 257.498ZM263.214 257.078C263.374 257.078 263.518 257.038 263.645 256.958C263.774 256.878 263.875 256.77 263.949 256.635C264.024 256.501 264.061 256.351 264.061 256.185C264.061 256.024 264.025 255.877 263.952 255.745C263.881 255.611 263.783 255.505 263.657 255.426C263.532 255.347 263.39 255.308 263.229 255.308C263.108 255.308 262.996 255.332 262.892 255.38C262.787 255.427 262.696 255.492 262.617 255.575C262.539 255.657 262.478 255.752 262.434 255.859C262.389 255.965 262.367 256.076 262.367 256.193C262.367 256.348 262.403 256.493 262.476 256.628C262.55 256.763 262.65 256.871 262.777 256.954C262.906 257.037 263.051 257.078 263.214 257.078Z" fill="#FDFDFD"/>
<path d="M271.623 257.444L273.37 253.988V253.957H271.355V253.537H273.858V253.98L272.119 257.444H271.623Z" fill="#FDFDFD"/>
<path d="M283.647 257.498C283.385 257.498 283.154 257.451 282.953 257.358C282.753 257.264 282.598 257.135 282.486 256.971C282.374 256.806 282.318 256.618 282.32 256.407C282.318 256.241 282.351 256.089 282.417 255.949C282.483 255.808 282.573 255.69 282.688 255.596C282.804 255.5 282.933 255.44 283.075 255.415V255.392C282.888 255.343 282.739 255.238 282.629 255.077C282.518 254.914 282.463 254.729 282.465 254.522C282.463 254.323 282.514 254.146 282.615 253.99C282.717 253.833 282.857 253.71 283.035 253.619C283.214 253.529 283.419 253.484 283.647 253.484C283.874 253.484 284.076 253.529 284.254 253.619C284.432 253.71 284.572 253.833 284.674 253.99C284.777 254.146 284.829 254.323 284.83 254.522C284.829 254.729 284.772 254.914 284.66 255.077C284.55 255.238 284.403 255.343 284.22 255.392V255.415C284.361 255.44 284.488 255.5 284.601 255.596C284.714 255.69 284.805 255.808 284.872 255.949C284.94 256.089 284.974 256.241 284.975 256.407C284.974 256.618 284.917 256.806 284.804 256.971C284.692 257.135 284.536 257.264 284.336 257.358C284.138 257.451 283.908 257.498 283.647 257.498ZM283.647 257.078C283.824 257.078 283.977 257.049 284.105 256.992C284.234 256.935 284.333 256.854 284.403 256.75C284.473 256.646 284.508 256.524 284.51 256.384C284.508 256.236 284.47 256.106 284.395 255.993C284.32 255.879 284.218 255.79 284.088 255.726C283.96 255.661 283.813 255.628 283.647 255.628C283.481 255.628 283.332 255.661 283.201 255.726C283.071 255.79 282.969 255.879 282.894 255.993C282.82 256.106 282.784 256.236 282.785 256.384C282.784 256.524 282.818 256.646 282.886 256.75C282.956 256.854 283.056 256.935 283.186 256.992C283.316 257.049 283.469 257.078 283.647 257.078ZM283.647 255.224C283.787 255.224 283.911 255.196 284.019 255.14C284.129 255.084 284.215 255.006 284.277 254.905C284.339 254.805 284.371 254.687 284.372 254.552C284.371 254.42 284.34 254.305 284.279 254.207C284.218 254.108 284.133 254.031 284.025 253.978C283.917 253.923 283.791 253.896 283.647 253.896C283.501 253.896 283.373 253.923 283.264 253.978C283.155 254.031 283.07 254.108 283.01 254.207C282.951 254.305 282.921 254.42 282.923 254.552C282.921 254.687 282.951 254.805 283.012 254.905C283.075 255.006 283.16 255.084 283.27 255.14C283.379 255.196 283.505 255.224 283.647 255.224Z" fill="#FDFDFD"/>
<path d="M293.978 253.484C294.139 253.485 294.299 253.516 294.459 253.576C294.619 253.635 294.766 253.735 294.898 253.873C295.03 254.01 295.136 254.198 295.217 254.436C295.297 254.674 295.337 254.972 295.337 255.331C295.337 255.678 295.304 255.986 295.238 256.256C295.173 256.524 295.079 256.751 294.955 256.935C294.833 257.119 294.684 257.259 294.509 257.355C294.335 257.45 294.137 257.498 293.917 257.498C293.699 257.498 293.503 257.455 293.332 257.368C293.161 257.28 293.021 257.159 292.912 257.004C292.804 256.847 292.735 256.666 292.704 256.46H293.17C293.212 256.639 293.295 256.787 293.419 256.904C293.545 257.02 293.711 257.078 293.917 257.078C294.219 257.078 294.457 256.946 294.631 256.683C294.806 256.42 294.894 256.048 294.894 255.567H294.864C294.792 255.674 294.708 255.766 294.61 255.844C294.512 255.921 294.403 255.981 294.284 256.023C294.164 256.065 294.037 256.086 293.902 256.086C293.678 256.086 293.473 256.031 293.286 255.92C293.1 255.808 292.951 255.655 292.84 255.46C292.729 255.264 292.674 255.041 292.674 254.789C292.674 254.55 292.727 254.331 292.834 254.133C292.942 253.933 293.093 253.774 293.288 253.656C293.484 253.537 293.714 253.48 293.978 253.484ZM293.978 253.904C293.818 253.904 293.674 253.944 293.545 254.024C293.418 254.103 293.317 254.21 293.242 254.344C293.168 254.478 293.131 254.626 293.131 254.789C293.131 254.952 293.167 255.1 293.238 255.233C293.311 255.366 293.409 255.471 293.534 255.55C293.66 255.628 293.803 255.666 293.963 255.666C294.084 255.666 294.197 255.643 294.301 255.596C294.405 255.547 294.496 255.482 294.574 255.399C294.652 255.315 294.714 255.221 294.759 255.115C294.803 255.008 294.825 254.897 294.825 254.781C294.825 254.629 294.789 254.486 294.715 254.352C294.642 254.218 294.542 254.11 294.413 254.028C294.286 253.945 294.141 253.904 293.978 253.904Z" fill="#FDFDFD"/>
<path d="M303.731 253.537V257.444H303.257V254.033H303.235L302.281 254.667V254.186L303.257 253.537H303.731ZM306.129 257.498C305.841 257.498 305.596 257.42 305.394 257.263C305.192 257.105 305.037 256.877 304.931 256.578C304.824 256.278 304.77 255.916 304.77 255.491C304.77 255.069 304.824 254.708 304.931 254.409C305.039 254.109 305.194 253.88 305.396 253.722C305.6 253.563 305.844 253.484 306.129 253.484C306.413 253.484 306.657 253.563 306.859 253.722C307.063 253.88 307.218 254.109 307.325 254.409C307.433 254.708 307.487 255.069 307.487 255.491C307.487 255.916 307.433 256.278 307.327 256.578C307.22 256.877 307.065 257.105 306.863 257.263C306.661 257.42 306.416 257.498 306.129 257.498ZM306.129 257.078C306.413 257.078 306.635 256.941 306.792 256.666C306.95 256.391 307.029 256 307.029 255.491C307.029 255.153 306.993 254.865 306.92 254.627C306.849 254.389 306.746 254.208 306.611 254.083C306.478 253.958 306.317 253.896 306.129 253.896C305.846 253.896 305.626 254.035 305.467 254.314C305.308 254.591 305.228 254.983 305.228 255.491C305.228 255.829 305.264 256.117 305.335 256.353C305.406 256.59 305.509 256.77 305.642 256.893C305.777 257.016 305.939 257.078 306.129 257.078Z" fill="#FDFDFD"/>
<path d="M262.219 270.434V274.341H261.746V270.93H261.723L260.769 271.564V271.083L261.746 270.434H262.219ZM264.716 270.434V274.341H264.243V270.93H264.22L263.266 271.564V271.083L264.243 270.434H264.716Z" fill="#FDFDFD"/>
<path d="M272.874 270.434V274.341H272.401V270.93H272.378L271.424 271.564V271.083L272.401 270.434H272.874ZM273.997 274.341V273.998L275.287 272.586C275.438 272.421 275.563 272.277 275.661 272.155C275.759 272.032 275.831 271.916 275.878 271.808C275.927 271.699 275.951 271.584 275.951 271.465C275.951 271.327 275.918 271.208 275.852 271.108C275.787 271.007 275.698 270.93 275.585 270.875C275.471 270.82 275.344 270.793 275.203 270.793C275.053 270.793 274.922 270.824 274.81 270.886C274.699 270.948 274.614 271.033 274.552 271.144C274.493 271.255 274.463 271.384 274.463 271.533H274.013C274.013 271.304 274.065 271.103 274.171 270.93C274.277 270.757 274.42 270.623 274.602 270.526C274.785 270.429 274.991 270.381 275.218 270.381C275.447 270.381 275.65 270.429 275.827 270.526C276.004 270.623 276.142 270.753 276.243 270.917C276.343 271.081 276.393 271.264 276.393 271.465C276.393 271.608 276.367 271.749 276.315 271.886C276.264 272.022 276.175 272.174 276.048 272.342C275.922 272.509 275.747 272.712 275.524 272.953L274.646 273.891V273.922H276.462V274.341H273.997Z" fill="#FDFDFD"/>
<path d="M283.529 270.434V274.341H283.056V270.93H283.033L282.079 271.564V271.083L283.056 270.434H283.529ZM285.973 274.395C285.721 274.395 285.496 274.351 285.299 274.265C285.103 274.179 284.948 274.058 284.832 273.904C284.717 273.749 284.655 273.569 284.645 273.365H285.126C285.136 273.49 285.179 273.599 285.255 273.691C285.332 273.781 285.431 273.851 285.555 273.901C285.678 273.95 285.815 273.975 285.965 273.975C286.133 273.975 286.282 273.946 286.411 273.887C286.541 273.829 286.643 273.747 286.717 273.643C286.79 273.539 286.827 273.418 286.827 273.281C286.827 273.137 286.792 273.01 286.72 272.901C286.649 272.79 286.545 272.704 286.408 272.642C286.27 272.579 286.102 272.548 285.904 272.548H285.591V272.128H285.904C286.059 272.128 286.195 272.1 286.312 272.044C286.43 271.988 286.523 271.91 286.589 271.808C286.656 271.706 286.69 271.587 286.69 271.449C286.69 271.317 286.661 271.202 286.602 271.104C286.544 271.006 286.461 270.93 286.354 270.875C286.249 270.82 286.124 270.793 285.98 270.793C285.845 270.793 285.718 270.818 285.599 270.867C285.48 270.916 285.384 270.986 285.309 271.079C285.234 271.171 285.193 271.281 285.187 271.411H284.729C284.736 271.206 284.798 271.027 284.914 270.873C285.03 270.718 285.181 270.597 285.368 270.511C285.556 270.424 285.763 270.381 285.988 270.381C286.229 270.381 286.437 270.43 286.61 270.528C286.783 270.624 286.916 270.752 287.008 270.911C287.101 271.07 287.148 271.242 287.148 271.426C287.148 271.646 287.09 271.834 286.974 271.989C286.86 272.144 286.704 272.252 286.507 272.312V272.342C286.753 272.383 286.946 272.488 287.085 272.657C287.223 272.825 287.293 273.033 287.293 273.281C287.293 273.493 287.235 273.684 287.119 273.853C287.005 274.021 286.848 274.153 286.65 274.25C286.451 274.346 286.226 274.395 285.973 274.395Z" fill="#FDFDFD"/>
<path d="M294.184 270.434V274.341H293.711V270.93H293.688L292.734 271.564V271.083L293.711 270.434H294.184ZM295.216 273.54V273.151L296.933 270.434H297.215V271.037H297.024L295.727 273.09V273.12H298.039V273.54H295.216ZM297.055 274.341V273.422V273.241V270.434H297.505V274.341H297.055Z" fill="#FDFDFD"/>
<path d="M304.839 270.434V274.341H304.366V270.93H304.343L303.389 271.564V271.083L304.366 270.434H304.839ZM307.183 274.395C306.96 274.395 306.758 274.35 306.579 274.261C306.399 274.172 306.256 274.05 306.148 273.895C306.04 273.74 305.98 273.563 305.97 273.365H306.428C306.446 273.541 306.526 273.688 306.668 273.803C306.812 273.918 306.984 273.975 307.183 273.975C307.344 273.975 307.486 273.938 307.611 273.862C307.737 273.787 307.835 273.684 307.907 273.553C307.979 273.421 308.015 273.272 308.015 273.105C308.015 272.935 307.978 272.783 307.903 272.649C307.829 272.514 307.727 272.408 307.597 272.331C307.468 272.253 307.32 272.214 307.153 272.212C307.033 272.211 306.911 272.229 306.785 272.268C306.659 272.305 306.555 272.352 306.474 272.411L306.031 272.357L306.268 270.434H308.298V270.854H306.665L306.527 272.006H306.55C306.63 271.943 306.731 271.89 306.852 271.848C306.972 271.806 307.098 271.785 307.229 271.785C307.468 271.785 307.681 271.842 307.868 271.957C308.057 272.07 308.204 272.225 308.311 272.422C308.419 272.619 308.473 272.844 308.473 273.097C308.473 273.347 308.417 273.569 308.305 273.765C308.195 273.96 308.042 274.114 307.847 274.227C307.653 274.339 307.431 274.395 307.183 274.395Z" fill="#FDFDFD"/>
<path d="M262.219 287.961V291.868H261.746V288.457H261.723L260.769 289.09V288.61L261.746 287.961H262.219ZM264.639 291.921C264.479 291.919 264.319 291.888 264.159 291.83C263.999 291.771 263.852 291.673 263.72 291.534C263.588 291.394 263.482 291.205 263.401 290.967C263.321 290.728 263.281 290.428 263.281 290.067C263.281 289.721 263.314 289.415 263.379 289.148C263.443 288.879 263.537 288.653 263.661 288.47C263.784 288.286 263.933 288.146 264.107 288.051C264.283 287.955 264.481 287.908 264.701 287.908C264.919 287.908 265.114 287.951 265.284 288.039C265.456 288.126 265.596 288.246 265.704 288.402C265.812 288.557 265.882 288.735 265.914 288.938H265.448C265.405 288.762 265.321 288.617 265.197 288.501C265.072 288.385 264.907 288.327 264.701 288.327C264.398 288.327 264.159 288.459 263.985 288.722C263.812 288.985 263.725 289.355 263.724 289.831H263.754C263.826 289.722 263.91 289.63 264.008 289.554C264.107 289.476 264.217 289.417 264.336 289.375C264.456 289.333 264.582 289.312 264.716 289.312C264.94 289.312 265.144 289.368 265.33 289.479C265.516 289.59 265.665 289.743 265.776 289.939C265.888 290.134 265.944 290.357 265.944 290.609C265.944 290.85 265.89 291.072 265.782 291.273C265.674 291.472 265.522 291.631 265.326 291.75C265.132 291.867 264.903 291.924 264.639 291.921ZM264.639 291.502C264.8 291.502 264.943 291.462 265.071 291.381C265.199 291.301 265.3 291.194 265.374 291.059C265.449 290.924 265.487 290.774 265.487 290.609C265.487 290.447 265.45 290.3 265.378 290.168C265.307 290.035 265.208 289.928 265.082 289.85C264.957 289.771 264.815 289.731 264.655 289.731C264.534 289.731 264.421 289.755 264.317 289.804C264.213 289.851 264.121 289.916 264.042 289.998C263.965 290.081 263.904 290.176 263.859 290.283C263.815 290.388 263.792 290.499 263.792 290.616C263.792 290.772 263.829 290.917 263.901 291.051C263.975 291.186 264.075 291.295 264.203 291.378C264.331 291.46 264.477 291.502 264.639 291.502Z" fill="#FDFDFD"/>
<path d="M272.874 287.961V291.868H272.401V288.457H272.378L271.424 289.09V288.61L272.401 287.961H272.874ZM274.119 291.868L275.867 288.411V288.381H273.852V287.961H276.355V288.404L274.615 291.868H274.119Z" fill="#FDFDFD"/>
<path d="M283.529 287.961V291.868H283.056V288.457H283.033L282.079 289.09V288.61L283.056 287.961H283.529ZM285.904 291.921C285.642 291.921 285.41 291.875 285.209 291.782C285.01 291.688 284.854 291.559 284.742 291.395C284.63 291.229 284.575 291.041 284.576 290.83C284.575 290.665 284.607 290.512 284.673 290.372C284.74 290.231 284.83 290.113 284.944 290.019C285.06 289.924 285.189 289.864 285.332 289.838V289.815C285.145 289.767 284.996 289.662 284.885 289.5C284.775 289.338 284.72 289.153 284.721 288.945C284.72 288.747 284.77 288.57 284.872 288.413C284.974 288.257 285.113 288.133 285.292 288.043C285.471 287.953 285.675 287.908 285.904 287.908C286.13 287.908 286.332 287.953 286.511 288.043C286.689 288.133 286.828 288.257 286.93 288.413C287.033 288.57 287.085 288.747 287.087 288.945C287.085 289.153 287.029 289.338 286.917 289.5C286.806 289.662 286.659 289.767 286.476 289.815V289.838C286.617 289.864 286.745 289.924 286.858 290.019C286.971 290.113 287.061 290.231 287.129 290.372C287.196 290.512 287.23 290.665 287.232 290.83C287.23 291.041 287.173 291.229 287.06 291.395C286.948 291.559 286.792 291.688 286.593 291.782C286.394 291.875 286.165 291.921 285.904 291.921ZM285.904 291.502C286.081 291.502 286.233 291.473 286.362 291.416C286.49 291.359 286.589 291.278 286.659 291.174C286.729 291.069 286.765 290.947 286.766 290.807C286.765 290.66 286.727 290.529 286.652 290.416C286.577 290.303 286.474 290.214 286.345 290.149C286.216 290.084 286.069 290.052 285.904 290.052C285.737 290.052 285.588 290.084 285.457 290.149C285.328 290.214 285.225 290.303 285.15 290.416C285.077 290.529 285.04 290.66 285.042 290.807C285.04 290.947 285.074 291.069 285.143 291.174C285.213 291.278 285.313 291.359 285.442 291.416C285.572 291.473 285.726 291.502 285.904 291.502ZM285.904 289.647C286.044 289.647 286.168 289.619 286.276 289.563C286.385 289.507 286.471 289.429 286.533 289.329C286.596 289.228 286.628 289.111 286.629 288.976C286.628 288.844 286.596 288.729 286.535 288.631C286.474 288.531 286.39 288.455 286.282 288.402C286.174 288.347 286.048 288.32 285.904 288.32C285.758 288.32 285.63 288.347 285.52 288.402C285.411 288.455 285.326 288.531 285.267 288.631C285.207 288.729 285.178 288.844 285.179 288.976C285.178 289.111 285.208 289.228 285.269 289.329C285.331 289.429 285.417 289.507 285.526 289.563C285.636 289.619 285.761 289.647 285.904 289.647Z" fill="#FDFDFD"/>
<path d="M294.184 287.961V291.868H293.711V288.457H293.688L292.734 289.09V288.61L293.711 287.961H294.184ZM296.551 287.908C296.712 287.909 296.872 287.939 297.032 287.999C297.192 288.059 297.339 288.158 297.471 288.297C297.603 288.434 297.709 288.622 297.789 288.859C297.87 289.097 297.91 289.396 297.91 289.754C297.91 290.101 297.877 290.41 297.81 290.679C297.746 290.948 297.651 291.174 297.528 291.359C297.406 291.543 297.257 291.683 297.082 291.778C296.907 291.874 296.71 291.921 296.49 291.921C296.272 291.921 296.076 291.878 295.905 291.792C295.734 291.704 295.594 291.582 295.485 291.427C295.377 291.271 295.308 291.09 295.277 290.884H295.742C295.784 291.063 295.868 291.211 295.992 291.328C296.118 291.444 296.284 291.502 296.49 291.502C296.792 291.502 297.03 291.37 297.204 291.107C297.379 290.843 297.467 290.471 297.467 289.991H297.437C297.365 290.098 297.281 290.19 297.183 290.267C297.085 290.345 296.976 290.405 296.857 290.447C296.737 290.489 296.61 290.51 296.475 290.51C296.251 290.51 296.046 290.454 295.859 290.344C295.673 290.232 295.524 290.079 295.412 289.884C295.302 289.688 295.246 289.464 295.246 289.212C295.246 288.973 295.3 288.755 295.407 288.556C295.515 288.357 295.666 288.198 295.861 288.079C296.057 287.961 296.287 287.904 296.551 287.908ZM296.551 288.327C296.391 288.327 296.247 288.367 296.118 288.447C295.991 288.526 295.89 288.633 295.815 288.768C295.741 288.901 295.704 289.05 295.704 289.212C295.704 289.375 295.74 289.523 295.811 289.657C295.884 289.789 295.982 289.895 296.107 289.974C296.233 290.051 296.376 290.09 296.536 290.09C296.657 290.09 296.769 290.066 296.874 290.019C296.978 289.971 297.069 289.906 297.147 289.823C297.225 289.739 297.287 289.644 297.332 289.539C297.376 289.432 297.398 289.321 297.398 289.205C297.398 289.052 297.361 288.909 297.288 288.776C297.215 288.642 297.115 288.534 296.986 288.451C296.859 288.369 296.714 288.327 296.551 288.327Z" fill="#FDFDFD"/>
<path d="M303.465 291.868V291.525L304.755 290.113C304.906 289.948 305.031 289.804 305.129 289.682C305.227 289.558 305.299 289.443 305.346 289.335C305.395 289.225 305.419 289.111 305.419 288.991C305.419 288.854 305.386 288.735 305.32 288.634C305.255 288.534 305.166 288.456 305.053 288.402C304.939 288.347 304.812 288.32 304.671 288.32C304.521 288.32 304.39 288.351 304.278 288.413C304.167 288.474 304.082 288.56 304.021 288.671C303.961 288.781 303.931 288.911 303.931 289.06H303.481C303.481 288.831 303.533 288.63 303.639 288.457C303.745 288.284 303.888 288.149 304.07 288.053C304.253 287.956 304.459 287.908 304.686 287.908C304.915 287.908 305.118 287.956 305.295 288.053C305.472 288.149 305.61 288.28 305.711 288.444C305.811 288.608 305.861 288.79 305.861 288.991C305.861 289.135 305.835 289.275 305.783 289.413C305.732 289.549 305.643 289.701 305.516 289.869C305.39 290.035 305.215 290.239 304.992 290.479L304.114 291.418V291.448H305.93V291.868H303.465ZM307.992 291.921C307.705 291.921 307.46 291.843 307.258 291.687C307.056 291.529 306.901 291.301 306.794 291.002C306.687 290.702 306.634 290.339 306.634 289.914C306.634 289.492 306.687 289.132 306.794 288.833C306.902 288.533 307.058 288.304 307.26 288.146C307.463 287.987 307.707 287.908 307.992 287.908C308.277 287.908 308.521 287.987 308.723 288.146C308.926 288.304 309.082 288.533 309.188 288.833C309.297 289.132 309.351 289.492 309.351 289.914C309.351 290.339 309.297 290.702 309.19 291.002C309.084 291.301 308.929 291.529 308.727 291.687C308.525 291.843 308.28 291.921 307.992 291.921ZM307.992 291.502C308.277 291.502 308.499 291.364 308.656 291.09C308.814 290.815 308.893 290.423 308.893 289.914C308.893 289.576 308.857 289.288 308.784 289.05C308.713 288.812 308.61 288.631 308.475 288.507C308.341 288.382 308.181 288.32 307.992 288.32C307.71 288.32 307.489 288.459 307.33 288.737C307.171 289.015 307.092 289.407 307.092 289.914C307.092 290.253 307.128 290.54 307.199 290.777C307.27 291.013 307.372 291.193 307.506 291.317C307.641 291.44 307.803 291.502 307.992 291.502Z" fill="#FDFDFD"/>
<path d="M267.866 318.391H248.129C247.067 318.391 246.207 317.531 246.207 316.47C246.207 315.408 247.067 314.548 248.129 314.548H267.866C268.927 314.548 269.787 315.408 269.787 316.47C269.786 317.531 268.926 318.391 267.866 318.391Z" fill="#005788" stroke="#151515" stroke-width="0.328" stroke-miterlimit="10" stroke-linecap="round" stroke-linejoin="round"/>
<path d="M261.512 131.657C262.863 131.657 263.959 130.561 263.959 129.21C263.959 127.859 262.863 126.764 261.512 126.764C260.161 126.764 259.066 127.859 259.066 129.21C259.066 130.561 260.161 131.657 261.512 131.657Z" fill="#005788" stroke="#151515" stroke-width="0.328" stroke-miterlimit="10" stroke-linecap="round" stroke-linejoin="round"/>
<path d="M235.638 294.425H177.464C175.318 294.425 173.578 292.685 173.578 290.539V245.807C173.578 243.66 175.318 241.92 177.464 241.92H235.638C237.784 241.92 239.524 243.66 239.524 245.807V290.539C239.524 292.685 237.784 294.425 235.638 294.425Z" fill="#54A7D5" stroke="#151515" stroke-width="0.328" stroke-miterlimit="10" stroke-linecap="round" stroke-linejoin="round"/>
<path opacity="0.46" d="M228.241 254.096H184.861C183.847 254.096 183.025 253.274 183.025 252.26C183.025 251.247 183.847 250.425 184.861 250.425H228.241C229.254 250.425 230.076 251.247 230.076 252.26C230.077 253.274 229.255 254.096 228.241 254.096Z" fill="#FDFDFD" stroke="#151515" stroke-width="0.328" stroke-miterlimit="10" stroke-linecap="round" stroke-linejoin="round"/>
<path opacity="0.46" d="M228.241 262.384H184.861C183.847 262.384 183.025 261.562 183.025 260.549C183.025 259.535 183.847 258.713 184.861 258.713H228.241C229.254 258.713 230.076 259.535 230.076 260.549C230.077 261.562 229.255 262.384 228.241 262.384Z" fill="#FDFDFD" stroke="#151515" stroke-width="0.328" stroke-miterlimit="10" stroke-linecap="round" stroke-linejoin="round"/>
<path opacity="0.46" d="M228.241 270.673H184.861C183.847 270.673 183.025 269.851 183.025 268.837C183.025 267.824 183.847 267.002 184.861 267.002H228.241C229.254 267.002 230.076 267.824 230.076 268.837C230.077 269.851 229.255 270.673 228.241 270.673Z" fill="#FDFDFD" stroke="#151515" stroke-width="0.328" stroke-miterlimit="10" stroke-linecap="round" stroke-linejoin="round"/>
<path opacity="0.46" d="M228.241 278.961H184.861C183.847 278.961 183.025 278.139 183.025 277.126C183.025 276.112 183.847 275.29 184.861 275.29H228.241C229.254 275.29 230.076 276.112 230.076 277.126C230.077 278.14 229.255 278.961 228.241 278.961Z" fill="#FDFDFD" stroke="#151515" stroke-width="0.328" stroke-miterlimit="10" stroke-linecap="round" stroke-linejoin="round"/>
<path opacity="0.46" d="M228.241 287.25H184.861C183.847 287.25 183.025 286.428 183.025 285.414C183.025 284.401 183.847 283.579 184.861 283.579H228.241C229.254 283.579 230.076 284.401 230.076 285.414C230.077 286.429 229.255 287.25 228.241 287.25Z" fill="#FDFDFD" stroke="#151515" stroke-width="0.328" stroke-miterlimit="10" stroke-linecap="round" stroke-linejoin="round"/>
<path d="M177.218 285.701C177.218 285.701 181.155 282.864 181.49 280.852C181.825 278.84 181.825 271.965 183.921 270.372C186.017 268.779 193.227 264.168 193.227 264.168C193.227 264.168 193.479 266.432 192.64 267.69C191.802 268.947 189.538 272.134 189.371 273.223C189.203 274.313 190.125 275.654 190.125 275.654C190.125 275.654 195.407 270.959 195.91 269.702C196.413 268.444 200.521 261.15 202.533 259.725C204.545 258.3 205.551 258.049 205.551 258.049C205.551 258.049 204.545 262.66 203.874 264.336C203.204 266.013 203.12 280.685 198.006 286.135C192.891 291.584 187.107 298.573 187.107 298.573L177.218 285.701Z" fill="#F5D6B2" stroke="#151515" stroke-width="0.328" stroke-miterlimit="10" stroke-linecap="round" stroke-linejoin="round"/>
<path d="M106.64 163.263C106.64 163.263 116.889 162.447 117.796 176.415C118.703 190.382 118.975 203.261 118.975 203.261C118.975 203.261 120.154 208.975 113.533 210.698C106.912 212.422 106.912 212.422 106.912 212.422L104.463 233.01L75.4399 230.108L81.2449 198.132C81.2449 198.132 89.8614 164.805 106.64 163.263Z" fill="#F5D6B2" stroke="#151515" stroke-width="0.328" stroke-miterlimit="10" stroke-linecap="round" stroke-linejoin="round"/>
<path d="M118.237 184C118.237 184 118.867 187.903 120.558 190.465C122.249 193.027 122.249 193.027 122.249 193.027L118.685 194.003L118.237 184Z" fill="#FFBD07" stroke="#151515" stroke-width="0.328" stroke-miterlimit="10" stroke-linecap="round" stroke-linejoin="round"/>
<path d="M116.31 195.009C116.934 195.009 117.44 193.223 117.44 191.02C117.44 188.816 116.934 187.03 116.31 187.03C115.686 187.03 115.18 188.816 115.18 191.02C115.18 193.223 115.686 195.009 116.31 195.009Z" fill="#FFBD07"/>
<path d="M115.18 196.895C115.18 196.895 115.79 199.358 118.885 199.893" stroke="#151515" stroke-width="0.328" stroke-miterlimit="10" stroke-linecap="round" stroke-linejoin="round"/>
<path d="M113.063 191.723C113.063 191.723 112.615 186.295 108.283 187.029C103.951 187.764 101.532 195.532 104.848 200.99C108.14 206.407 111.495 201.433 111.943 200.537" stroke="#151515" stroke-width="0.328" stroke-miterlimit="10" stroke-linecap="round" stroke-linejoin="round"/>
<path d="M109.118 191.54L110.6 197.592L109.118 195.925" stroke="#151515" stroke-width="0.328" stroke-miterlimit="10" stroke-linecap="round" stroke-linejoin="round"/>
<path d="M73.2226 202.396C73.283 202.592 76.3688 211.493 87.0399 212.314C97.7104 213.134 105.125 201.42 105.125 201.42C105.125 201.42 102.431 198.988 103.491 193.168C104.551 187.347 106.984 186.917 109.119 187.029C111.254 187.142 112.273 188.551 112.631 189.875C112.989 191.198 113.306 192.34 113.785 192.477C114.264 192.614 113.306 188.715 113.785 187.415C114.264 186.116 116.033 183.517 116.311 178.934C116.589 174.351 116.589 174.351 116.589 174.351C116.589 174.351 120.215 174.351 121.925 167.511C123.635 160.671 122.609 156.499 115.632 156.909C108.654 157.319 101.61 159.713 91.8963 161.012C82.1836 162.312 73.9068 169.563 72.0602 182.148C70.2135 194.734 72.3331 199.523 73.2226 202.396Z" fill="#7B4303" stroke="#151515" stroke-width="0.328" stroke-miterlimit="10" stroke-linecap="round" stroke-linejoin="round"/>
<path d="M110.6 180.315C113.273 182.404 112.682 186.078 112.682 186.078C112.682 186.078 114.2 183.556 114.051 182.764" stroke="#151515" stroke-width="0.328" stroke-miterlimit="10" stroke-linecap="round" stroke-linejoin="round"/>
<path d="M114.061 167.637C114.061 167.637 117.365 170.23 120.606 167.349C120.606 167.349 118.888 170.524 117.333 170.734" stroke="#151515" stroke-width="0.328" stroke-miterlimit="10" stroke-linecap="round" stroke-linejoin="round"/>
<path d="M104.848 200.991C104.848 200.991 100.267 200.163 99.0362 198.132" stroke="#151515" stroke-width="0.328" stroke-miterlimit="10" stroke-linecap="round" stroke-linejoin="round"/>
<path d="M75.6367 229.025L104.463 233.009L106.138 247.062L71.3268 241.92L75.6367 229.025Z" fill="#FDFDFD" stroke="#151515" stroke-width="0.328" stroke-miterlimit="10" stroke-linecap="round" stroke-linejoin="round"/>
<path d="M104.463 233.01L101.942 246.442" stroke="#151515" stroke-width="0.328" stroke-miterlimit="10" stroke-linecap="round" stroke-linejoin="round"/>
<path d="M106.138 247.062C106.138 247.062 132.743 249.522 136.32 264.227C139.897 278.933 145.064 307.351 145.064 307.351L166.129 293.241C166.129 293.241 178.847 298.209 179.245 311.524L153.609 348H10.7235L23.2433 272.573C23.2433 272.573 26.6217 257.073 34.7692 253.496C42.9167 249.919 71.3261 241.92 71.3261 241.92L106.138 247.062Z" fill="#007BC0" stroke="#151515" stroke-width="0.328" stroke-miterlimit="10" stroke-linecap="round" stroke-linejoin="round"/>
<path d="M103.202 294.96C103.436 296.362 117.032 347.001 117.032 347.001L108.182 328.789" stroke="#151515" stroke-width="0.328" stroke-miterlimit="10" stroke-linecap="round" stroke-linejoin="round"/>
<path d="M124.322 319.171L146.238 306.564L132.841 308.179" stroke="#151515" stroke-width="0.328" stroke-miterlimit="10" stroke-linecap="round" stroke-linejoin="round"/>
<path d="M113.063 255.202C113.063 255.202 105.621 258.274 104.463 268.587C103.306 278.9 103.3 284.605 103.3 284.605" stroke="#151515" stroke-width="0.328" stroke-miterlimit="10" stroke-linecap="round" stroke-linejoin="round"/>
<path d="M35.2828 276.267L24.531 348" stroke="#151515" stroke-width="0.328" stroke-miterlimit="10" stroke-linecap="round" stroke-linejoin="round"/>
<path d="M166.129 293.242L176.623 285.62C176.623 285.62 187.073 286.443 188.307 297.634L179.245 311.525C179.245 311.525 179.996 306.192 175.389 300.103C170.781 294.014 166.129 293.242 166.129 293.242Z" fill="#FDFDFD" stroke="#151515" stroke-width="0.328" stroke-miterlimit="10" stroke-linecap="round" stroke-linejoin="round"/>
<path d="M173.578 297.966L180.078 294.424L176.489 301.699" fill="#FDFDFD"/>
<path d="M173.578 297.966L180.078 294.424L176.489 301.699" stroke="#151515" stroke-width="0.328" stroke-miterlimit="10" stroke-linecap="round" stroke-linejoin="round"/>
<path d="M203.875 264.336L199.661 273.421" stroke="#151515" stroke-width="0.328" stroke-miterlimit="10" stroke-linecap="round" stroke-linejoin="round"/>
<path d="M98.1474 208.738C98.1474 208.738 94.9749 213.839 89.0263 216.282C83.0777 218.724 78.0291 215.847 78.0291 215.847L79.1443 209.705C79.1443 209.705 84.887 212.864 90.7175 211.835C96.548 210.806 98.1474 208.738 98.1474 208.738Z" fill="#151515"/>
<path d="M105.125 201.42C105.125 201.42 105.181 201.526 105.284 201.69C105.696 202.346 106.856 203.936 108.182 203.479C109.841 202.907 110.754 202.138 110.754 202.138C110.754 202.138 110.252 205.969 106.577 206.408C102.901 206.847 101.147 206.408 101.147 206.408" fill="#151515"/>
<path d="M122.249 193.027C122.249 193.027 120.839 191.653 119.906 192.037C118.973 192.42 118.973 192.42 118.973 192.42L118.685 194.003L122.249 193.027Z" fill="#151515"/>
<path d="M104.349 233.618L101.942 246.443H103.797L104.349 233.618Z" fill="#151515"/>
<path d="M146.238 306.565L127.255 317.484L143.428 298.573L146.238 306.565Z" fill="#151515"/>
<path d="M177.218 285.701C177.218 285.701 186.49 286.134 188.307 297.633L190.615 294.424C190.615 294.424 188.729 288.733 185.654 286.311C182.58 283.889 179.814 283.453 179.814 283.453L177.218 285.701Z" fill="#151515"/>
<path d="M105.414 303.501L117.3 348H110.118L105.414 303.501Z" fill="#151515"/>
<path d="M17.3065 347.942H27.2462L33.881 285.62L17.3065 347.942Z" fill="#151515"/>
<path d="M235.432 204.086H184.918C182.754 204.086 181 202.332 181 200.169V185.918C181 183.754 182.754 182 184.918 182H235.432C237.595 182 239.349 183.754 239.349 185.918V200.169C239.35 202.332 237.596 204.086 235.432 204.086Z" fill="#007BC0" stroke="#151515" stroke-width="0.328" stroke-miterlimit="10" stroke-linecap="round" stroke-linejoin="round"/>
<path d="M194.348 187.248V199H192.925V188.74H192.856L189.987 190.645V189.199L192.925 187.248H194.348ZM201.561 199.161C200.697 199.161 199.96 198.925 199.352 198.455C198.744 197.98 198.279 197.294 197.958 196.395C197.636 195.492 197.476 194.402 197.476 193.124C197.476 191.854 197.636 190.769 197.958 189.87C198.283 188.967 198.75 188.279 199.358 187.804C199.97 187.326 200.704 187.087 201.561 187.087C202.418 187.087 203.151 187.326 203.759 187.804C204.371 188.279 204.838 188.967 205.159 189.87C205.485 190.769 205.647 191.854 205.647 193.124C205.647 194.402 205.487 195.492 205.165 196.395C204.844 197.294 204.379 197.98 203.771 198.455C203.162 198.925 202.426 199.161 201.561 199.161ZM201.561 197.898C202.418 197.898 203.084 197.485 203.558 196.659C204.033 195.832 204.27 194.654 204.27 193.124C204.27 192.106 204.161 191.24 203.943 190.524C203.729 189.809 203.419 189.264 203.013 188.889C202.612 188.514 202.128 188.327 201.561 188.327C200.712 188.327 200.048 188.745 199.57 189.583C199.092 190.417 198.853 191.597 198.853 193.124C198.853 194.141 198.96 195.006 199.174 195.718C199.388 196.429 199.696 196.971 200.098 197.342C200.504 197.713 200.991 197.898 201.561 197.898ZM208.838 197.497C208.555 197.497 208.312 197.395 208.109 197.192C207.906 196.99 207.805 196.747 207.805 196.464C207.805 196.181 207.906 195.938 208.109 195.735C208.312 195.532 208.555 195.431 208.838 195.431C209.121 195.431 209.364 195.532 209.567 195.735C209.769 195.938 209.871 196.181 209.871 196.464C209.871 196.651 209.823 196.823 209.727 196.98C209.635 197.137 209.511 197.263 209.354 197.359C209.201 197.451 209.029 197.497 208.838 197.497ZM208.838 191.552C208.555 191.552 208.312 191.45 208.109 191.247C207.906 191.045 207.805 190.802 207.805 190.519C207.805 190.235 207.906 189.993 208.109 189.79C208.312 189.587 208.555 189.486 208.838 189.486C209.121 189.486 209.364 189.587 209.567 189.79C209.769 189.993 209.871 190.235 209.871 190.519C209.871 190.706 209.823 190.878 209.727 191.035C209.635 191.192 209.511 191.318 209.354 191.414C209.201 191.506 209.029 191.552 208.838 191.552ZM216.249 199.161C215.491 199.161 214.816 199.031 214.223 198.77C213.634 198.51 213.165 198.149 212.817 197.686C212.473 197.219 212.286 196.678 212.255 196.062H213.701C213.732 196.441 213.862 196.768 214.091 197.043C214.321 197.315 214.621 197.525 214.992 197.674C215.363 197.824 215.775 197.898 216.226 197.898C216.731 197.898 217.179 197.81 217.569 197.634C217.959 197.458 218.265 197.213 218.487 196.9C218.709 196.586 218.82 196.223 218.82 195.809C218.82 195.377 218.713 194.996 218.498 194.667C218.284 194.335 217.97 194.075 217.557 193.887C217.144 193.7 216.639 193.606 216.042 193.606H215.101V192.343H216.042C216.509 192.343 216.918 192.259 217.27 192.091C217.626 191.923 217.904 191.685 218.102 191.379C218.305 191.073 218.407 190.714 218.407 190.301C218.407 189.903 218.319 189.556 218.143 189.262C217.967 188.967 217.718 188.738 217.397 188.573C217.079 188.409 216.704 188.327 216.272 188.327C215.866 188.327 215.484 188.401 215.124 188.55C214.768 188.696 214.478 188.908 214.252 189.187C214.026 189.463 213.904 189.796 213.885 190.186H212.507C212.53 189.57 212.716 189.03 213.064 188.568C213.412 188.101 213.867 187.737 214.43 187.477C214.996 187.217 215.618 187.087 216.295 187.087C217.022 187.087 217.645 187.234 218.166 187.529C218.686 187.82 219.086 188.204 219.365 188.682C219.644 189.16 219.784 189.677 219.784 190.232C219.784 190.893 219.61 191.458 219.262 191.925C218.917 192.391 218.449 192.714 217.856 192.894V192.986C218.598 193.109 219.177 193.424 219.594 193.933C220.011 194.438 220.22 195.063 220.22 195.809C220.22 196.448 220.046 197.022 219.698 197.531C219.353 198.036 218.883 198.434 218.286 198.725C217.689 199.015 217.01 199.161 216.249 199.161ZM226.4 199.161C225.536 199.161 224.799 198.925 224.191 198.455C223.583 197.98 223.118 197.294 222.797 196.395C222.475 195.492 222.314 194.402 222.314 193.124C222.314 191.854 222.475 190.769 222.797 189.87C223.122 188.967 223.588 188.279 224.197 187.804C224.809 187.326 225.543 187.087 226.4 187.087C227.257 187.087 227.99 187.326 228.598 187.804C229.21 188.279 229.677 188.967 229.998 189.87C230.323 190.769 230.486 191.854 230.486 193.124C230.486 194.402 230.325 195.492 230.004 196.395C229.683 197.294 229.218 197.98 228.61 198.455C228.001 198.925 227.265 199.161 226.4 199.161ZM226.4 197.898C227.257 197.898 227.923 197.485 228.397 196.659C228.872 195.832 229.109 194.654 229.109 193.124C229.109 192.106 229 191.24 228.782 190.524C228.567 189.809 228.258 189.264 227.852 188.889C227.45 188.514 226.966 188.327 226.4 188.327C225.551 188.327 224.887 188.745 224.409 189.583C223.931 190.417 223.692 191.597 223.692 193.124C223.692 194.141 223.799 195.006 224.013 195.718C224.227 196.429 224.535 196.971 224.937 197.342C225.342 197.713 225.83 197.898 226.4 197.898Z" fill="#FDFDFD"/>
<path d="M231.735 65.5808C231.735 60.1799 227.357 55.8018 221.956 55.8018C216.555 55.8018 212.177 60.1799 212.177 65.5808C212.177 67.9364 212.719 69.7575 214.075 71.8921L221.956 88.7087L230.734 69.8913L230.723 69.8926C231.365 68.5905 231.735 67.1302 231.735 65.5808Z" fill="#FFBD07" stroke="#151515" stroke-width="0.328" stroke-miterlimit="10" stroke-linecap="round" stroke-linejoin="round"/>
<path d="M221.956 68.6962C224.303 68.6962 226.206 66.7936 226.206 64.4466C226.206 62.0996 224.303 60.197 221.956 60.197C219.609 60.197 217.707 62.0996 217.707 64.4466C217.707 66.7936 219.609 68.6962 221.956 68.6962Z" fill="#FDFDFD" stroke="#151515" stroke-width="0.328" stroke-miterlimit="10" stroke-linecap="round" stroke-linejoin="round"/>
<path d="M247.707 112.603H179.23L197.763 77.0596H190.952L172.42 112.603H134.198V118.002H169.604L142.109 170.734H148.919L176.415 118.002H247.707V112.603Z" fill="#00446A" stroke="#151515" stroke-width="0.328" stroke-miterlimit="10" stroke-linecap="round" stroke-linejoin="round"/>
</g>
<defs>
<clipPath id="clip0_1585_7002">
<rect width="328" height="328" fill="white" transform="translate(0 20)"/>
</clipPath>
</defs>
</svg>
