<svg width="328" height="348" viewBox="0 0 328 348" fill="none" xmlns="http://www.w3.org/2000/svg">
<g clip-path="url(#clip0_1585_7794)">
<rect width="328" height="348" rx="16" fill="#E6F2F9"/>
<path d="M53.6948 331.304C65.2679 342.622 78.525 352.029 92.6185 358.619C114.08 368.654 137.717 373.49 161.356 373.778C230.445 374.617 235.704 293.456 256.946 282.171C278.188 270.886 316.689 269.559 318.017 224.42C318.852 196.029 312.224 166.834 293.587 144.714C276.517 124.454 251.439 114.185 226.734 106.599C198.99 98.0806 169.566 89.7238 140.383 95.4717C110.434 101.37 89.3923 125.085 64.7976 141.109C49.3114 151.199 35.4121 161.823 25.8509 178.014C24.7088 179.948 23.6362 181.925 22.6174 183.926C9.81757 209.084 7.30704 238.104 14.3669 265.329C20.7026 289.759 35.0027 313.024 53.6948 331.304Z" fill="#FDFDFD"/>
<path d="M294.069 250.848C294.069 256.413 289.558 260.925 283.992 260.925H192.792C187.226 260.925 182.715 256.413 182.715 250.848V79.1169C182.715 73.5515 187.226 69.0398 192.792 69.0398H283.992C289.558 69.0398 294.069 73.5515 294.069 79.1169V250.848Z" fill="#00446A"/>
<path d="M193.417 79.7207C190.389 79.7207 187.934 82.1753 187.934 85.2033V246.873C187.934 249.901 190.389 252.355 193.417 252.355H283.367C286.395 252.355 288.85 249.901 288.85 246.873V85.2033C288.85 82.1753 286.395 79.7207 283.367 79.7207H193.417Z" fill="#E6F2F9"/>
<path d="M251.344 74.9549H225.44C225.341 74.9549 225.261 74.8748 225.261 74.7757C225.261 74.6766 225.341 74.5964 225.44 74.5964H251.344C251.443 74.5964 251.523 74.6766 251.523 74.7757C251.523 74.8748 251.443 74.9549 251.344 74.9549Z" fill="#B0D6EB"/>
<path d="M275.921 94.8953H200.863V169.954H275.921V94.8953Z" fill="#007BC0"/>
<path d="M256.819 167.116C256.72 167.116 256.64 167.036 256.64 166.937V154.351L240.689 138.4H211.34V97.9119C211.34 97.8128 211.421 97.7327 211.52 97.7327C211.619 97.7327 211.699 97.8128 211.699 97.9119V138.041H240.837L256.999 154.202V166.937C256.999 167.036 256.918 167.116 256.819 167.116Z" fill="#FDFDFD"/>
<path d="M243.226 166.928C243.18 166.928 243.134 166.91 243.099 166.875L220.298 144.074V133.667L245.958 108.007H272.114C272.213 108.007 272.293 108.087 272.293 108.187C272.293 108.286 272.213 108.366 272.114 108.366H246.106L220.656 133.816V143.925L243.353 166.621C243.423 166.692 243.423 166.805 243.353 166.875C243.318 166.91 243.272 166.928 243.226 166.928Z" fill="#FDFDFD"/>
<path d="M260.701 132.604H236.105V101.253H204.67C204.571 101.253 204.49 101.173 204.49 101.073C204.49 100.974 204.571 100.894 204.67 100.894H236.463V132.245H260.343V98.9656C260.343 98.8665 260.423 98.7864 260.522 98.7864C260.621 98.7864 260.701 98.8665 260.701 98.9656V132.604Z" fill="#FDFDFD"/>
<path d="M208.885 167.116C208.786 167.116 208.706 167.036 208.706 166.937V157.537H229.097L238.713 147.921H272.114C272.213 147.921 272.293 148.001 272.293 148.1C272.293 148.199 272.213 148.279 272.114 148.279H238.862L229.246 157.895H209.065V166.937C209.065 167.036 208.984 167.116 208.885 167.116Z" fill="#FDFDFD"/>
<path d="M219.536 159.08C220.787 157.829 220.787 155.801 219.536 154.55C218.285 153.299 216.257 153.299 215.006 154.55C213.755 155.801 213.755 157.829 215.006 159.08C216.257 160.331 218.285 160.331 219.536 159.08Z" fill="#FFBD07"/>
<path d="M217.274 124.434C211.916 124.434 207.573 128.777 207.573 134.135C207.573 139.492 217.274 151.315 217.274 151.315C217.274 151.315 226.975 139.492 226.975 134.135C226.975 128.777 222.632 124.434 217.274 124.434Z" fill="#FFBD07"/>
<path d="M217.274 140.773C220.94 140.773 223.912 137.801 223.912 134.135C223.912 130.469 220.94 127.497 217.274 127.497C213.608 127.497 210.636 130.469 210.636 134.135C210.636 137.801 213.608 140.773 217.274 140.773Z" fill="#FDFDFD"/>
<path d="M229.171 157.895H217.275C217.176 157.895 217.096 157.815 217.096 157.716C217.096 157.617 217.176 157.537 217.275 157.537H229.097L238.66 147.973C238.694 147.94 238.739 147.921 238.787 147.921H272.114C272.213 147.921 272.293 148.001 272.293 148.1C272.293 148.199 272.213 148.279 272.114 148.279H238.861L229.298 157.843C229.264 157.876 229.219 157.895 229.171 157.895Z" fill="#FFBD07"/>
<path d="M275.921 178.162H140.852V194.641H275.921V178.162Z" fill="#0070AF"/>
<path d="M275.921 199.938H168.302V208.177H275.921V199.938Z" fill="#B0D6EB"/>
<path d="M162.572 199.938H140.852V208.177H162.572V199.938Z" fill="#FDFDFD"/>
<path d="M275.921 213.473H168.302V221.712H275.921V213.473Z" fill="#B0D6EB"/>
<path d="M162.572 213.473H140.852V221.712H162.572V213.473Z" fill="#FDFDFD"/>
<path d="M275.921 227.01H168.302V235.249H275.921V227.01Z" fill="#B0D6EB"/>
<path d="M162.572 227.01H140.852V235.249H162.572V227.01Z" fill="#FDFDFD"/>
<path d="M121.59 222.424C121.59 222.424 119.127 226.653 120.941 230.074C121.654 231.42 122.699 232.012 123.847 232.767C125.038 233.551 132.835 238.683 134.416 245.382C134.744 246.768 135.275 249.02 134.264 251.022C132.105 255.296 124.575 255.147 115.515 255.29C92.327 255.655 89.5571 257.448 75.0362 255.599C64.4604 254.252 60.0292 252.585 57.6619 248.805C56.0143 246.174 55.3055 242.605 56.2319 237.808C59.2343 222.262 76.8373 222.942 83.4998 216.71C90.1622 210.479 94.8549 204.019 106.315 203.517C117.776 203.016 130.601 209.152 129.355 219.013C129.316 219.321 129.186 220.539 128.276 221.505C126.245 223.662 122.211 222.597 121.59 222.424Z" fill="#003451"/>
<path d="M59.5945 248.46C59.5626 248.46 59.5304 248.452 59.5012 248.434C53.6339 244.838 51.1734 239.783 52.5727 234.201C53.5025 230.491 56.0525 226.866 59.7526 223.992C63.4708 221.104 67.8444 219.377 72.0671 219.129C86.1321 218.303 90.606 212.134 90.6493 212.071C90.7062 211.99 90.8178 211.97 90.8988 212.027C90.9798 212.084 90.9999 212.195 90.9433 212.276C90.8976 212.342 89.7913 213.901 86.9024 215.58C84.2508 217.121 79.5282 219.05 72.0881 219.487C63.5841 219.986 54.8065 226.764 52.9205 234.288C51.5625 239.706 53.966 244.621 59.6886 248.129C59.7731 248.18 59.7996 248.291 59.7478 248.375C59.7137 248.43 59.6549 248.46 59.5945 248.46Z" fill="#003451"/>
<path d="M49.7084 278.842C49.7084 278.842 42.4586 309.736 48.164 347.023H148.734C148.734 347.023 134.001 311.316 134.007 293.143L49.7084 278.842Z" fill="#007BC0"/>
<path d="M40.6917 289.886C40.6917 289.886 37.734 324.922 59.8046 328.547C81.8753 332.172 78.4357 291.772 78.4357 291.772L40.6917 289.886Z" fill="#F5D6B2"/>
<path d="M35.776 294.201C35.776 294.201 62.9188 295.914 81.4313 304.842C99.9437 313.77 154.353 305.326 168.71 291.672C168.71 291.672 152.598 245.695 101.096 245.768C49.593 245.841 39.8348 271.355 35.776 294.201Z" fill="#007BC0"/>
<path d="M86.804 249.979L96.7385 224.584L110.942 228.876L107.171 249.715L86.804 249.979Z" fill="#F5D6B2"/>
<path d="M110.003 249.818C110.003 251.611 104.375 253.064 97.4332 253.064C90.4911 253.064 84.8635 251.611 84.8635 249.818C84.8635 248.025 90.4911 246.101 97.4332 246.101C104.375 246.101 110.003 248.026 110.003 249.818Z" fill="#F5D6B2"/>
<path d="M122.062 217.817C122.062 217.817 120.021 237.707 111.613 238.344C106.526 238.728 101.864 232.879 100.733 230.134C99.6025 227.388 100.733 222.9 100.733 222.9C100.733 222.9 102.441 224.5 103.814 223.443C105.186 222.387 103.601 215.743 109.637 216.014C115.673 216.286 116.327 218.838 122.062 217.817Z" fill="#F5D6B2"/>
<path d="M109.456 238.647C109.44 238.647 109.424 238.645 109.408 238.641C106.593 237.87 103.921 235.43 102.522 233.353C102.466 233.271 102.488 233.16 102.57 233.105C102.652 233.049 102.763 233.071 102.819 233.153C104.182 235.175 106.777 237.549 109.503 238.295C109.598 238.321 109.655 238.42 109.629 238.515C109.606 238.595 109.534 238.647 109.456 238.647Z" fill="#003451"/>
<path d="M84.2915 246.845C84.2915 246.845 96.2549 248.318 98.9924 231.582C100.645 221.481 105.797 216.651 107.686 212.479C109.574 208.307 89.155 220.698 84.2915 246.845Z" fill="#003451"/>
<path d="M103.556 224.923C104.071 226.529 103.573 229.451 101.968 229.966C100.363 230.481 98.258 228.392 97.7435 226.787C97.2287 225.182 98.1129 223.464 99.7179 222.949C101.323 222.434 103.041 223.318 103.556 224.923Z" fill="#F5D6B2"/>
<path d="M121.619 224.647C121.602 224.684 121.616 224.723 121.598 224.76C121.597 224.762 121.596 224.763 121.595 224.764C121.524 225.331 121.45 225.929 121.483 226.499C121.497 226.751 121.605 226.927 121.646 227.163C121.676 227.337 121.704 227.503 121.74 227.672C123.43 226.818 124.447 225.343 124.447 225.343C124.447 225.343 123.189 224.743 121.619 224.647Z" fill="#E6F2F9"/>
<path d="M119.758 224.82C117.61 225.384 116.197 227.216 115.968 227.529C115.981 227.557 115.994 227.585 116.007 227.614C116.41 227.794 118.507 228.658 120.62 228.102C121.017 227.998 121.385 227.849 121.729 227.676C121.798 227.536 121.861 227.393 121.909 227.24C122.199 226.339 122.063 225.405 121.616 224.65C121.028 224.617 120.394 224.653 119.758 224.82Z" fill="#003451"/>
<path d="M110.273 225.011C110.055 225.65 110.008 226.173 110.195 226.792C111.754 227.193 113.147 226.978 113.147 226.978C113.147 226.978 112.497 224.967 110.891 223.627C110.581 224.016 110.427 224.558 110.273 225.011Z" fill="#E6F2F9"/>
<path d="M110.162 226.783C110.948 225.957 111.246 224.75 110.888 223.63C110.707 223.481 110.517 223.338 110.31 223.209C108.248 221.922 105.678 222.319 105.678 222.319C105.678 222.319 106.452 224.802 108.515 226.089C109.048 226.421 109.614 226.64 110.162 226.783Z" fill="#003451"/>
<path d="M99.3625 227.111C99.2861 227.111 99.2153 227.061 99.1915 226.985C99.1583 226.878 99.1338 226.766 99.1187 226.653C99.0601 226.206 99.1528 225.765 99.3802 225.411C99.6138 225.048 99.96 224.819 100.355 224.768C100.556 224.741 100.757 224.762 100.952 224.83C101.045 224.862 101.095 224.964 101.062 225.058C101.03 225.151 100.928 225.201 100.834 225.168C100.693 225.119 100.548 225.104 100.402 225.123C100.113 225.161 99.857 225.332 99.6817 225.605C99.4999 225.887 99.4263 226.243 99.474 226.606C99.4863 226.699 99.5064 226.791 99.5335 226.878C99.563 226.972 99.5103 227.073 99.4159 227.102C99.3981 227.108 99.3802 227.111 99.3625 227.111Z" fill="#003451"/>
<path d="M115.049 230.353C114.996 230.353 114.944 230.329 114.908 230.285C114.847 230.207 114.859 230.095 114.937 230.033C115.17 229.848 115.301 229.651 115.327 229.449C115.353 229.24 115.257 229.072 115.124 228.841C115.014 228.649 114.889 228.431 114.797 228.132C114.68 227.749 114.65 227.335 114.709 226.9C114.722 226.802 114.813 226.734 114.91 226.746C115.009 226.759 115.077 226.85 115.064 226.948C115.012 227.331 115.038 227.694 115.14 228.026C115.22 228.287 115.335 228.486 115.435 228.662C115.584 228.921 115.724 229.166 115.683 229.494C115.644 229.793 115.469 230.068 115.16 230.314C115.127 230.34 115.088 230.353 115.049 230.353Z" fill="#003451"/>
<path d="M112.627 232.872C112.352 232.872 112.105 232.803 111.888 232.663C111.235 232.244 111.115 231.351 111.11 231.313C111.098 231.215 111.167 231.126 111.265 231.113C111.365 231.102 111.453 231.17 111.466 231.268C111.467 231.276 111.572 232.035 112.083 232.362C112.358 232.538 112.711 232.56 113.133 232.429C113.226 232.399 113.328 232.452 113.357 232.546C113.387 232.641 113.334 232.741 113.24 232.771C113.023 232.839 112.818 232.872 112.627 232.872Z" fill="#003451"/>
<path d="M167.466 278.842C167.466 278.842 184.35 307.755 165.498 316.322C141.48 327.237 127.077 302.972 127.077 302.972L167.466 278.842Z" fill="#F5D6B2"/>
<path d="M150.146 309.428H105.173L127.894 257.094H172.867L150.146 309.428Z" fill="#005788"/>
<path d="M103.941 306.597C103.917 306.597 103.893 306.593 103.87 306.582C103.779 306.543 103.737 306.437 103.776 306.347L126.001 255.156C126.03 255.091 126.094 255.048 126.166 255.048H170.06C170.159 255.048 170.239 255.128 170.239 255.227C170.239 255.326 170.159 255.407 170.06 255.407H126.284L104.105 306.49C104.076 306.557 104.01 306.597 103.941 306.597Z" fill="#005788"/>
<path d="M149.411 269.925C149.774 267.261 155.839 266.904 161.724 267.005C166.044 267.079 170.958 267.484 170.958 270.955C170.958 274.991 164.87 274.986 160.909 274.65C155.029 274.151 149.057 272.529 149.411 269.925Z" fill="#F5D6B2"/>
<path d="M147.462 275.995C147.857 273.183 154.472 272.806 160.888 272.913C165.6 272.991 170.957 273.418 170.957 277.083C170.957 281.344 164.319 281.338 160 280.983C153.589 280.457 147.076 278.745 147.462 275.995Z" fill="#F5D6B2"/>
<path d="M147.234 283.284C147.458 280.358 153.275 279.719 158.939 279.588C163.098 279.492 167.841 279.732 168.003 283.527C168.191 287.939 162.336 288.183 158.511 287.978C152.834 287.674 147.015 286.145 147.234 283.284Z" fill="#F5D6B2"/>
<path d="M148.691 289.392C148.862 286.969 153.426 286.45 157.872 286.352C161.136 286.28 164.86 286.489 164.994 289.632C165.149 293.287 160.554 293.478 157.551 293.301C153.095 293.038 148.525 291.762 148.691 289.392Z" fill="#F5D6B2"/>
<path d="M158.649 293.5C158.174 293.5 157.674 293.485 157.148 293.454C157.049 293.448 156.974 293.363 156.98 293.265C156.986 293.166 157.073 293.092 157.169 293.096C160.556 293.296 162.934 292.822 164.046 291.728C164.592 291.191 164.851 290.488 164.815 289.64C164.782 288.863 164.523 288.253 164.024 287.776L163.785 287.548L164.107 287.472C166.659 286.874 167.91 285.549 167.824 283.535C167.777 282.443 167.341 281.617 166.491 281.009L166.144 280.761L166.563 280.686C167.19 280.575 167.756 280.426 168.245 280.244C168.338 280.209 168.441 280.256 168.476 280.349C168.51 280.441 168.463 280.545 168.371 280.579C167.964 280.731 167.508 280.86 167.011 280.965C167.744 281.61 168.137 282.468 168.182 283.519C168.273 285.649 167.03 287.07 164.488 287.747C164.911 288.25 165.141 288.88 165.173 289.624C165.213 290.578 164.919 291.372 164.298 291.983C163.273 292.992 161.376 293.5 158.649 293.5Z" fill="#003451"/>
<path d="M168.717 274.209C168.714 274.209 168.711 274.209 168.707 274.209L156.215 273.57C156.116 273.565 156.04 273.48 156.045 273.381C156.05 273.283 156.137 273.205 156.233 273.212L168.726 273.851C168.825 273.856 168.901 273.94 168.896 274.039C168.891 274.135 168.812 274.209 168.717 274.209Z" fill="#003451"/>
<path d="M166.945 281.002C166.941 281.002 166.937 281.002 166.933 281.002L154.791 280.232C154.693 280.226 154.617 280.141 154.624 280.042C154.63 279.943 154.714 279.87 154.814 279.874L166.956 280.644C167.055 280.65 167.13 280.735 167.124 280.834C167.118 280.929 167.039 281.002 166.945 281.002Z" fill="#003451"/>
<path d="M164.287 287.795C164.284 287.795 164.281 287.795 164.278 287.795L151.887 287.23C151.788 287.225 151.711 287.141 151.716 287.042C151.72 286.944 151.803 286.863 151.903 286.872L164.295 287.436C164.394 287.441 164.47 287.525 164.466 287.624C164.461 287.72 164.382 287.795 164.287 287.795Z" fill="#003451"/>
<path d="M93.3249 259.735C78.63 270.887 45.9766 316.851 45.9766 316.851L55.0061 327.186L58.4867 328.656C69.8093 333.437 82.8979 328.591 88.3764 317.588L104.797 283.675C104.797 283.675 107.804 284.419 109.055 283.261C110.566 281.861 110.818 279.006 110.818 279.006C110.818 279.006 112.711 278.527 113.417 276.443C114.054 274.559 112.724 273.134 112.724 273.134C112.724 273.134 114.299 270.905 113.24 268.644C111.663 265.274 105.173 264.081 105.173 264.081C105.173 264.081 120.776 265.442 120.583 261.341C120.405 257.56 98.7626 255.609 93.3249 259.735Z" fill="#F5D6B2"/>
<path d="M49.326 312.386C49.2894 312.386 49.2525 312.375 49.2206 312.352C49.1406 312.294 49.1229 312.182 49.1812 312.102C51.6125 308.761 55.4449 303.551 59.8958 297.704C59.9559 297.625 60.0684 297.61 60.1469 297.67C60.2258 297.73 60.241 297.842 60.181 297.921C55.732 303.766 51.901 308.973 49.4708 312.313C49.436 312.361 49.3815 312.386 49.326 312.386Z" fill="#003451"/>
<path d="M112.696 273.309C112.639 273.309 112.583 273.282 112.549 273.232C111.822 272.185 110.193 270.288 107.443 269.355C105.429 268.671 103.606 268.772 102.431 268.977C102.333 268.993 102.241 268.928 102.224 268.831C102.207 268.733 102.272 268.64 102.37 268.624C103.585 268.411 105.472 268.307 107.558 269.015C110.406 269.982 112.092 271.944 112.843 273.028C112.9 273.109 112.879 273.221 112.798 273.278C112.767 273.299 112.731 273.309 112.696 273.309Z" fill="#003451"/>
<path d="M110.916 279.092C110.864 279.092 110.812 279.07 110.777 279.025C109.918 277.954 108.883 277.086 107.7 276.447C105.853 275.448 104.061 275.235 102.868 275.235C102.853 275.235 102.838 275.235 102.823 275.235C102.823 275.235 102.822 275.235 102.822 275.235C102.724 275.235 102.644 275.156 102.643 275.057C102.643 274.958 102.723 274.877 102.822 274.877C102.837 274.877 102.852 274.877 102.868 274.877C104.103 274.877 105.957 275.097 107.871 276.131C109.096 276.793 110.168 277.692 111.056 278.801C111.118 278.878 111.106 278.991 111.029 279.053C110.995 279.08 110.956 279.092 110.916 279.092Z" fill="#003451"/>
<path d="M104.715 283.773C104.693 283.773 104.671 283.769 104.65 283.76C104.557 283.724 104.512 283.62 104.549 283.527L105.463 281.218C105.499 281.126 105.604 281.081 105.696 281.117C105.788 281.154 105.833 281.258 105.796 281.35L104.882 283.659C104.854 283.73 104.787 283.773 104.715 283.773Z" fill="#003451"/>
<path d="M81.8006 128.524H20.2513C17.8756 128.524 15.9497 130.45 15.9497 132.826V185.253C15.9497 187.629 17.8756 189.555 20.2513 189.555H81.8006C84.1764 189.555 86.1023 187.629 86.1023 185.253V132.826C86.1023 130.45 84.1764 128.524 81.8006 128.524Z" fill="#FFBD07"/>
<path d="M72.2474 175.099H29.8045C29.7054 175.099 29.6253 175.018 29.6253 174.919V137.529C29.6253 137.43 29.7054 137.35 29.8045 137.35H72.2474C72.3465 137.35 72.4266 137.43 72.4266 137.529V174.919C72.4266 175.018 72.3465 175.099 72.2474 175.099ZM29.9838 174.74H72.0681V137.709H29.9838V174.74Z" fill="#FDFDFD"/>
<path d="M70.2263 162.467H31.8258C31.7267 162.467 31.6465 162.387 31.6465 162.288V142.751C31.6465 142.651 31.7267 142.571 31.8258 142.571H70.2265C70.3256 142.571 70.4058 142.651 70.4058 142.751V162.288C70.4056 162.387 70.3255 162.467 70.2263 162.467ZM32.005 162.108H70.0473V142.93H32.005V162.108Z" fill="#FDFDFD"/>
<path d="M59.6156 172.909H42.4363C42.3372 172.909 42.2571 172.829 42.2571 172.73V169.867C42.2571 169.768 42.3372 169.688 42.4363 169.688H59.6156C59.7147 169.688 59.7949 169.768 59.7949 169.867V172.73C59.7949 172.829 59.7147 172.909 59.6156 172.909ZM42.6157 172.551H59.4366V170.046H42.6157V172.551Z" fill="#FDFDFD"/>
<path d="M36.4772 167.386C36.7765 166.119 35.9917 164.849 34.7243 164.549C33.4569 164.25 32.1868 165.035 31.8876 166.302C31.5883 167.57 32.3731 168.84 33.6405 169.139C34.9079 169.438 36.178 168.653 36.4772 167.386Z" fill="#FDFDFD"/>
<path d="M37.9732 172.224C38.7639 172.224 39.4048 171.584 39.4048 170.793C39.4048 170.002 38.7639 169.361 37.9732 169.361C37.1826 169.361 36.5417 170.002 36.5417 170.793C36.5417 171.584 37.1826 172.224 37.9732 172.224Z" fill="#FDFDFD"/>
<path d="M68.4098 169.119C69.6771 168.82 70.462 167.55 70.1627 166.282C69.8634 165.015 68.5934 164.23 67.326 164.529C66.0586 164.828 65.2738 166.098 65.5731 167.366C65.8723 168.633 67.1424 169.418 68.4098 169.119Z" fill="#FDFDFD"/>
<path d="M64.079 172.224C64.8696 172.224 65.5106 171.584 65.5106 170.793C65.5106 170.002 64.8696 169.361 64.079 169.361C63.2884 169.361 62.6475 170.002 62.6475 170.793C62.6475 171.584 63.2884 172.224 64.079 172.224Z" fill="#FDFDFD"/>
<path d="M31.4679 179.846C31.4679 181.543 32.844 182.92 34.5416 182.92C36.2392 182.92 37.6153 181.543 37.6153 179.846C37.6153 178.148 36.2392 176.772 34.5416 176.772C32.844 176.772 31.4679 178.148 31.4679 179.846Z" fill="#FFF8E6"/>
<path d="M64.4369 179.846C64.4369 181.543 65.813 182.92 67.5106 182.92C69.2081 182.92 70.5843 181.543 70.5843 179.846C70.5843 178.148 69.2081 176.772 67.5106 176.772C65.813 176.772 64.4369 178.148 64.4369 179.846Z" fill="#FFF8E6"/>
<path d="M25.9099 146.287H25.194C24.0895 146.287 23.194 147.183 23.194 148.287V156.919C23.194 158.024 24.0895 158.919 25.194 158.919H25.9099C27.0145 158.919 27.9099 158.024 27.9099 156.919V148.287C27.9099 147.183 27.0145 146.287 25.9099 146.287Z" fill="#FFF8E6"/>
<path d="M28.2468 163.141C28.2009 163.141 28.155 163.123 28.1201 163.088L25.4253 160.393C25.3552 160.323 25.3552 160.21 25.4253 160.14C25.4954 160.07 25.6087 160.07 25.6787 160.14L28.3735 162.835C28.4436 162.905 28.4436 163.018 28.3735 163.088C28.3384 163.123 28.2927 163.141 28.2468 163.141Z" fill="#FDFDFD"/>
<path d="M76.1422 158.919H76.858C77.9626 158.919 78.858 158.024 78.858 156.919V148.287C78.858 147.183 77.9626 146.287 76.858 146.287H76.1422C75.0376 146.287 74.1422 147.183 74.1422 148.287V156.919C74.1422 158.024 75.0376 158.919 76.1422 158.919Z" fill="#FFF8E6"/>
<path d="M73.8053 163.14C73.7594 163.14 73.7135 163.123 73.6786 163.088C73.6085 163.018 73.6085 162.904 73.6786 162.834L76.3734 160.14C76.4435 160.07 76.5567 160.07 76.6268 160.14C76.6969 160.21 76.6969 160.323 76.6268 160.393L73.932 163.088C73.8971 163.123 73.8512 163.14 73.8053 163.14Z" fill="#FDFDFD"/>
</g>
<rect x="0.5" y="0.5" width="327" height="347" rx="15.5" stroke="#B0D6EB"/>
<defs>
<clipPath id="clip0_1585_7794">
<rect width="328" height="348" rx="16" fill="white"/>
</clipPath>
</defs>
</svg>
