<svg width="328" height="348" viewBox="0 0 328 348" fill="none" xmlns="http://www.w3.org/2000/svg">
<g clip-path="url(#clip0_1585_7130)">
<rect width="328" height="348" rx="16" fill="#E6F2F9"/>
<path d="M176.874 103.543L271.605 103.938C271.605 103.938 262.631 83.4141 243.464 83.4033C228.847 83.3949 228.197 92.4987 219.426 95.0971C210.656 97.6956 192.14 81.7793 176.874 103.543Z" fill="#FDFDFD"/>
<path d="M27.0616 70.5542L95.7809 70.8406C95.7809 70.8406 89.2715 55.9526 75.3669 55.9448C64.7632 55.9388 64.2921 62.5423 57.9301 64.4277C51.5676 66.313 38.1364 54.7672 27.0616 70.5542Z" fill="#FDFDFD"/>
<path d="M257.015 242.611C251.546 232.439 239.293 225.315 228.233 228.64C229.438 217.782 223.422 206.475 213.743 201.407C207.86 198.327 200.854 197.677 194.413 199.249V291.454H254.745L260.233 276.429C262.393 265.084 262.485 252.783 257.015 242.611Z" fill="#FDFDFD"/>
<path d="M274.182 265.605C271.078 265.266 267.922 265.549 264.931 266.567C265.454 256.522 260.161 246.379 251.622 241.063C243.083 235.747 231.646 235.474 222.863 240.377C221.829 233.599 217.181 227.482 210.93 224.67C205.763 222.345 199.636 222.345 194.414 224.514V290.794H294.903V289.174C294.903 277.225 286.06 266.9 274.182 265.605Z" fill="#FDFDFD"/>
<path d="M306.829 291.654C306.829 291.74 219.006 291.81 110.697 291.81C2.35023 291.81 -85.4538 291.74 -85.4538 291.654C-85.4538 291.568 2.34963 291.498 110.697 291.498C219.007 291.498 306.829 291.568 306.829 291.654Z" fill="#00446A"/>
<path d="M193.915 262.728H-37.9397V142.295H192.539C192.539 142.295 193.915 264.089 193.915 262.728Z" fill="#FDFDFD"/>
<path d="M108.45 149.441V203.365H148.578V149.43C148.578 149.43 108.45 149.876 108.45 149.441Z" fill="#EEEFF0"/>
<path d="M108.45 149.551V157.942L148.593 158.187V149.44L108.45 149.551Z" fill="#FFBD07"/>
<path d="M122.966 153.301V154.942H135.819V153.52C135.819 153.52 123.295 153.301 122.966 153.301Z" fill="#FDFDFD"/>
<path d="M123.254 161.802H110.688V175.276H123.254V161.802Z" fill="#FDFDFD"/>
<path d="M121.497 189.389C121.497 189.389 121.688 189.38 122.053 189.376C122.448 189.373 122.979 189.368 123.646 189.363C125.062 189.358 127.05 189.351 129.486 189.342L129.44 189.389C129.435 185.372 129.43 180.075 129.424 174.279C129.424 173.128 129.425 171.997 129.425 170.899V170.837H129.486C133.877 170.843 137.854 170.848 141.039 170.852L140.991 170.899C141.033 168.41 141.067 166.376 141.091 164.929C141.106 164.246 141.117 163.702 141.126 163.299C141.135 162.926 141.147 162.73 141.147 162.73C141.147 162.73 141.154 162.926 141.153 163.3C141.151 163.703 141.148 164.247 141.144 164.93C141.13 166.378 141.11 168.411 141.086 170.9L141.085 170.947H141.038C137.852 170.951 133.876 170.956 129.486 170.962L129.547 170.9C129.547 171.998 129.548 173.129 129.548 174.279C129.542 180.076 129.537 185.373 129.532 189.389V189.437H129.486C127.05 189.428 125.061 189.421 123.646 189.416C122.979 189.41 122.447 189.406 122.052 189.403C121.688 189.398 121.497 189.389 121.497 189.389Z" fill="#007BC0"/>
<path d="M145.151 193.381C145.151 193.381 144.82 193.392 144.199 193.397C143.55 193.401 142.647 193.406 141.51 193.412C139.164 193.418 135.863 193.426 131.912 193.435H131.858V193.381C131.855 189.506 131.852 184.94 131.849 180.068C131.85 177.924 131.851 175.84 131.851 173.849V173.789H131.912C134.77 173.792 137.438 173.794 139.836 173.797L139.783 173.849C139.792 170.133 139.8 167.039 139.805 164.841C139.811 163.778 139.816 162.934 139.82 162.326C139.825 161.747 139.836 161.438 139.836 161.438C139.836 161.438 139.847 161.747 139.852 162.326C139.856 162.935 139.861 163.778 139.867 164.841C139.872 167.038 139.88 170.133 139.889 173.849V173.902H139.836C137.438 173.905 134.77 173.907 131.912 173.91L131.972 173.849C131.973 175.84 131.973 177.924 131.974 180.068C131.971 184.941 131.968 189.507 131.966 193.381L131.912 193.327C135.863 193.336 139.164 193.343 141.51 193.349C142.647 193.355 143.55 193.36 144.199 193.364C144.82 193.369 145.151 193.381 145.151 193.381Z" fill="#FFBD07"/>
<path d="M110.767 178.294V179.559H120.933V178.041L110.767 178.294Z" fill="#FDFDFD"/>
<path d="M110.688 180.426V181.692H120.854V180.173L110.688 180.426Z" fill="#FDFDFD"/>
<path d="M-52.8085 86.3702V125.754H206.745V86.8449C206.745 86.8449 -53.7571 85.4216 -52.8085 86.3702Z" fill="#00446A"/>
<path d="M158.914 122.399L158.948 291.654H163.03L163.063 123.352C163.063 123.352 158.234 122.399 158.914 122.399Z" fill="#00446A"/>
<path d="M187.558 123.668L188.238 291.324H196.404V267.17V123.668C196.404 123.668 186.878 122.957 187.558 123.668Z" fill="#00446A"/>
<path d="M-52.8085 104.503V113.843H206.745V103.937C206.745 103.937 -52.1235 104.503 -52.8085 104.503Z" fill="#007BC0"/>
<path d="M62.0646 246.923H57.8774V291.389H62.0646V246.923Z" fill="#00446A"/>
<path d="M109.706 247.22H8.06739C6.14009 247.22 4.57776 245.658 4.57776 243.731C4.57776 241.804 6.14009 240.241 8.06739 240.241H109.706C111.634 240.241 113.196 241.804 113.196 243.731C113.196 245.658 111.633 247.22 109.706 247.22Z" fill="#0070AF"/>
<path d="M289.394 147.883H284.022V291.654H289.394V147.883Z" fill="#00446A"/>
<path d="M312 107.897H264.916V147.882H312V107.897Z" fill="#007BC0"/>
<path d="M309.032 110.478H268.424V144.962H309.032V110.478Z" stroke="#FDFDFD" stroke-width="0.449463" stroke-miterlimit="10"/>
<path d="M274.461 121.608L274.359 133.78H304.428V129.158C304.428 127.763 303.297 126.632 301.902 126.632C300.506 126.632 299.375 125.501 299.375 124.106V121.531C299.375 120.13 298.25 118.998 296.85 119.004C292.06 119.028 281.708 119.08 276.955 119.103C275.573 119.11 274.473 120.226 274.461 121.608Z" fill="#FDFDFD"/>
<path d="M302.456 133.783C302.456 135.35 301.186 136.621 299.619 136.621C298.052 136.621 296.781 135.35 296.781 133.783C296.781 132.216 298.052 130.945 299.619 130.945C301.186 130.945 302.456 132.216 302.456 133.783Z" fill="#007BC0"/>
<path d="M299.581 135.79C300.676 135.79 301.563 134.902 301.563 133.808C301.563 132.713 300.676 131.826 299.581 131.826C298.487 131.826 297.599 132.713 297.599 133.808C297.599 134.902 298.487 135.79 299.581 135.79Z" fill="#FDFDFD"/>
<path d="M282.437 133.357C282.437 134.925 281.166 136.195 279.599 136.195C278.032 136.195 276.762 134.925 276.762 133.357C276.762 131.79 278.032 130.52 279.599 130.52C281.166 130.52 282.437 131.79 282.437 133.357Z" fill="#007BC0"/>
<path d="M281.543 133.382C281.543 134.477 280.656 135.364 279.561 135.364C278.467 135.364 277.58 134.477 277.58 133.382C277.58 132.288 278.466 131.4 279.561 131.4C280.656 131.401 281.543 132.288 281.543 133.382Z" fill="#FDFDFD"/>
<path d="M275.677 122.453V126.56H278.475V122.453C278.475 122.453 275.677 122.334 275.677 122.453Z" fill="#007BC0"/>
<path d="M279.725 122.453V126.56H282.523V122.453C282.523 122.453 279.725 122.334 279.725 122.453Z" fill="#007BC0"/>
<path d="M283.772 122.453V126.56H286.569V122.453C286.569 122.453 283.772 122.334 283.772 122.453Z" fill="#007BC0"/>
<path d="M288.057 122.453V126.56H290.855V122.453C290.855 122.453 288.057 122.334 288.057 122.453Z" fill="#007BC0"/>
<path d="M292.046 122.453V126.56H294.843V122.453C294.843 122.453 292.046 122.334 292.046 122.453Z" fill="#007BC0"/>
<path d="M296.331 122.453V126.56H299.128V122.453C299.128 122.453 296.331 122.334 296.331 122.453Z" fill="#007BC0"/>
<path d="M292.707 181.994C292.029 181.613 289.276 184.518 289.417 183.626C289.559 182.733 293.298 180.378 292.569 180.002C291.618 179.513 288.805 182.595 288.544 182.842C288.289 183.083 287.829 182.802 288.08 182.589C288.442 182.282 292.139 178.989 291.212 178.5C290.697 178.23 290.159 179.017 290.159 179.017C290.159 179.017 286.981 182.298 286.553 182.055C286.119 181.81 287.904 179.834 288.564 179.201C289.217 178.576 289.113 178.079 288.529 178.083C288.131 178.086 286.051 179.987 285.416 180.624C284.781 181.262 283.077 183.036 283.033 181.628C282.989 180.22 282.288 179.16 281.845 178.98C281.403 178.801 280.919 179.23 281.162 179.62C281.358 179.935 281.477 180.543 281.544 181.002C281.592 181.335 281.576 181.672 281.5 182.001C279.911 183.313 268.521 192.661 267.199 192.264C265.776 191.836 260.315 174.038 260.315 174.038L254.731 190.252C254.731 190.252 258.647 201.963 265.897 202.086C274.596 202.233 286.957 186.573 286.959 186.572C288.599 185.575 290.355 184.463 291.24 183.762C293.122 182.271 292.959 182.136 292.707 181.994Z" fill="#F5D6B2"/>
<path d="M257.802 190.982L265.56 185.937C265.56 185.937 261.723 170.138 255.35 169.631L254.733 175.418L257.802 190.982Z" fill="#007BC0"/>
<path d="M240.22 212.211C240.716 212.905 244.633 241.953 244.633 241.953L218.298 267.745L224.469 274.278C224.469 274.278 255.453 248.165 256.085 245.174C256.84 241.601 254.733 214.324 254.733 214.324L240.22 212.211Z" fill="#F1C28C"/>
<path d="M240.696 228.141H246.415L238.994 216.381L240.696 228.141Z" fill="#00446A"/>
<path d="M238.646 155.637C238.495 158.794 236.198 161.357 233.334 162.056C231.828 162.424 230.096 162.251 228.903 163.262C226.857 164.997 228.054 168.592 226.674 170.919C225.825 172.35 224.141 173.052 223.187 174.41C221.601 176.668 222.665 180.08 224.829 181.761C226.993 183.443 229.876 183.764 232.588 183.694C238.553 183.539 244.662 181.643 248.975 177.415C251 175.429 257.567 167.878 254.586 156.991" fill="#00446A"/>
<path d="M252.236 169.67C252.082 168.837 251.969 164.347 251.969 164.347C251.969 164.347 255.088 163.954 255.222 160.77C255.356 157.587 255.04 150.258 255.04 150.258L249.3 147.501L243.125 152.476L244.196 168.647L252.236 169.67Z" fill="#F5D6B2"/>
<path d="M254.511 155.614C254.515 155.838 254.34 156.023 254.121 156.027C253.903 156.031 253.722 155.852 253.718 155.627C253.714 155.403 253.889 155.217 254.108 155.213C254.326 155.21 254.507 155.388 254.511 155.614Z" fill="#00446A"/>
<path d="M254.887 155.163C254.837 155.216 254.54 154.966 254.112 154.95C253.686 154.927 253.368 155.15 253.322 155.092C253.3 155.066 253.352 154.969 253.49 154.867C253.626 154.767 253.857 154.673 254.124 154.685C254.39 154.697 254.612 154.811 254.739 154.924C254.869 155.037 254.912 155.139 254.887 155.163Z" fill="#00446A"/>
<path d="M249.916 155.692C249.92 155.917 249.745 156.102 249.526 156.105C249.307 156.109 249.126 155.93 249.123 155.706C249.119 155.481 249.294 155.296 249.512 155.292C249.731 155.288 249.912 155.467 249.916 155.692Z" fill="#00446A"/>
<path d="M250.155 155.244C250.104 155.298 249.807 155.047 249.38 155.032C248.953 155.009 248.636 155.232 248.59 155.174C248.568 155.148 248.619 155.05 248.758 154.949C248.894 154.848 249.125 154.754 249.391 154.766C249.657 154.779 249.88 154.893 250.007 155.005C250.136 155.119 250.179 155.22 250.155 155.244Z" fill="#00446A"/>
<path d="M251.759 158.919C251.757 158.893 252.024 158.854 252.455 158.813C252.564 158.805 252.668 158.786 252.688 158.708C252.715 158.624 252.671 158.496 252.62 158.358C252.522 158.071 252.419 157.77 252.311 157.455C251.883 156.17 251.575 155.115 251.623 155.098C251.671 155.081 252.057 156.109 252.486 157.394C252.589 157.71 252.687 158.012 252.781 158.301C252.82 158.436 252.889 158.589 252.83 158.762C252.8 158.848 252.718 158.908 252.648 158.926C252.578 158.945 252.516 158.944 252.462 158.946C252.029 158.954 251.76 158.945 251.759 158.919Z" fill="#00446A"/>
<path d="M250.356 159.358C250.715 159.515 251.562 160.067 252.432 160.052C252.432 160.052 251.909 160.854 251.025 160.489C250.106 160.109 250.356 159.358 250.356 159.358Z" fill="#FDFDFD"/>
<path d="M251.969 164.346C251.969 164.346 249.883 164.406 247.84 162.994C247.84 162.994 248.887 165.326 251.991 165.14L251.969 164.346Z" fill="#F1C28C"/>
<path d="M255.202 154.72C255.202 154.72 256.823 151.167 253.695 147.944C250.566 144.721 248.469 145.437 247.265 145.458C246.142 145.478 240.484 146.812 238.909 153.473C238.843 153.754 238.787 154.273 238.74 154.766V154.768C238.706 155.122 238.675 155.463 238.646 155.689L238.719 155.677C238.708 158.432 239.104 166.578 244.126 167.588L243.643 154.92C243.643 154.92 248.745 154.337 249.566 149.562C249.566 149.562 253.264 154.899 255.202 154.72Z" fill="#00446A"/>
<path d="M257.546 244.319C259.288 252.739 265.674 288.053 265.674 288.053L274.521 286.478L270.38 241.892C270.282 240.717 270.044 239.557 269.67 238.438L259.467 207.849L239.508 194.907C239.318 194.917 237.16 203.526 237.58 208.993C237.769 211.437 238.645 213.778 240.03 215.8C241.251 217.581 242.951 220.065 243.33 220.639C243.937 221.556 257.546 244.319 257.546 244.319Z" fill="#F5D6B2"/>
<path d="M219.374 160.176C218.469 153.037 220.575 145.291 221.42 142.571C221.716 142.287 222.073 141.963 222.511 141.601C222.887 141.29 223.315 141.049 223.774 140.882C224.329 140.679 225.079 140.44 225.529 140.436C226.087 140.432 226.35 139.751 225.938 139.455C225.527 139.159 223.989 139.134 222.363 139.898C220.737 140.663 221.963 138.115 222.392 137.178C222.822 136.242 224.016 133.281 223.833 132.921C223.564 132.392 222.948 132.583 222.541 133.529C222.129 134.486 220.711 137.223 220.228 136.972C219.751 136.725 222.004 131.987 222.004 131.987C222.004 131.987 222.65 131.052 222.101 130.743C221.11 130.186 219.085 135.4 218.905 135.901C218.78 136.249 218.245 135.995 218.399 135.629C218.559 135.252 220.757 130.955 219.754 130.379C218.983 129.937 218.048 134.652 217.097 135.29C216.146 135.928 218.17 131.787 217.418 131.394C217.137 131.248 216.908 131.178 216.089 133.724C215.692 134.96 215.23 137.28 214.855 139.379L214.829 139.37C214.829 139.37 204.478 164.882 215.496 169.919C227.187 175.264 237.575 179.015 237.575 179.015L240.622 168.15C240.622 168.15 219.537 161.465 219.374 160.176Z" fill="#F5D6B2"/>
<path d="M237.648 179.037L239.403 195.645L238.65 199.049L257.251 199.143L260.735 181.465L261.088 179.502C262.004 174.406 258.353 169.602 253.194 169.171C253.116 169.164 253.038 169.158 252.96 169.152L236.458 166.799L237.648 179.037Z" fill="#F5D6B2"/>
<path d="M257.116 203.429L257.251 199.143L239.403 196.229L257.116 203.429Z" fill="#F5D6B2"/>
<path d="M218.298 267.745L215.512 270.229L215.866 270.663C217.46 272.578 224.104 280.289 225.606 281.163C227.282 282.138 223.326 275.355 223.326 275.355L224.469 274.278" fill="#007BC0"/>
<g opacity="0.5">
<path d="M217.791 272.574C218.255 271.967 218.482 271.184 218.414 270.423C218.346 269.662 218.022 268.95 217.458 268.434L215.613 270.149L217.791 272.574Z" fill="#FDFDFD"/>
</g>
<path opacity="0.5" d="M225.162 278.76C225.162 278.76 226.424 281.253 225.872 281.31C225.32 281.366 218.312 273.826 215.512 270.23L215.67 270.104L223.769 278.968C223.769 278.968 224.788 278.391 225.162 278.76Z" fill="#FDFDFD"/>
<path d="M215.577 269.996C215.574 269.998 215.607 270.041 215.67 270.12C215.755 270.224 215.848 270.337 215.954 270.465C216.242 270.804 216.598 271.221 217.017 271.713C217.923 272.761 219.193 274.191 220.631 275.74C222.069 277.29 223.401 278.664 224.378 279.645C224.838 280.1 225.227 280.485 225.544 280.798C225.664 280.913 225.769 281.014 225.866 281.106C225.941 281.176 225.981 281.211 225.984 281.209C225.986 281.206 225.951 281.166 225.882 281.091C225.79 280.994 225.688 280.888 225.574 280.768C225.265 280.448 224.883 280.054 224.434 279.59C223.471 278.595 222.149 277.213 220.711 275.665C219.275 274.117 217.996 272.695 217.075 271.661C216.646 271.178 216.282 270.769 215.986 270.436C215.875 270.313 215.777 270.205 215.687 270.105C215.618 270.031 215.58 269.993 215.577 269.996Z" fill="#00446A"/>
<path d="M223.665 279.06C223.684 279.087 223.988 278.84 224.446 278.752C224.902 278.656 225.278 278.767 225.286 278.734C225.301 278.71 224.913 278.543 224.424 278.644C223.934 278.741 223.641 279.045 223.665 279.06Z" fill="#00446A"/>
<path d="M222.842 276.193C222.847 276.223 223.047 276.211 223.289 276.166C223.53 276.121 223.721 276.061 223.715 276.031C223.71 276.002 223.51 276.014 223.268 276.058C223.027 276.103 222.836 276.163 222.842 276.193Z" fill="#00446A"/>
<path d="M222.628 275.396C222.625 275.426 222.791 275.465 222.999 275.484C223.207 275.503 223.378 275.494 223.381 275.464C223.384 275.434 223.217 275.394 223.009 275.375C222.802 275.357 222.631 275.366 222.628 275.396Z" fill="#00446A"/>
<path d="M222.937 274.478C222.915 274.499 223.038 274.671 223.213 274.864C223.388 275.056 223.548 275.196 223.57 275.175C223.593 275.155 223.469 274.982 223.294 274.79C223.119 274.598 222.959 274.458 222.937 274.478Z" fill="#00446A"/>
<path d="M223.268 273.954C223.242 273.965 223.322 274.203 223.514 274.442C223.705 274.682 223.92 274.814 223.936 274.79C223.955 274.765 223.78 274.602 223.599 274.374C223.417 274.147 223.297 273.941 223.268 273.954Z" fill="#00446A"/>
<path d="M223.626 275.882C223.617 275.89 223.748 276.071 224.023 276.304C224.161 276.42 224.335 276.546 224.543 276.663C224.649 276.718 224.752 276.784 224.89 276.822C224.957 276.838 225.04 276.848 225.12 276.805C225.199 276.763 225.239 276.663 225.229 276.583C225.062 275.982 224.457 275.788 224.107 275.832C223.923 275.849 223.784 275.907 223.696 275.957C223.607 276.007 223.567 276.047 223.571 276.052C223.579 276.072 223.765 275.925 224.113 275.909C224.284 275.901 224.491 275.937 224.685 276.053C224.868 276.161 225.079 276.363 225.121 276.59C225.133 276.704 225.03 276.751 224.915 276.718C224.805 276.69 224.694 276.625 224.592 276.574C224.387 276.465 224.212 276.349 224.072 276.242C223.79 276.031 223.639 275.87 223.626 275.882Z" fill="#00446A"/>
<path d="M223.708 276.011C223.709 276.021 223.875 275.984 224.047 275.787C224.131 275.689 224.21 275.552 224.25 275.383C224.275 275.22 224.315 275.003 224.138 274.828C224.034 274.741 223.877 274.798 223.82 274.88C223.753 274.957 223.72 275.049 223.697 275.128C223.65 275.29 223.63 275.441 223.627 275.567C223.621 275.821 223.669 275.972 223.681 275.969C223.698 275.967 223.678 275.814 223.704 275.572C223.717 275.452 223.744 275.309 223.793 275.158C223.829 275.017 223.953 274.827 224.071 274.915C224.18 275.012 224.176 275.218 224.151 275.362C224.121 275.515 224.057 275.643 223.987 275.739C223.844 275.932 223.697 275.995 223.708 276.011Z" fill="#00446A"/>
<path d="M217.509 268.451C217.495 268.466 217.703 268.623 217.945 268.954C218.188 269.28 218.448 269.804 218.496 270.426C218.543 271.049 218.364 271.606 218.174 271.965C217.985 272.329 217.804 272.516 217.82 272.529C217.824 272.534 217.874 272.492 217.953 272.405C218.032 272.319 218.137 272.184 218.243 272.003C218.455 271.644 218.654 271.068 218.606 270.419C218.556 269.77 218.272 269.231 218.008 268.908C217.876 268.744 217.752 268.627 217.661 268.553C217.569 268.479 217.513 268.446 217.509 268.451Z" fill="#00446A"/>
<path d="M219.207 272.807C219.184 272.823 219.513 273.319 220.007 273.86C220.5 274.402 220.964 274.776 220.982 274.753C221.003 274.729 220.576 274.323 220.088 273.786C219.598 273.251 219.233 272.788 219.207 272.807Z" fill="#00446A"/>
<path d="M218.006 271.511C217.975 271.51 217.947 271.631 217.889 271.767C217.833 271.904 217.766 272.009 217.788 272.03C217.808 272.051 217.925 271.967 217.99 271.81C218.057 271.652 218.035 271.51 218.006 271.511Z" fill="#00446A"/>
<path d="M218.16 270.459C218.13 270.458 218.101 270.564 218.095 270.697C218.089 270.829 218.109 270.938 218.14 270.939C218.17 270.941 218.199 270.834 218.205 270.701C218.21 270.568 218.19 270.46 218.16 270.459Z" fill="#00446A"/>
<path d="M217.789 269.503C217.771 269.528 217.853 269.616 217.909 269.744C217.968 269.871 217.978 269.99 218.01 269.994C218.038 270 218.08 269.857 218.009 269.699C217.938 269.541 217.803 269.477 217.789 269.503Z" fill="#00446A"/>
<path d="M217.458 268.885C217.43 268.896 217.431 268.966 217.461 269.04C217.49 269.115 217.537 269.166 217.565 269.155C217.593 269.144 217.591 269.074 217.562 269C217.533 268.925 217.485 268.873 217.458 268.885Z" fill="#00446A"/>
<path d="M239.403 195.646C239.403 195.646 235.268 207.151 237.525 213.163C239.782 219.174 246.389 229.481 246.389 229.481L267.126 220.146L257.251 202.497V199.143L239.403 195.646Z" fill="#0070AF"/>
<path d="M244.126 167.588L228.473 164.066L225.883 178.271L236.852 180.712L239.403 195.646L257.251 199.143C257.251 199.143 260.537 183.902 261.143 181.116C262.327 175.67 260.147 173.066 260.147 173.066C259.072 171.245 257.424 170.163 255.35 169.63L244.126 167.588Z" fill="#007BC0"/>
<path d="M257.949 176.738C258.008 176.745 257.659 177.548 257.975 178.825C258.121 179.458 258.43 180.171 258.849 180.932C259.257 181.697 259.778 182.52 260.12 183.497C260.816 185.455 260.6 187.403 260.178 188.66C259.97 189.297 259.725 189.783 259.533 190.103C259.337 190.421 259.209 190.581 259.192 190.571C259.138 190.542 259.611 189.856 259.967 188.597C260.323 187.355 260.494 185.479 259.825 183.601C259.5 182.667 258.994 181.848 258.594 181.067C258.184 180.29 257.882 179.537 257.759 178.872C257.629 178.209 257.661 177.65 257.746 177.284C257.829 176.915 257.933 176.731 257.949 176.738Z" fill="#00446A"/>
<path d="M264.926 216.183C264.965 216.26 260.46 218.598 254.866 221.406C249.27 224.214 244.704 226.428 244.665 226.351C244.627 226.274 249.13 223.936 254.726 221.127C260.32 218.32 264.887 216.105 264.926 216.183Z" fill="#00446A"/>
<path d="M253.979 198.655C254.011 198.649 254.122 199.15 254.001 199.956C253.886 200.754 253.479 201.863 252.603 202.77C251.724 203.674 250.628 204.117 249.835 204.256C249.032 204.402 248.529 204.307 248.533 204.275C248.533 204.222 249.03 204.235 249.787 204.04C250.537 203.852 251.554 203.402 252.378 202.552C253.201 201.701 253.62 200.671 253.784 199.915C253.955 199.153 253.926 198.656 253.979 198.655Z" fill="#00446A"/>
<path d="M233.787 208.261C233.787 208.261 230.319 207.614 227.605 212.563C225.733 215.979 224.172 220.118 223.057 223.723C222.308 226.149 223.631 228.729 226.044 229.52L228.614 230.363C231.034 231.157 233.644 229.856 234.459 227.444C236.64 220.989 239.653 209.444 233.787 208.261Z" fill="#00446A"/>
<path d="M236.255 209.27C236.294 209.288 236.006 210.015 235.509 211.178C235.244 211.784 234.945 212.468 234.62 213.213C234.459 213.586 234.206 214.065 233.708 214.255C233.228 214.438 232.726 214.412 232.227 214.307C231.979 214.246 231.716 214.14 231.529 213.923C231.337 213.709 231.281 213.403 231.321 213.153C231.404 212.643 231.673 212.272 231.862 211.907C232.26 211.198 232.625 210.548 232.95 209.971C233.577 208.873 233.984 208.205 234.022 208.225C234.06 208.246 233.722 208.952 233.144 210.076C232.838 210.662 232.491 211.324 232.115 212.043C231.926 212.415 231.68 212.791 231.625 213.192C231.598 213.389 231.638 213.578 231.764 213.72C231.885 213.862 232.086 213.952 232.301 214.004C232.738 214.098 233.219 214.117 233.594 213.971C233.977 213.831 234.188 213.464 234.359 213.092C234.707 212.358 235.026 211.684 235.309 211.086C235.857 209.948 236.216 209.252 236.255 209.27Z" fill="#0070AF"/>
<path d="M232.651 214.175C232.672 214.181 232.621 214.426 232.51 214.866C232.396 215.304 232.219 215.935 231.978 216.707C231.504 218.254 230.764 220.363 229.926 222.681C229.55 223.738 229.191 224.748 228.86 225.678L228.829 225.765L228.74 225.775C227.069 225.976 225.641 226.136 224.629 226.238C223.618 226.341 223.023 226.384 223.019 226.351C223.015 226.318 223.602 226.213 224.607 226.061C225.612 225.908 227.034 225.708 228.703 225.486L228.583 225.584C228.894 224.652 229.252 223.635 229.632 222.577C230.47 220.257 231.241 218.165 231.768 216.638C232.015 215.924 232.223 215.32 232.392 214.831C232.539 214.403 232.63 214.169 232.651 214.175Z" fill="#0070AF"/>
<path d="M228.721 225.63C228.784 225.571 229.715 226.458 230.8 227.61C231.885 228.762 232.714 229.744 232.651 229.804C232.588 229.862 231.658 228.977 230.572 227.824C229.488 226.672 228.659 225.69 228.721 225.63Z" fill="#0070AF"/>
<path d="M228.823 210.581C228.825 210.572 228.89 210.573 229.01 210.606C229.129 210.639 229.301 210.719 229.482 210.876C229.835 211.182 230.211 211.865 230.085 212.728C229.984 213.59 229.416 214.45 228.953 215.399C228.728 215.878 228.539 216.41 228.556 216.966C228.57 217.522 228.807 218.076 229.071 218.639C229.333 219.196 229.616 219.791 229.643 220.421C229.684 221.027 229.526 221.704 229.022 222.081C228.525 222.462 227.868 222.392 227.423 222.182C226.958 221.975 226.596 221.675 226.302 221.377C225.736 220.777 225.283 220.305 224.885 220.089C224.496 219.865 224.233 219.85 224.239 219.82C224.24 219.81 224.305 219.807 224.427 219.82C224.549 219.838 224.729 219.88 224.942 219.982C225.378 220.174 225.881 220.649 226.457 221.22C226.747 221.494 227.1 221.766 227.524 221.942C227.939 222.123 228.463 222.156 228.849 221.851C229.236 221.558 229.381 220.992 229.339 220.44C229.312 219.877 229.056 219.339 228.789 218.77C228.525 218.206 228.263 217.608 228.251 216.973C228.237 216.34 228.455 215.769 228.694 215.275C229.194 214.295 229.748 213.49 229.867 212.695C230.01 211.913 229.699 211.272 229.398 210.964C229.084 210.646 228.81 210.612 228.823 210.581Z" fill="#EEEFF0"/>
<path d="M235.576 223.848C235.581 223.867 235.415 223.938 235.104 224.03C234.792 224.118 234.33 224.242 233.735 224.252C233.152 224.265 232.38 224.112 231.79 223.534C231.499 223.254 231.259 222.857 231.214 222.398C231.164 221.941 231.319 221.468 231.583 221.084C232.119 220.293 232.98 219.927 233.692 219.681C234.421 219.432 235.071 219.24 235.563 218.961C236.584 218.425 236.821 217.68 236.861 217.712C236.876 217.716 236.851 217.902 236.683 218.19C236.518 218.478 236.182 218.845 235.674 219.152C235.171 219.47 234.499 219.692 233.791 219.951C233.088 220.21 232.312 220.56 231.842 221.259C231.609 221.599 231.481 221.994 231.519 222.368C231.551 222.743 231.743 223.078 231.993 223.33C232.502 223.849 233.185 224.015 233.738 224.031C234.301 224.05 234.761 223.962 235.077 223.911C235.393 223.856 235.57 223.826 235.576 223.848Z" fill="#EEEFF0"/>
<path d="M234.598 228.206C234.557 228.245 234.233 227.842 233.532 227.456C232.847 227.071 231.721 226.75 230.546 227.039C229.373 227.338 228.531 228.152 228.109 228.814C227.671 229.484 227.576 229.993 227.521 229.978C227.492 229.978 227.508 229.439 227.92 228.7C228.314 227.973 229.192 227.063 230.47 226.737C231.75 226.423 232.953 226.812 233.643 227.267C234.356 227.725 234.624 228.192 234.598 228.206Z" fill="#EEEFF0"/>
<path opacity="0.7" d="M244.414 181.605C244.563 181.868 244.414 185.271 244.414 185.271L256.807 185.937V182.375L244.414 181.605Z" fill="#FDFDFD"/>
<path d="M252.96 169.152L233.479 208.889L235.727 210.41L255.349 169.63C254.659 169.17 253.869 168.993 252.96 169.152Z" fill="#00446A"/>
<path d="M241.962 148.164C242.68 147.416 242.845 146.216 242.422 145.27C241.999 144.324 241.041 143.659 240.015 143.517C238.988 143.375 237.92 143.732 237.129 144.402C236.564 144.883 236.111 145.621 236.29 146.341C236.399 146.782 236.724 147.135 237.065 147.435C237.845 148.123 238.807 148.654 239.845 148.724C240.883 148.795 241.991 148.331 242.504 147.426" fill="#00446A"/>
<path d="M274.611 286.004L274.941 287.574C274.941 287.574 282.961 287.741 281.218 288.681C279.656 289.525 269.395 291.207 266.876 291.576L266.309 291.654L265.629 287.902L274.611 286.004Z" fill="#007BC0"/>
<g opacity="0.5">
<path d="M269.567 290.917C269.284 290.189 268.723 289.574 268.023 289.227C267.324 288.88 266.531 288.784 265.78 289L266.291 291.523L269.567 290.917Z" fill="#FDFDFD"/>
</g>
<path opacity="0.5" d="M278.886 287.789C278.886 287.789 281.731 288.017 281.486 288.529C281.241 289.039 270.935 291.13 266.309 291.654L266.282 291.45L278.324 289.114C278.324 289.114 278.365 287.918 278.886 287.789Z" fill="#FDFDFD"/>
<path d="M266.139 291.472C266.14 291.476 266.194 291.471 266.298 291.458C266.434 291.439 266.582 291.418 266.749 291.394C267.199 291.323 267.752 291.236 268.404 291.132C269.8 290.901 271.724 290.556 273.84 290.129C275.957 289.701 277.864 289.272 279.24 288.943C279.881 288.785 280.425 288.651 280.867 288.542C281.03 288.499 281.175 288.46 281.307 288.425C281.407 288.397 281.46 288.381 281.459 288.377C281.458 288.373 281.404 288.382 281.302 288.403C281.168 288.432 281.022 288.464 280.856 288.5C280.412 288.599 279.866 288.722 279.222 288.866C277.842 289.175 275.933 289.592 273.818 290.02C271.703 290.446 269.782 290.804 268.391 291.055C267.741 291.172 267.19 291.272 266.742 291.352C266.576 291.383 266.429 291.411 266.294 291.436C266.192 291.456 266.139 291.468 266.139 291.472Z" fill="#00446A"/>
<path d="M278.35 289.254C278.384 289.251 278.331 288.854 278.498 288.408C278.657 287.959 278.954 287.691 278.93 287.667C278.918 287.641 278.565 287.89 278.393 288.37C278.215 288.849 278.324 289.266 278.35 289.254Z" fill="#00446A"/>
<path d="M275.413 288.443C275.441 288.454 275.537 288.273 275.627 288.039C275.717 287.805 275.766 287.606 275.737 287.595C275.709 287.584 275.613 287.765 275.523 287.999C275.433 288.233 275.384 288.432 275.413 288.443Z" fill="#00446A"/>
<path d="M274.604 288.204C274.628 288.223 274.752 288.099 274.879 287.928C275.006 287.756 275.089 287.603 275.064 287.584C275.04 287.566 274.916 287.69 274.789 287.861C274.662 288.032 274.578 288.186 274.604 288.204Z" fill="#00446A"/>
<path d="M273.968 287.446C273.974 287.477 274.191 287.461 274.451 287.411C274.713 287.361 274.919 287.296 274.913 287.266C274.907 287.235 274.692 287.252 274.43 287.301C274.17 287.351 273.963 287.416 273.968 287.446Z" fill="#00446A"/>
<path d="M273.688 286.878C273.683 286.907 273.934 286.964 274.245 286.924C274.556 286.885 274.784 286.768 274.773 286.741C274.761 286.712 274.526 286.777 274.231 286.813C273.936 286.851 273.691 286.845 273.688 286.878Z" fill="#00446A"/>
<path d="M275.559 287.594C275.561 287.606 275.789 287.588 276.138 287.472C276.313 287.415 276.515 287.33 276.728 287.211C276.833 287.148 276.945 287.094 277.052 286.994C277.102 286.944 277.155 286.877 277.16 286.785C277.166 286.693 277.1 286.605 277.025 286.571C276.412 286.396 275.92 286.82 275.772 287.148C275.688 287.318 275.666 287.471 275.661 287.574C275.658 287.677 275.672 287.734 275.678 287.733C275.7 287.737 275.671 287.497 275.842 287.185C275.926 287.032 276.068 286.87 276.272 286.762C276.464 286.66 276.753 286.584 276.973 286.669C277.079 286.719 277.065 286.835 276.974 286.916C276.892 286.997 276.775 287.06 276.677 287.122C276.472 287.242 276.278 287.332 276.111 287.399C275.776 287.53 275.555 287.576 275.559 287.594Z" fill="#00446A"/>
<path d="M275.715 287.591C275.725 287.596 275.781 287.431 275.7 287.175C275.66 287.049 275.582 286.907 275.456 286.783C275.328 286.676 275.16 286.524 274.913 286.586C274.782 286.63 274.747 286.797 274.788 286.89C274.819 286.99 274.883 287.067 274.939 287.129C275.055 287.257 275.176 287.354 275.284 287.425C275.503 287.565 275.66 287.604 275.664 287.592C275.671 287.576 275.527 287.512 275.33 287.36C275.232 287.284 275.122 287.185 275.016 287.061C274.912 286.954 274.813 286.746 274.953 286.689C275.096 286.646 275.273 286.76 275.385 286.858C275.502 286.966 275.58 287.09 275.625 287.202C275.718 287.429 275.695 287.591 275.715 287.591Z" fill="#00446A"/>
<path d="M265.822 288.965C265.828 288.985 266.076 288.888 266.494 288.853C266.906 288.816 267.503 288.868 268.07 289.158C268.638 289.449 269.028 289.902 269.24 290.258C269.456 290.617 269.522 290.874 269.542 290.868C269.549 290.866 269.538 290.8 269.506 290.685C269.473 290.57 269.41 290.407 269.308 290.219C269.109 289.842 268.713 289.362 268.121 289.058C267.529 288.756 266.908 288.716 266.486 288.775C266.273 288.803 266.105 288.848 265.992 288.888C265.879 288.928 265.821 288.958 265.822 288.965Z" fill="#00446A"/>
<path d="M270.524 289.806C270.526 289.835 271.134 289.812 271.868 289.67C272.604 289.529 273.176 289.324 273.167 289.296C273.158 289.265 272.576 289.421 271.848 289.56C271.119 289.702 270.521 289.774 270.524 289.806Z" fill="#00446A"/>
<path d="M268.755 290.163C268.737 290.189 268.828 290.278 268.916 290.401C269.005 290.522 269.061 290.637 269.091 290.628C269.121 290.622 269.109 290.476 269.006 290.335C268.904 290.194 268.77 290.137 268.755 290.163Z" fill="#00446A"/>
<path d="M267.919 289.468C267.902 289.494 267.979 289.576 268.092 289.652C268.204 289.727 268.309 289.768 268.327 289.743C268.344 289.717 268.267 289.635 268.154 289.559C268.042 289.483 267.937 289.442 267.919 289.468Z" fill="#00446A"/>
<path d="M266.888 289.282C266.901 289.312 267.021 289.287 267.163 289.306C267.306 289.323 267.415 289.377 267.434 289.352C267.455 289.33 267.353 289.217 267.177 289.195C267.001 289.172 266.873 289.256 266.888 289.282Z" fill="#00446A"/>
<path d="M266.173 289.242C266.167 289.272 266.229 289.308 266.309 289.322C266.39 289.336 266.46 289.323 266.465 289.292C266.471 289.261 266.409 289.226 266.329 289.212C266.248 289.198 266.178 289.212 266.173 289.242Z" fill="#00446A"/>
<path d="M99.8734 288.201L100.516 283.432L91.5895 282.171L90.5756 289.139L91.1239 289.253C93.5678 289.738 103.585 291.546 105.302 291.279C107.216 290.981 99.8734 288.201 99.8734 288.201Z" fill="#007BC0"/>
<g opacity="0.3">
<path d="M93.8213 289.526C93.7997 288.762 93.4827 288.01 92.9511 287.462C92.4195 286.913 91.719 286.564 90.9561 286.518L90.6019 289.013L93.8213 289.526Z" fill="#FDFDFD"/>
</g>
<g opacity="0.3">
<path d="M103.443 289.691C103.443 289.691 105.993 290.833 105.599 291.224C105.206 291.615 95.0144 290.169 90.575 289.138L90.6175 288.94L102.491 290.729C102.491 290.729 102.92 289.639 103.443 289.691Z" fill="#FDFDFD"/>
</g>
<path d="M90.4779 288.916C90.4773 288.919 90.5294 288.933 90.6289 288.954C90.7602 288.981 90.904 289.011 91.0658 289.044C91.5039 289.125 92.0426 289.225 92.6785 289.344C94.0418 289.588 95.9296 289.899 98.0217 290.198C100.114 290.496 102.014 290.724 103.391 290.872C104.034 290.936 104.58 290.991 105.023 291.035C105.188 291.049 105.334 291.061 105.468 291.071C105.57 291.079 105.623 291.08 105.624 291.077C105.624 291.073 105.571 291.064 105.47 291.049C105.337 291.032 105.192 291.013 105.028 290.992C104.586 290.939 104.042 290.873 103.4 290.795C102.026 290.629 100.129 290.388 98.0373 290.09C95.9464 289.791 94.058 289.492 92.6917 289.268C92.054 289.163 91.5135 289.074 91.0736 289.002C90.91 288.976 90.7656 288.953 90.6331 288.933C90.5324 288.918 90.4791 288.912 90.4779 288.916Z" fill="#00446A"/>
<path d="M102.468 290.867C102.501 290.876 102.581 290.492 102.881 290.136C103.176 289.774 103.537 289.624 103.523 289.594C103.52 289.566 103.113 289.68 102.797 290.067C102.477 290.449 102.441 290.87 102.468 290.867Z" fill="#00446A"/>
<path d="M100.024 289.157C100.047 289.177 100.195 289.042 100.355 288.855C100.514 288.668 100.624 288.501 100.602 288.481C100.579 288.462 100.431 288.597 100.271 288.784C100.112 288.971 100.002 289.138 100.024 289.157Z" fill="#00446A"/>
<path d="M99.3557 288.673C99.3725 288.698 99.5265 288.623 99.7003 288.507C99.8735 288.391 100.001 288.276 99.9838 288.251C99.967 288.226 99.813 288.3 99.6392 288.417C99.466 288.533 99.339 288.648 99.3557 288.673Z" fill="#00446A"/>
<path d="M99.0183 287.765C99.0135 287.795 99.2184 287.852 99.4755 287.891C99.7326 287.93 99.9448 287.938 99.9496 287.908C99.9544 287.878 99.7494 287.822 99.4923 287.783C99.2352 287.744 99.0231 287.736 99.0183 287.765Z" fill="#00446A"/>
<path d="M98.9457 287.149C98.9319 287.174 99.1447 287.309 99.4437 287.374C99.7428 287.44 99.9927 287.407 99.9903 287.379C99.9897 287.347 99.7512 287.331 99.4671 287.267C99.183 287.206 98.9595 287.121 98.9457 287.149Z" fill="#00446A"/>
<path d="M100.437 288.422C100.435 288.434 100.651 288.492 101.012 288.5C101.191 288.503 101.406 288.491 101.641 288.452C101.759 288.428 101.88 288.414 102.011 288.357C102.073 288.327 102.144 288.283 102.178 288.199C102.214 288.116 102.182 288.013 102.124 287.957C101.616 287.595 101.023 287.826 100.78 288.08C100.647 288.209 100.576 288.343 100.538 288.436C100.502 288.531 100.495 288.587 100.502 288.589C100.521 288.599 100.572 288.368 100.832 288.136C100.961 288.023 101.145 287.921 101.367 287.888C101.578 287.857 101.869 287.881 102.045 288.032C102.126 288.112 102.075 288.214 101.966 288.26C101.862 288.307 101.735 288.327 101.623 288.352C101.396 288.396 101.187 288.416 101.011 288.422C100.659 288.434 100.44 288.404 100.437 288.422Z" fill="#00446A"/>
<path d="M100.582 288.471C100.59 288.478 100.695 288.344 100.705 288.082C100.709 287.954 100.684 287.797 100.608 287.641C100.525 287.499 100.419 287.305 100.172 287.281C100.037 287.279 99.9507 287.421 99.9579 287.52C99.9543 287.622 99.9867 287.715 100.019 287.791C100.084 287.946 100.164 288.075 100.241 288.176C100.396 288.377 100.528 288.465 100.536 288.455C100.548 288.442 100.437 288.335 100.304 288.132C100.238 288.03 100.169 287.902 100.113 287.753C100.051 287.621 100.029 287.396 100.176 287.39C100.322 287.396 100.448 287.56 100.519 287.687C100.592 287.823 100.623 287.964 100.629 288.083C100.638 288.323 100.564 288.464 100.582 288.471Z" fill="#00446A"/>
<path d="M91.0071 286.5C91.0065 286.52 91.266 286.512 91.6627 286.616C92.0558 286.718 92.5886 286.96 93.0171 287.414C93.4456 287.868 93.6571 288.413 93.7356 288.812C93.8177 289.214 93.7943 289.473 93.8147 289.473C93.8213 289.473 93.8339 289.41 93.8405 289.293C93.8477 289.176 93.8435 289.005 93.8117 288.798C93.7512 288.385 93.5426 287.812 93.0962 287.339C92.6491 286.866 92.0888 286.625 91.6801 286.542C91.4745 286.498 91.3043 286.484 91.1875 286.485C91.0712 286.484 91.0071 286.492 91.0071 286.5Z" fill="#00446A"/>
<path d="M92.4592 282.916C92.4292 282.911 92.2782 283.727 92.1218 284.738C91.9654 285.75 91.8623 286.573 91.8923 286.578C91.9222 286.582 92.0733 285.766 92.2297 284.755C92.3861 283.744 92.4892 282.921 92.4592 282.916Z" fill="#00446A"/>
<path d="M95.0684 288.815C95.0606 288.842 95.6288 289.02 96.3533 289.129C97.0778 289.239 97.6729 289.238 97.6735 289.21C97.6753 289.178 97.0874 289.13 96.3695 289.021C95.6515 288.913 95.0762 288.784 95.0684 288.815Z" fill="#00446A"/>
<path d="M93.3191 288.564C93.2939 288.583 93.349 288.694 93.3898 288.837C93.4323 288.979 93.4461 289.102 93.4773 289.105C93.5061 289.109 93.5432 288.97 93.4947 288.806C93.4473 288.641 93.3419 288.545 93.3191 288.564Z" fill="#00446A"/>
<path d="M92.7762 287.65C92.7522 287.668 92.7965 287.769 92.8756 287.876C92.9547 287.983 93.0386 288.055 93.0626 288.037C93.0866 288.019 93.0422 287.918 92.9631 287.811C92.8846 287.704 92.8007 287.632 92.7762 287.65Z" fill="#00446A"/>
<path d="M91.8862 287.141C91.888 287.172 92.0067 287.188 92.1313 287.253C92.2572 287.314 92.3405 287.401 92.3669 287.384C92.3932 287.371 92.3363 287.234 92.1805 287.156C92.0259 287.077 91.8814 287.112 91.8862 287.141Z" fill="#00446A"/>
<path d="M91.2396 286.869C91.2246 286.895 91.2695 286.948 91.3397 286.987C91.4098 287.026 91.4781 287.037 91.4931 287.011C91.5081 286.984 91.4631 286.932 91.393 286.892C91.3235 286.853 91.2546 286.843 91.2396 286.869Z" fill="#00446A"/>
<path d="M123.835 263.908L121.432 259.737L113.592 264.188L117.042 270.326L117.546 270.082C119.778 268.973 128.815 264.29 130.013 263.03C131.348 261.626 123.835 263.908 123.835 263.908Z" fill="#007BC0"/>
<g opacity="0.3">
<path d="M119.85 268.652C119.366 268.06 118.657 267.658 117.9 267.548C117.144 267.438 116.377 267.589 115.744 268.019L116.987 270.211L119.85 268.652Z" fill="#FDFDFD"/>
</g>
<g opacity="0.3">
<path d="M127.572 262.909C127.572 262.909 130.289 262.257 130.216 262.807C130.143 263.357 121.188 268.433 117.042 270.327L116.955 270.145L127.451 264.312C127.451 264.312 127.126 263.187 127.572 262.909Z" fill="#FDFDFD"/>
</g>
<path d="M116.83 270.21C116.831 270.213 116.881 270.192 116.973 270.148C117.093 270.089 117.225 270.025 117.373 269.952C117.77 269.749 118.258 269.5 118.834 269.205C120.062 268.566 121.747 267.661 123.587 266.62C125.426 265.579 127.071 264.6 128.251 263.876C128.8 263.534 129.265 263.244 129.644 263.009C129.783 262.919 129.905 262.839 130.018 262.767C130.103 262.71 130.146 262.679 130.145 262.676C130.143 262.673 130.095 262.698 130.007 262.748C129.891 262.816 129.765 262.89 129.622 262.973C129.239 263.201 128.768 263.48 128.212 263.81C127.022 264.517 125.372 265.485 123.534 266.525C121.696 267.565 120.018 268.482 118.799 269.138C118.23 269.444 117.748 269.704 117.355 269.915C117.21 269.995 117.081 270.065 116.964 270.13C116.874 270.179 116.828 270.206 116.83 270.21Z" fill="#00446A"/>
<path d="M127.518 264.435C127.549 264.423 127.378 264.069 127.399 263.604C127.411 263.138 127.605 262.798 127.575 262.783C127.556 262.763 127.304 263.101 127.289 263.601C127.269 264.1 127.497 264.455 127.518 264.435Z" fill="#00446A"/>
<path d="M124.538 264.573C124.568 264.574 124.602 264.377 124.615 264.132C124.627 263.887 124.612 263.687 124.583 263.686C124.553 263.684 124.518 263.882 124.506 264.127C124.493 264.372 124.508 264.572 124.538 264.573Z" fill="#00446A"/>
<path d="M123.713 264.598C123.742 264.607 123.818 264.455 123.885 264.257C123.951 264.059 123.982 263.891 123.953 263.881C123.925 263.871 123.848 264.024 123.781 264.222C123.715 264.42 123.684 264.588 123.713 264.598Z" fill="#00446A"/>
<path d="M122.892 264.085C122.906 264.111 123.103 264.031 123.331 263.905C123.558 263.779 123.731 263.656 123.717 263.629C123.702 263.603 123.506 263.683 123.278 263.809C123.05 263.936 122.877 264.058 122.892 264.085Z" fill="#00446A"/>
<path d="M122.458 263.641C122.463 263.67 122.713 263.647 122.99 263.516C123.268 263.385 123.445 263.207 123.426 263.185C123.406 263.161 123.207 263.294 122.943 263.417C122.68 263.541 122.451 263.61 122.458 263.641Z" fill="#00446A"/>
<path d="M124.416 263.738C124.422 263.749 124.629 263.663 124.919 263.449C125.063 263.343 125.226 263.202 125.388 263.027C125.466 262.937 125.554 262.852 125.623 262.726C125.655 262.664 125.683 262.587 125.659 262.499C125.637 262.412 125.549 262.35 125.469 262.341C124.846 262.364 124.517 262.909 124.479 263.259C124.453 263.442 124.478 263.592 124.506 263.689C124.534 263.786 124.564 263.835 124.57 263.832C124.591 263.829 124.491 263.615 124.555 263.273C124.588 263.104 124.671 262.911 124.828 262.749C124.976 262.596 125.221 262.437 125.451 262.449C125.565 262.463 125.587 262.575 125.528 262.678C125.475 262.779 125.387 262.872 125.314 262.96C125.16 263.134 125.007 263.277 124.871 263.389C124.599 263.614 124.407 263.723 124.416 263.738Z" fill="#00446A"/>
<path d="M124.561 263.689C124.571 263.691 124.573 263.52 124.421 263.306C124.345 263.202 124.23 263.093 124.074 263.016C123.922 262.955 123.72 262.866 123.509 262.997C123.401 263.078 123.419 263.243 123.486 263.318C123.545 263.401 123.628 263.454 123.699 263.495C123.845 263.578 123.988 263.632 124.11 263.665C124.356 263.729 124.514 263.718 124.514 263.706C124.516 263.688 124.363 263.672 124.133 263.591C124.019 263.55 123.886 263.492 123.751 263.408C123.621 263.341 123.465 263.176 123.579 263.082C123.698 262.998 123.898 263.051 124.032 263.107C124.173 263.172 124.283 263.264 124.36 263.354C124.515 263.538 124.542 263.695 124.561 263.689Z" fill="#00446A"/>
<path d="M115.773 267.973C115.785 267.99 115.986 267.824 116.364 267.665C116.737 267.505 117.307 267.372 117.923 267.469C118.539 267.568 119.041 267.87 119.346 268.138C119.656 268.406 119.796 268.625 119.812 268.613C119.818 268.609 119.789 268.551 119.723 268.455C119.658 268.357 119.55 268.225 119.398 268.08C119.097 267.791 118.583 267.463 117.94 267.361C117.298 267.26 116.707 267.411 116.332 267.594C116.143 267.684 116 267.778 115.907 267.85C115.815 267.922 115.769 267.968 115.773 267.973Z" fill="#00446A"/>
<path d="M114.736 264.249C114.709 264.263 115.087 265.002 115.581 265.898C116.074 266.794 116.495 267.509 116.522 267.495C116.548 267.48 116.17 266.742 115.676 265.845C115.184 264.949 114.762 264.234 114.736 264.249Z" fill="#00446A"/>
<path d="M120.404 267.327C120.414 267.354 120.973 267.148 121.613 266.792C122.254 266.438 122.725 266.073 122.708 266.05C122.69 266.024 122.196 266.346 121.56 266.697C120.926 267.049 120.391 267.299 120.404 267.327Z" fill="#00446A"/>
<path d="M118.865 268.196C118.857 268.226 118.969 268.281 119.088 268.369C119.208 268.455 119.294 268.544 119.32 268.528C119.345 268.513 119.29 268.381 119.152 268.281C119.014 268.18 118.871 268.168 118.865 268.196Z" fill="#00446A"/>
<path d="M117.877 267.804C117.869 267.833 117.966 267.886 118.093 267.922C118.221 267.958 118.331 267.964 118.34 267.935C118.348 267.906 118.251 267.853 118.123 267.817C117.996 267.781 117.885 267.775 117.877 267.804Z" fill="#00446A"/>
<path d="M116.861 267.945C116.882 267.968 116.985 267.908 117.124 267.883C117.261 267.855 117.38 267.873 117.391 267.843C117.404 267.817 117.274 267.743 117.103 267.776C116.933 267.808 116.84 267.925 116.861 267.945Z" fill="#00446A"/>
<path d="M116.184 268.124C116.188 268.154 116.256 268.168 116.335 268.157C116.415 268.145 116.475 268.111 116.471 268.082C116.467 268.052 116.399 268.037 116.32 268.049C116.24 268.06 116.179 268.094 116.184 268.124Z" fill="#00446A"/>
<path d="M93.7111 197.246C93.7111 197.246 97.1755 211.169 98.2614 210.574C104.157 207.346 110.005 201.393 112.188 199.051C112.271 198.734 112.356 198.381 112.439 197.977C112.534 197.512 112.547 197.032 112.485 196.56C112.411 195.987 112.28 195.23 112.083 194.838C111.84 194.353 112.297 193.819 112.729 194.043C113.16 194.267 113.863 195.587 113.938 197.34C114.014 199.093 115.617 196.886 116.216 196.093C116.814 195.299 118.779 192.934 119.163 192.931C119.727 192.926 119.839 193.545 119.224 194.323C118.601 195.11 116.923 197.569 117.348 197.875C117.767 198.177 120.76 194.095 120.76 194.095C120.76 194.095 121.261 193.115 121.764 193.452C122.671 194.06 119.178 198.158 118.835 198.539C118.598 198.804 119.048 199.154 119.288 198.855C119.536 198.548 122.181 194.711 123.111 195.321C123.824 195.79 120.267 198.72 120.151 199.83C120.035 200.941 122.627 197.326 123.291 197.802C123.537 197.979 123.698 198.146 121.916 200C120.959 200.996 118.918 202.657 117.192 204.011C112.469 209.285 95.0187 226.254 91.4524 217.158C87.2082 206.331 87.8573 199.338 87.8573 199.338L93.7111 197.246Z" fill="#F5D6B2"/>
<path d="M68.8689 202.243L69.9375 213.247L68.679 220.949L66.8955 225.192L90.4455 222.661L88.4949 212.782L88.6783 209.43C89.1829 211.606 89.8421 214.215 90.4635 215.948C91.7064 219.418 94.0059 220.13 94.0059 220.13C101.806 221.846 116.762 205.078 116.762 205.078L111.428 198.638L98.7786 209.503C98.7786 209.503 99.101 209.116 98.7786 208.729C98.4562 208.343 97.8761 209.503 97.8761 209.503L94.9108 198.868C94.9108 198.868 94.052 189.314 84.687 188.858H76.888C69.5695 190.37 63.9213 196.284 62.8833 203.685C62.7395 204.712 62.6514 205.808 62.631 206.978C62.4057 220.168 68.8695 223.099 68.8695 223.099L72.4682 212.276L68.8689 202.243Z" fill="#0070AF"/>
<path d="M87.8069 209.796C87.8279 209.818 88.2342 209.471 88.707 208.756C89.1793 208.049 89.6845 206.941 89.8331 205.633C89.9829 204.324 89.7396 203.131 89.4388 202.336C89.1391 201.533 88.8209 201.104 88.7957 201.12C88.7538 201.143 89.0055 201.603 89.2488 202.399C89.4939 203.191 89.6952 204.343 89.5514 205.601C89.4082 206.858 88.9533 207.935 88.5362 208.652C88.1203 209.374 87.7716 209.765 87.8069 209.796Z" fill="#00446A"/>
<path d="M90.0632 220.347C90.0494 220.369 89.6766 220.152 88.9904 219.784C88.3061 219.414 87.3005 218.905 86.015 218.379C84.7265 217.862 83.1606 217.315 81.3682 216.919C80.474 216.716 79.526 216.544 78.5348 216.426C78.0397 216.366 77.5345 216.312 77.0204 216.282C76.5086 216.237 75.9836 216.243 75.4359 216.156C74.8935 216.079 74.3338 215.83 73.9748 215.395C73.6128 214.966 73.4313 214.448 73.3102 213.953C73.0939 212.948 73.007 211.992 72.9009 211.07C72.7139 209.231 72.6516 207.564 72.6564 206.168C72.6588 204.77 72.7283 203.64 72.7912 202.863C72.823 202.474 72.8553 202.172 72.8817 201.968C72.9075 201.764 72.9261 201.657 72.9368 201.658C72.9614 201.66 72.9386 202.091 72.9123 202.869C72.8865 203.648 72.8506 204.774 72.8763 206.165C72.8997 207.556 72.9848 209.212 73.1862 211.039C73.2976 211.946 73.3959 212.923 73.6062 213.88C73.7231 214.352 73.8969 214.825 74.2097 215.192C74.5202 215.563 74.9798 215.772 75.4862 215.848C75.9902 215.929 76.5212 215.926 77.0413 215.971C77.5609 216.004 78.0715 216.06 78.5719 216.122C79.5733 216.246 80.5304 216.426 81.4317 216.639C83.2385 217.055 84.8123 217.628 86.0989 218.175C87.3832 218.732 88.3804 219.274 89.0486 219.678C89.3878 219.873 89.6371 220.046 89.8097 220.158C89.9817 220.274 90.0686 220.338 90.0632 220.347Z" fill="#00446A"/>
<path d="M72.2585 217.832C72.1788 217.818 72.3975 216.998 73.1628 216.347C73.9221 215.688 74.7653 215.595 74.7677 215.676C74.7916 215.766 74.0545 215.981 73.3659 216.584C72.6678 217.173 72.3436 217.87 72.2585 217.832Z" fill="#00446A"/>
<path d="M80.7642 168.03C82.2612 167.56 83.9122 167.432 85.3888 167.963C86.8655 168.494 88.1252 169.764 88.3757 171.313C88.4997 172.082 88.3894 172.915 88.7568 173.602C89.1481 174.333 89.9734 174.699 90.596 175.247C91.5698 176.103 92.0481 177.486 91.8108 178.761C91.6807 179.458 91.3523 180.134 91.4098 180.841C91.4686 181.561 91.9186 182.186 92.4034 182.72C92.8889 183.255 93.4348 183.754 93.7626 184.397C94.0904 185.04 94.148 185.89 93.6745 186.435C93.1472 187.043 92.2237 187.042 91.4194 187.021C88.6148 186.947 85.8137 187.219 83.0217 187.491" fill="#2F3339"/>
<path d="M84.698 188.765C84.671 187.39 84.6602 186.215 84.6602 186.215C84.6602 186.215 88.012 185.792 88.1564 182.371C88.3008 178.95 87.9605 171.072 87.9605 171.072L81.7914 168.11L76.4075 174.248L76.5974 188.896C76.6262 191.102 78.4145 192.879 80.621 192.894C82.8989 192.909 84.7423 191.042 84.698 188.765Z" fill="#F5D6B2"/>
<path d="M87.0956 176.828C87.0998 177.069 86.9123 177.268 86.6767 177.273C86.4418 177.277 86.2471 177.084 86.2429 176.843C86.2387 176.601 86.4262 176.402 86.6612 176.398C86.8973 176.393 87.0915 176.586 87.0956 176.828Z" fill="#00446A"/>
<path d="M87.7962 176.344C87.7423 176.402 87.4228 176.133 86.9632 176.115C86.5041 176.091 86.1632 176.33 86.1146 176.268C86.0906 176.24 86.1464 176.135 86.295 176.026C86.4412 175.919 86.6893 175.817 86.9758 175.831C87.2622 175.844 87.5008 175.966 87.6374 176.087C87.7764 176.209 87.8226 176.319 87.7962 176.344Z" fill="#00446A"/>
<path d="M82.1018 176.828C82.1059 177.069 81.9184 177.268 81.6829 177.273C81.4479 177.277 81.2538 177.084 81.249 176.843C81.2448 176.601 81.4324 176.402 81.6673 176.398C81.9028 176.393 82.097 176.586 82.1018 176.828Z" fill="#00446A"/>
<path d="M82.7094 176.432C82.6555 176.49 82.3355 176.22 81.8765 176.203C81.4174 176.179 81.0764 176.418 81.0279 176.356C81.0039 176.328 81.059 176.223 81.2082 176.114C81.3545 176.006 81.6026 175.905 81.8884 175.918C82.1749 175.932 82.4134 176.054 82.55 176.175C82.6897 176.297 82.7358 176.407 82.7094 176.432Z" fill="#00446A"/>
<path d="M84.4342 180.381C84.4324 180.353 84.7189 180.311 85.1827 180.267C85.3002 180.258 85.4117 180.238 85.4326 180.153C85.462 180.064 85.4147 179.926 85.3601 179.778C85.2546 179.469 85.1444 179.146 85.0281 178.808C84.5679 177.426 84.2365 176.293 84.288 176.274C84.3395 176.256 84.7548 177.361 85.2151 178.742C85.326 179.082 85.4314 179.407 85.5321 179.717C85.5741 179.862 85.6484 180.026 85.5855 180.213C85.5525 180.306 85.465 180.37 85.3895 180.388C85.314 180.41 85.2481 180.409 85.1899 180.41C84.7243 180.418 84.4354 180.409 84.4342 180.381Z" fill="#00446A"/>
<path d="M84.6601 186.214C84.6601 186.214 82.4182 186.278 80.2218 184.761C80.2218 184.761 81.2651 187.253 84.602 187.054L84.6601 186.214Z" fill="#F1C28C"/>
<path d="M68.4513 184.791C68.7857 184.471 69.1806 184.188 69.376 183.769C69.6942 183.085 69.3844 182.282 69.032 181.615C68.6802 180.948 68.2697 180.232 68.3992 179.488C68.6257 178.184 70.3193 177.646 70.8089 176.415C71.2476 175.313 70.5968 173.951 71.1823 172.919C71.6569 172.082 72.753 171.814 73.378 171.082C73.8617 170.516 74.0055 169.744 74.3243 169.071C74.8942 167.87 76.082 166.981 77.3962 166.776C78.6613 166.577 80.0043 167.022 80.9146 167.92C82.7556 167.394 84.8171 167.788 86.4724 168.779C87.1987 169.213 87.8831 169.783 88.2307 170.555C88.5411 171.245 88.5549 172.026 88.5627 172.782C88.5687 173.323 88.574 173.865 88.58 174.406C88.5818 174.544 88.5807 174.691 88.5045 174.806C88.3829 174.991 88.1276 175.017 87.9071 175.026C87.0717 175.057 86.2369 175.089 85.4014 175.12C85.2301 175.126 85.0485 175.13 84.9011 175.042C84.6428 174.889 84.4839 174.549 84.5067 174.249C84.5253 174.01 84.5145 173.529 84.5199 173.392C84.4072 173.928 84.3036 174.029 84.2233 174.364C84.1412 174.706 83.9907 175.065 83.6815 175.234C83.4652 175.352 83.2075 175.356 82.9612 175.355C82.5998 175.353 82.239 175.344 81.8783 175.329C81.6997 175.321 81.5085 175.308 81.3665 175.198C81.1375 175.021 81.1351 174.68 81.1777 174.394C81.2208 174.108 81.3401 173.81 81.3473 173.274C81.0231 173.911 80.8685 174.705 80.4688 174.811C80.0343 174.927 79.3828 174.761 79.2606 174.723C78.8567 174.597 78.5714 174.495 78.279 174.402C78.3047 174.568 78.3431 174.733 78.4024 174.894C78.7062 175.715 79.3888 176.505 79.1545 177.349C78.9418 178.115 78.0722 178.488 77.6323 179.15C77.1529 179.871 77.2518 180.837 77.5365 181.655C77.8217 182.473 78.2724 183.235 78.4635 184.08C78.6553 184.925 78.5181 185.931 77.8271 186.455C77.2961 186.856 76.5794 186.879 75.9142 186.885C73.8868 186.903 71.86 186.922 69.8327 186.941C69.4401 186.944 69.0374 186.946 68.6677 186.814C68.2979 186.682 67.9605 186.387 67.8934 186C67.8137 185.544 68.1163 185.111 68.4513 184.791Z" fill="#2F3339"/>
<path d="M91.0587 182.939C91.0515 182.943 91 182.877 90.9353 182.732C90.87 182.588 90.7999 182.358 90.7909 182.053C90.7519 181.442 91.0372 180.574 91.5777 179.665C91.8294 179.202 92.1195 178.7 92.2723 178.12C92.4347 177.545 92.379 176.883 92.0733 176.289C91.9193 175.996 91.7119 175.719 91.4471 175.498C91.1882 175.268 90.8652 175.123 90.5146 174.977C90.1688 174.828 89.7829 174.686 89.4599 174.39C89.1249 174.1 88.9696 173.632 88.9595 173.214C88.9361 172.79 88.9948 172.392 88.9702 172.018C88.954 171.641 88.8809 171.273 88.7605 170.926C88.5118 170.236 88.1055 169.629 87.6159 169.158C86.6414 168.191 85.4027 167.793 84.3779 167.681C83.3412 167.564 82.489 167.697 81.9155 167.808C81.3395 167.926 81.0273 168.026 81.0195 168.002C81.0159 167.992 81.0903 167.956 81.2359 167.899C81.3815 167.842 81.6002 167.766 81.8885 167.69C82.462 167.542 83.3256 167.37 84.4001 167.462C85.4584 167.547 86.7733 167.94 87.8166 168.952C88.3392 169.444 88.7779 170.084 89.0493 170.825C89.1806 171.197 89.2615 171.595 89.2807 172.004C89.3064 172.415 89.2489 172.814 89.2711 173.196C89.2855 173.581 89.4053 173.926 89.6708 174.163C89.9297 174.404 90.2863 174.545 90.6338 174.695C90.9814 174.842 91.3518 175.01 91.6412 175.272C91.9367 175.523 92.1638 175.833 92.3304 176.159C92.6624 176.815 92.711 177.568 92.5228 178.187C92.3454 178.811 92.0338 179.317 91.7701 179.773C91.2092 180.665 90.9149 181.468 90.9125 182.052C90.8981 182.635 91.0941 182.927 91.0587 182.939Z" fill="#2F3339"/>
<path d="M67.3714 178.546C67.3888 178.519 67.58 178.707 68.0151 178.801C68.4292 178.893 69.1573 178.846 69.7074 178.287C70.2546 177.738 70.5033 176.713 70.1221 175.731C69.9687 175.241 69.6954 174.634 69.9304 173.986C70.1737 173.355 70.7694 172.988 71.3333 172.721C71.902 172.456 72.4689 172.236 72.8309 171.826C73.1964 171.422 73.3229 170.869 73.426 170.349C73.5285 169.825 73.61 169.299 73.8305 168.841C74.042 168.381 74.3717 168.032 74.7055 167.775C75.385 167.257 76.0976 167.14 76.5572 167.147C76.791 167.151 76.9701 167.183 77.0876 167.214C77.2057 167.247 77.265 167.27 77.2626 167.28C77.2566 167.31 77.0079 167.244 76.5608 167.269C76.1221 167.298 75.457 167.445 74.8421 167.949C74.5401 168.198 74.247 168.529 74.066 168.949C73.8754 169.366 73.8041 169.869 73.7088 170.403C73.6105 170.929 73.4889 171.542 73.0592 172.03C72.6295 172.516 72.0159 172.743 71.4657 173.003C70.9234 173.256 70.4038 173.6 70.2156 174.094C70.0226 174.588 70.236 175.132 70.3948 175.645C70.7897 176.702 70.4979 177.857 69.8614 178.444C69.2142 179.053 68.4196 179.053 67.9839 178.919C67.7562 178.852 67.5973 178.755 67.5003 178.68C67.4068 178.602 67.3654 178.553 67.3714 178.546Z" fill="#2F3339"/>
<path d="M84.2688 181.587C84.216 181.298 84.0087 181.042 83.7366 180.93C83.5478 180.853 83.3249 180.846 83.1445 180.941C82.9641 181.036 82.8407 181.244 82.8712 181.445C82.906 181.672 83.1211 181.837 83.3459 181.885C83.5706 181.933 83.8031 181.888 84.0273 181.839C84.089 181.826 84.1531 181.811 84.2046 181.774C84.2562 181.737 84.2933 181.673 84.2789 181.611" fill="#F1C28C"/>
<path d="M83.1308 180.363C83.2159 180.364 83.2195 180.89 83.6324 181.277C84.0429 181.667 84.5679 181.639 84.5745 181.724C84.5817 181.763 84.4552 181.834 84.2281 181.835C84.0052 181.837 83.6798 181.75 83.4185 181.503C83.1578 181.257 83.0511 180.937 83.0409 180.714C83.0284 180.488 83.0913 180.358 83.1308 180.363Z" fill="#00446A"/>
<path d="M67.2622 224.881C67.2622 224.881 102.125 217.578 105.501 219.177C108.876 220.776 124.161 261.684 124.161 261.684L113.196 268.263L98.4214 231.95C98.4214 231.95 74.0132 240.866 69.7493 239.98C65.486 239.094 67.2622 224.881 67.2622 224.881Z" fill="#00446A"/>
<path d="M82.8442 226.932C83.377 227.11 103.544 235.399 104.966 238.064C106.387 240.729 102.763 286.764 102.763 286.764C102.23 286.716 90.1315 285.708 90.1315 285.708L92.1355 245.651L69.7499 239.979L82.8442 226.932Z" fill="#00446A"/>
<path d="M69.633 240.069C69.6348 240.078 69.7396 240.067 69.9374 240.037C70.1639 239.999 70.4492 239.951 70.7998 239.891C71.583 239.747 72.6545 239.55 73.9622 239.309C76.629 238.801 80.3158 238.092 84.3388 237.083C86.3494 236.572 88.2479 236.02 89.9589 235.466C91.6662 234.902 93.186 234.341 94.4409 233.818C95.6964 233.297 96.7002 232.845 97.3774 232.5C97.6944 232.339 97.9527 232.209 98.1577 232.104C98.3345 232.011 98.4255 231.958 98.4213 231.95C98.4171 231.941 98.3183 231.978 98.1337 232.055C97.9227 232.146 97.6579 232.262 97.3324 232.403C96.6427 232.718 95.6299 233.142 94.369 233.639C93.1087 234.138 91.5871 234.678 89.8815 235.227C88.1724 235.766 86.2775 236.309 84.2717 236.818C80.2583 237.825 76.5811 238.563 73.9244 239.119C72.6234 239.395 71.5579 239.621 70.7788 239.786C70.4324 239.866 70.1501 239.931 69.926 239.982C69.7318 240.03 69.6312 240.06 69.633 240.069Z" fill="#0070AF"/>
<path d="M104.961 248.229C104.979 248.231 105.017 247.995 105.069 247.567C105.12 247.084 105.185 246.476 105.262 245.752C105.335 244.966 105.42 244.057 105.513 243.058C105.595 242.049 105.739 240.911 105.519 239.72C105.305 238.52 104.605 237.525 103.843 236.835C103.077 236.131 102.248 235.684 101.547 235.359C100.842 235.036 100.251 234.83 99.8435 234.69C99.4348 234.552 99.2053 234.486 99.1987 234.504C99.1789 234.552 100.084 234.869 101.464 235.533C102.145 235.876 102.943 236.331 103.672 237.018C104.4 237.697 105.049 238.636 105.251 239.771C105.463 240.903 105.334 242.025 105.263 243.038C105.192 244.038 105.126 244.949 105.07 245.736C105.027 246.462 104.991 247.072 104.963 247.558C104.943 247.989 104.942 248.228 104.961 248.229Z" fill="#0070AF"/>
<path d="M94.8988 244.428C94.8683 244.359 94.236 244.57 93.4863 244.901C92.7366 245.231 92.1535 245.554 92.1835 245.623C92.214 245.692 92.8463 245.48 93.596 245.15C94.3457 244.82 94.9294 244.497 94.8988 244.428Z" fill="#0070AF"/>
<path d="M93.8872 243.219C93.8141 243.187 93.4947 243.822 92.9703 244.511C92.4513 245.203 91.9282 245.684 91.9779 245.746C92.0186 245.804 92.6431 245.399 93.1879 244.675C93.7362 243.953 93.9543 243.242 93.8872 243.219Z" fill="#0070AF"/>
<path d="M32.094 289.253L31.7524 284.452L40.741 283.754L41.3151 290.773L40.7608 290.852C38.2911 291.182 28.1806 292.356 26.4835 291.983C24.5903 291.565 32.094 289.253 32.094 289.253Z" fill="#007BC0"/>
<g opacity="0.3">
<path d="M38.0503 290.955C38.1198 290.194 38.4836 289.464 39.0487 288.95C39.6138 288.436 40.3348 288.132 41.0988 288.134L41.2954 290.646L38.0503 290.955Z" fill="#FDFDFD"/>
</g>
<g opacity="0.3">
<path d="M28.4376 290.516C28.4376 290.516 25.8206 291.496 26.1891 291.91C26.5571 292.325 36.8192 291.523 41.3145 290.773L41.2845 290.573L29.3222 291.611C29.3222 291.611 28.9626 290.497 28.4376 290.516Z" fill="#FDFDFD"/>
</g>
<path d="M41.4254 290.557C41.426 290.561 41.3732 290.571 41.2719 290.586C41.1395 290.605 40.9939 290.625 40.8303 290.648C40.388 290.702 39.8438 290.768 39.202 290.846C37.8261 291.004 35.9221 291.196 33.8156 291.363C31.7086 291.529 29.7981 291.638 28.4143 291.698C27.7683 291.721 27.2205 291.741 26.7753 291.758C26.6099 291.761 26.463 291.764 26.3294 291.766C26.2275 291.767 26.1736 291.765 26.1736 291.762C26.1736 291.758 26.2269 291.752 26.3282 291.744C26.4618 291.735 26.6081 291.726 26.7729 291.716C27.2175 291.69 27.7641 291.658 28.4095 291.621C29.7915 291.541 31.7002 291.42 33.8061 291.254C35.9113 291.088 37.8153 290.908 39.1924 290.77C39.8355 290.705 40.3802 290.651 40.8237 290.606C40.9885 290.591 41.1347 290.578 41.2677 290.566C41.3714 290.556 41.4248 290.553 41.4254 290.557Z" fill="#00446A"/>
<path d="M29.3359 291.751C29.3029 291.757 29.2472 291.37 28.9697 290.995C28.6989 290.616 28.3471 290.443 28.3639 290.413C28.3681 290.386 28.7666 290.525 29.0578 290.931C29.3545 291.333 29.3635 291.755 29.3359 291.751Z" fill="#00446A"/>
<path d="M31.8829 290.198C31.8589 290.216 31.7199 290.072 31.5724 289.876C31.425 289.679 31.3255 289.505 31.3495 289.487C31.3735 289.469 31.5125 289.614 31.6599 289.81C31.8074 290.006 31.9068 290.18 31.8829 290.198Z" fill="#00446A"/>
<path d="M32.5804 289.756C32.5619 289.78 32.4126 289.697 32.2472 289.57C32.0812 289.443 31.962 289.321 31.9805 289.297C31.9991 289.273 32.1483 289.356 32.3137 289.483C32.4791 289.61 32.599 289.733 32.5804 289.756Z" fill="#00446A"/>
<path d="M32.9743 288.872C32.9773 288.902 32.7693 288.945 32.5098 288.968C32.2509 288.992 32.0388 288.986 32.0358 288.956C32.0328 288.926 32.2407 288.883 32.5002 288.859C32.7591 288.836 32.9719 288.842 32.9743 288.872Z" fill="#00446A"/>
<path d="M33.0857 288.261C33.0977 288.287 32.8772 288.409 32.5745 288.454C32.2719 288.501 32.025 288.453 32.0286 288.424C32.031 288.393 32.2701 288.392 32.5578 288.346C32.8454 288.303 33.0738 288.232 33.0857 288.261Z" fill="#00446A"/>
<path d="M31.5168 289.437C31.5186 289.449 31.2986 289.494 30.9391 289.479C30.7593 289.471 30.5459 289.446 30.3134 289.391C30.1978 289.36 30.0779 289.339 29.9502 289.274C29.8903 289.24 29.8226 289.192 29.7932 289.105C29.7627 289.021 29.8016 288.919 29.8628 288.867C30.3925 288.538 30.9696 288.806 31.1968 289.075C31.3208 289.211 31.3837 289.349 31.4155 289.445C31.4461 289.542 31.4491 289.598 31.4425 289.6C31.4227 289.609 31.3855 289.376 31.141 289.127C31.0206 289.006 30.8432 288.893 30.6227 288.845C30.4141 288.801 30.1222 288.807 29.9377 288.946C29.8514 289.021 29.8951 289.126 30.0024 289.179C30.1025 289.233 30.2283 289.26 30.338 289.292C30.5621 289.35 30.7695 289.383 30.9451 289.401C31.295 289.436 31.5156 289.42 31.5168 289.437Z" fill="#00446A"/>
<path d="M31.3694 289.478C31.3616 289.485 31.2651 289.344 31.2717 289.082C31.2759 288.954 31.3106 288.799 31.3963 288.648C31.488 288.512 31.6055 288.325 31.8542 288.316C31.9896 288.323 32.0669 288.47 32.0532 288.569C32.0508 288.671 32.0118 288.761 31.9752 288.834C31.9009 288.985 31.8128 289.109 31.7295 289.205C31.5623 289.396 31.4245 289.476 31.4173 289.465C31.4059 289.452 31.5246 289.352 31.669 289.157C31.7409 289.059 31.8182 288.936 31.8836 288.791C31.9531 288.663 31.9902 288.439 31.8434 288.424C31.6978 288.422 31.5611 288.577 31.482 288.699C31.4011 288.831 31.361 288.97 31.3478 289.088C31.3226 289.327 31.388 289.473 31.3694 289.478Z" fill="#00446A"/>
<path d="M41.0495 288.112C41.0489 288.133 40.79 288.108 40.3879 288.188C39.9894 288.264 39.4422 288.473 38.9856 288.898C38.5295 289.324 38.2838 289.855 38.1802 290.248C38.0729 290.644 38.0801 290.904 38.0597 290.903C38.0531 290.903 38.0447 290.839 38.0453 290.722C38.0453 290.605 38.0603 290.435 38.1052 290.229C38.1921 289.821 38.4355 289.263 38.9107 288.818C39.3865 288.375 39.9606 288.17 40.3735 288.112C40.5815 288.08 40.7523 288.077 40.8691 288.086C40.9866 288.093 41.0501 288.106 41.0495 288.112Z" fill="#00446A"/>
<path d="M39.8258 284.445C39.8558 284.442 39.9552 285.266 40.0481 286.284C40.141 287.304 40.1913 288.132 40.1614 288.134C40.1314 288.137 40.0319 287.313 39.939 286.294C39.8462 285.276 39.7958 284.448 39.8258 284.445Z" fill="#00446A"/>
<path d="M36.8503 290.167C36.8563 290.196 36.278 290.337 35.5487 290.4C34.8188 290.465 34.2249 290.426 34.2261 290.397C34.2267 290.366 34.8164 290.356 35.5391 290.291C36.2618 290.229 36.8443 290.136 36.8503 290.167Z" fill="#00446A"/>
<path d="M38.6123 290.027C38.6363 290.047 38.574 290.155 38.5248 290.294C38.4733 290.433 38.4517 290.556 38.4206 290.556C38.3918 290.558 38.363 290.418 38.4218 290.257C38.4793 290.097 38.5908 290.007 38.6123 290.027Z" fill="#00446A"/>
<path d="M39.2115 289.149C39.2349 289.169 39.184 289.267 39.0983 289.368C39.0126 289.47 38.9245 289.537 38.9017 289.517C38.8789 289.498 38.9293 289.399 39.015 289.298C39.1001 289.196 39.1882 289.13 39.2115 289.149Z" fill="#00446A"/>
<path d="M40.1315 288.698C40.1273 288.729 40.008 288.736 39.8798 288.793C39.7503 288.847 39.6616 288.928 39.6365 288.91C39.6113 288.895 39.6766 288.761 39.8366 288.693C39.9966 288.624 40.1387 288.669 40.1315 288.698Z" fill="#00446A"/>
<path d="M40.7942 288.466C40.8074 288.493 40.7595 288.544 40.6869 288.578C40.6144 288.613 40.5455 288.619 40.5323 288.592C40.5191 288.565 40.5671 288.515 40.6396 288.48C40.7115 288.445 40.781 288.439 40.7942 288.466Z" fill="#00446A"/>
<path d="M12.1288 289.255L12.2498 284.443L21.2636 284.613L21.1606 291.654L20.6008 291.679C18.1108 291.77 7.93438 291.967 6.28095 291.432C4.43756 290.836 12.1288 289.255 12.1288 289.255Z" fill="#007BC0"/>
<g opacity="0.3">
<path d="M17.8939 291.522C18.0366 290.771 18.4686 290.08 19.0805 289.622C19.6924 289.164 20.4397 288.931 21.1996 289.006L21.154 291.526L17.8939 291.522Z" fill="#FDFDFD"/>
</g>
<g opacity="0.3">
<path d="M8.36827 290.161C8.36827 290.161 5.6697 290.885 5.99571 291.333C6.32232 291.781 16.6138 291.969 21.1606 291.654L21.1498 291.453L9.14315 291.336C9.14315 291.336 8.89265 290.193 8.36827 290.161Z" fill="#FDFDFD"/>
</g>
<path d="M21.2918 291.45C21.2918 291.453 21.2385 291.458 21.1366 291.463C21.003 291.469 20.8562 291.475 20.6914 291.482C20.2461 291.493 19.6978 291.507 19.0517 291.523C17.6674 291.547 15.7539 291.556 13.6408 291.519C11.5271 291.482 9.61541 291.407 8.23226 291.333C7.58683 291.294 7.04028 291.262 6.59501 291.235C6.43021 291.223 6.28399 291.211 6.15035 291.201C6.04907 291.192 5.99573 291.185 5.99573 291.182C5.99573 291.178 6.04967 291.177 6.15155 291.179C6.28519 291.183 6.432 291.187 6.59741 291.193C7.04267 291.21 7.58983 291.231 8.23585 291.256C9.619 291.309 11.5307 291.372 13.6432 291.409C15.7551 291.445 17.6668 291.449 19.0511 291.444C19.6977 291.442 20.2449 291.44 20.6908 291.438C20.8562 291.439 21.003 291.439 21.1366 291.44C21.2379 291.444 21.2918 291.446 21.2918 291.45Z" fill="#00446A"/>
<path d="M9.14375 291.477C9.11019 291.48 9.09161 291.088 8.8519 290.689C8.61878 290.285 8.28557 290.079 8.30475 290.051C8.31194 290.025 8.69489 290.201 8.94599 290.633C9.20188 291.062 9.17072 291.483 9.14375 291.477Z" fill="#00446A"/>
<path d="M11.8279 290.176C11.8022 290.191 11.6775 290.034 11.5499 289.824C11.4222 289.615 11.3395 289.433 11.3653 289.416C11.3911 289.401 11.5157 289.558 11.6434 289.768C11.771 289.977 11.8537 290.16 11.8279 290.176Z" fill="#00446A"/>
<path d="M12.565 289.803C12.5441 289.825 12.4038 289.727 12.251 289.585C12.0982 289.443 11.9909 289.31 12.0119 289.288C12.0323 289.265 12.1731 289.363 12.3259 289.505C12.4781 289.648 12.5854 289.781 12.565 289.803Z" fill="#00446A"/>
<path d="M13.0414 288.961C13.0414 288.991 12.8299 289.014 12.5698 289.012C12.3097 289.011 12.0988 288.985 12.0994 288.954C12.0994 288.924 12.3109 288.901 12.571 288.903C12.8311 288.904 13.042 288.93 13.0414 288.961Z" fill="#00446A"/>
<path d="M13.2111 288.363C13.2207 288.39 12.9894 288.49 12.6837 288.507C12.3775 288.525 12.1366 288.453 12.1432 288.424C12.1486 288.393 12.3871 288.415 12.6778 288.397C12.9678 288.382 13.2021 288.333 13.2111 288.363Z" fill="#00446A"/>
<path d="M11.5366 289.384C11.5372 289.396 11.3143 289.419 10.9577 289.369C10.7797 289.345 10.5694 289.299 10.3435 289.222C10.2314 289.179 10.1139 289.148 9.99288 289.07C9.93655 289.031 9.87363 288.976 9.85265 288.888C9.83048 288.8 9.87842 288.704 9.94494 288.658C10.5041 288.381 11.0524 288.702 11.2526 288.992C11.3628 289.14 11.412 289.283 11.4348 289.382C11.4563 289.482 11.4533 289.538 11.4467 289.539C11.4264 289.546 11.412 289.31 11.192 289.04C11.0836 288.907 10.9182 288.777 10.703 288.709C10.4999 288.645 10.2086 288.623 10.0121 288.743C9.91858 288.81 9.95273 288.918 10.054 288.981C10.1481 289.044 10.271 289.084 10.377 289.126C10.5952 289.206 10.7977 289.259 10.9709 289.292C11.3161 289.361 11.5366 289.366 11.5366 289.384Z" fill="#00446A"/>
<path d="M11.3856 289.41C11.3773 289.416 11.2946 289.266 11.3263 289.006C11.3425 288.879 11.3922 288.728 11.4923 288.586C11.5966 288.46 11.7314 288.285 11.9801 288.3C12.1144 288.32 12.1767 288.474 12.1539 288.571C12.1413 288.672 12.0946 288.758 12.0509 288.828C11.9622 288.971 11.8627 289.086 11.771 289.173C11.5858 289.347 11.4414 289.413 11.4354 289.402C11.4258 289.387 11.5528 289.3 11.7159 289.12C11.7968 289.029 11.8855 288.915 11.9646 288.776C12.0461 288.655 12.1048 288.436 11.9598 288.407C11.8147 288.39 11.6643 288.532 11.5738 288.646C11.4803 288.77 11.4276 288.904 11.403 289.019C11.3539 289.254 11.4054 289.405 11.3856 289.41Z" fill="#00446A"/>
<path d="M21.1527 288.98C21.1503 289.001 20.895 288.951 20.4869 288.992C20.0824 289.029 19.5185 289.185 19.0229 289.564C18.5279 289.945 18.2324 290.45 18.0916 290.83C17.9472 291.214 17.9292 291.473 17.9088 291.471C17.9022 291.47 17.9004 291.406 17.9118 291.289C17.9232 291.173 17.9544 291.005 18.0191 290.805C18.1443 290.407 18.441 289.874 18.957 289.478C19.4735 289.082 20.0644 288.934 20.4809 288.915C20.6913 288.904 20.8609 288.918 20.9765 288.937C21.0916 288.955 21.1539 288.974 21.1527 288.98Z" fill="#00446A"/>
<path d="M20.2868 285.212C20.3168 285.212 20.3365 286.042 20.3312 287.065C20.3258 288.089 20.2964 288.918 20.2664 288.918C20.2365 288.918 20.2167 288.088 20.2221 287.065C20.2275 286.041 20.2568 285.212 20.2868 285.212Z" fill="#00446A"/>
<path d="M16.7756 290.623C16.7792 290.651 16.1901 290.736 15.4571 290.729C14.7242 290.724 14.1369 290.628 14.1405 290.6C14.1441 290.568 14.732 290.615 15.4577 290.62C16.1841 290.627 16.7726 290.591 16.7756 290.623Z" fill="#00446A"/>
<path d="M18.5423 290.653C18.5638 290.675 18.4919 290.777 18.429 290.91C18.3643 291.043 18.3313 291.163 18.3001 291.161C18.2708 291.16 18.2564 291.018 18.3301 290.863C18.4032 290.709 18.5231 290.63 18.5423 290.653Z" fill="#00446A"/>
<path d="M19.2231 289.836C19.244 289.857 19.1841 289.95 19.0894 290.043C18.9947 290.136 18.9006 290.194 18.8791 290.172C18.8581 290.15 18.918 290.058 19.0127 289.965C19.108 289.872 19.2021 289.814 19.2231 289.836Z" fill="#00446A"/>
<path d="M20.1826 289.475C20.176 289.506 20.0562 289.502 19.9225 289.546C19.7883 289.587 19.6924 289.659 19.669 289.639C19.6451 289.622 19.7236 289.495 19.889 289.443C20.055 289.389 20.1922 289.447 20.1826 289.475Z" fill="#00446A"/>
<path d="M20.8639 289.309C20.8741 289.337 20.822 289.382 20.7464 289.41C20.6709 289.437 20.6014 289.437 20.5912 289.409C20.581 289.381 20.6332 289.335 20.7087 289.307C20.7842 289.28 20.8537 289.28 20.8639 289.309Z" fill="#00446A"/>
<path d="M19.6024 229.012C32.9401 227.703 43.4821 228.713 43.4821 228.713L33.3883 243.202L24.2822 243.238L22.3747 287.768H10.2955L11.4474 238.1C11.5546 233.476 15.0155 229.618 19.6024 229.012Z" fill="#00446A"/>
<path d="M22.7744 284.337C22.7744 284.424 19.9716 284.493 16.5155 284.493C13.0576 284.493 10.256 284.423 10.256 284.337C10.256 284.251 13.0582 284.182 16.5155 284.182C19.9716 284.182 22.7744 284.251 22.7744 284.337Z" fill="#0070AF"/>
<path d="M27.5597 234.26C27.5579 234.272 27.3554 234.253 26.97 234.223C26.5847 234.19 26.016 234.148 25.2824 234.12C24.5501 234.096 23.6506 234.081 22.6156 234.17C22.099 234.214 21.5477 234.29 20.9844 234.441C20.433 234.592 19.8128 234.806 19.4214 235.288C19.2315 235.521 19.1122 235.834 19.0109 236.158C18.9078 236.481 18.8198 236.819 18.7401 237.166C18.5836 237.862 18.4476 238.59 18.3931 239.356C18.2546 240.895 18.1252 242.541 18.0041 244.273C17.7656 247.739 17.5918 251.555 17.4498 255.563C17.1813 263.584 16.8691 270.844 16.6509 276.097C16.5323 278.704 16.4358 280.822 16.3681 282.318C16.3291 283.032 16.298 283.596 16.2752 284.008C16.262 284.186 16.2518 284.33 16.2434 284.447C16.2344 284.546 16.2273 284.597 16.2219 284.597C16.2165 284.597 16.2129 284.545 16.2117 284.446C16.2117 284.329 16.2123 284.184 16.2129 284.006C16.2213 283.593 16.2326 283.028 16.247 282.313C16.2914 280.816 16.3537 278.697 16.431 276.088C16.6126 270.81 16.8625 263.561 17.1388 255.552C17.2808 251.542 17.4636 247.722 17.7183 244.253C17.8471 242.519 17.9862 240.872 18.1366 239.332C18.1977 238.556 18.3421 237.812 18.5063 237.111C18.5902 236.76 18.6831 236.417 18.7922 236.086C18.9007 235.756 19.0217 235.43 19.2512 235.149C19.7121 234.604 20.3647 234.402 20.9346 234.25C21.5177 234.102 22.0787 234.033 22.6024 233.997C23.6512 233.923 24.5543 233.957 25.2896 234C26.0249 234.046 26.5937 234.109 26.9778 234.161C27.1702 234.186 27.3158 234.209 27.4141 234.227C27.5106 234.243 27.5603 234.254 27.5597 234.26Z" fill="#0070AF"/>
<path d="M41.7759 244.345L42.6491 287.108L28.6732 287.79C28.6732 287.79 26.4511 245.899 27.5603 234.009C28.3196 225.871 59.3685 229.37 59.3685 229.37C59.8186 245.57 41.7759 244.345 41.7759 244.345Z" fill="#00446A"/>
<path d="M42.6485 283.733C42.6515 283.776 41.8904 283.854 40.6571 283.944C39.4237 284.035 37.7188 284.138 35.8346 284.233C33.9499 284.329 32.2425 284.397 31.0062 284.432C29.7699 284.466 29.004 284.465 29.0016 284.422C28.9992 284.379 29.7609 284.302 30.9936 284.211C32.2263 284.121 33.9313 284.017 35.8154 283.922C37.699 283.827 39.4058 283.758 40.6421 283.724C41.8796 283.69 42.6455 283.691 42.6485 283.733Z" fill="#0070AF"/>
<path d="M56.3559 229.06C56.3607 229.06 56.3643 229.123 56.3517 229.245C56.3379 229.367 56.3289 229.55 56.2881 229.786C56.2048 230.256 56.0215 230.954 55.56 231.747C55.0962 232.529 54.3225 233.403 53.1635 234.016C52.5846 234.316 51.9146 234.547 51.1798 234.649C50.4385 234.749 49.6673 234.706 48.8582 234.719C47.236 234.721 45.4621 234.724 43.5588 234.727C42.6059 234.727 41.6207 234.728 40.6067 234.728C40.1021 234.733 39.5783 234.72 39.0689 234.737C38.5655 234.758 38.0597 234.875 37.5893 235.089C36.6472 235.512 35.8592 236.338 35.493 237.356C35.3024 237.867 35.2413 238.405 35.2503 238.974C35.2509 239.547 35.2515 240.124 35.2521 240.707C35.2533 243.038 35.2545 245.451 35.2551 247.923C35.2371 257.804 35.2209 266.748 35.2095 273.246C35.1886 276.47 35.1718 279.086 35.1598 280.92C35.1472 281.809 35.1376 282.508 35.1304 283.006C35.1238 283.23 35.1191 283.409 35.1149 283.548C35.1095 283.671 35.1041 283.733 35.0987 283.733C35.0933 283.733 35.0879 283.671 35.0825 283.548C35.0783 283.409 35.0735 283.23 35.0669 283.006C35.0597 282.508 35.0501 281.809 35.0375 280.92C35.0256 279.086 35.0088 276.47 34.9878 273.246C34.9758 266.748 34.9602 257.804 34.9423 247.923C34.9435 245.451 34.9447 243.038 34.9453 240.707C34.9459 240.124 34.9465 239.547 34.9471 238.974C34.9381 238.401 35.0058 237.796 35.2119 237.254C35.6087 236.16 36.4579 235.277 37.47 234.827C37.9752 234.599 38.5188 234.476 39.0569 234.456C39.5903 234.441 40.0967 234.456 40.6067 234.454C41.6213 234.459 42.6059 234.464 43.5588 234.468C45.4621 234.479 47.2366 234.489 48.8582 234.498C49.6673 234.492 50.4451 234.541 51.1529 234.452C51.8648 234.361 52.5168 234.145 53.0832 233.861C54.217 233.279 54.9859 232.44 55.4563 231.684C55.9244 230.916 56.1245 230.236 56.227 229.774C56.2774 229.542 56.2959 229.362 56.3205 229.242C56.3427 229.122 56.3499 229.059 56.3559 229.06Z" fill="#0070AF"/>
<path d="M41.9534 240.755C42.0397 240.76 42.0564 241.691 41.9917 242.833C41.927 243.976 41.8041 244.899 41.7184 244.893C41.6321 244.888 41.6154 243.958 41.6801 242.815C41.7448 241.673 41.8671 240.75 41.9534 240.755Z" fill="#0070AF"/>
<path d="M42.4938 228.709C42.495 228.73 42.133 228.77 41.4786 228.822C40.7715 228.874 39.8366 228.944 38.7063 229.027C37.5377 229.12 36.1462 229.241 34.6198 229.483C33.1144 229.739 31.4394 230.202 29.9712 231.171C29.249 231.659 28.639 232.295 28.3819 233.064C28.1158 233.846 27.9821 234.647 27.8886 235.411C27.7101 236.943 27.6927 238.342 27.6591 239.514C27.6328 240.688 27.6082 241.639 27.5686 242.295C27.5507 242.623 27.5291 242.878 27.5099 243.05C27.4913 243.222 27.4763 243.313 27.4656 243.312C27.441 243.311 27.4482 242.948 27.447 242.291C27.4446 241.582 27.4416 240.645 27.438 239.511C27.4434 238.337 27.4374 236.934 27.6028 235.378C27.6909 234.602 27.8191 233.783 28.093 232.964C28.3741 232.111 29.0423 231.422 29.7956 230.913C31.3315 229.902 33.0359 229.446 34.5761 229.199C36.1192 228.971 37.5185 228.872 38.6919 228.806C39.8659 228.744 40.8158 228.716 41.4726 228.7C42.1294 228.686 42.4926 228.687 42.4938 228.709Z" fill="#0070AF"/>
<path d="M21.8444 204.059C21.8444 204.059 24.5423 222.407 33.2757 221.811L32.7501 211.867L25.0925 204.8L21.8444 204.059Z" fill="#F1C28C"/>
<path d="M59.4601 229.211L57.5478 214.137L59.5213 198.71C58.2262 191.493 48.1085 190.996 48.1085 190.996L40.168 190.867C40.168 190.867 33.4986 189.896 31.0643 194.38L26.5732 210.462C26.5732 210.462 29.6673 210.903 32.5517 211.008L32.7501 212.76L32.7974 212.764L33.6352 228.621L59.4601 229.211Z" fill="#007BC0"/>
<path d="M48.1882 190.779C48.2068 190.783 48.1984 190.952 48.1343 191.25C48.0648 191.546 47.9413 191.979 47.6573 192.456C47.378 192.933 46.9159 193.438 46.2891 193.82C45.6646 194.212 44.8592 194.459 44.0082 194.458C42.2781 194.477 40.8698 193.448 40.3502 192.475C40.0751 191.99 39.9655 191.552 39.9139 191.252C39.8636 190.95 39.8684 190.781 39.8864 190.778C39.9529 190.759 39.987 191.463 40.539 192.36C41.0735 193.241 42.3968 194.163 44.0076 194.145C45.6245 194.161 46.9183 193.207 47.4709 192.337C48.0384 191.45 48.1259 190.758 48.1882 190.779Z" fill="#00446A"/>
<path d="M33.2757 197.814C33.362 197.814 33.4315 199.535 33.4315 201.657C33.4315 203.779 33.3614 205.499 33.2757 205.499C33.1894 205.499 33.1199 203.779 33.1199 201.657C33.1193 199.535 33.1894 197.814 33.2757 197.814Z" fill="#00446A"/>
<path d="M18.2211 190.243C18.4608 190.525 27.1438 202.136 27.1438 202.136L25.9213 202.828L17.0111 191.365L18.2211 190.243Z" fill="#00446A"/>
<path d="M53.1029 199.423C53.1029 199.423 43.9687 212.572 43.4179 212.83C42.3338 213.339 29.837 202.54 28.645 201.506C28.4808 201.287 28.1416 200.824 27.4764 199.903C27.4764 199.903 26.4906 195.391 25.4382 195.738C24.3859 196.084 26.0147 198.031 25.3297 199.745C24.6448 201.459 21.5063 197.37 21.3805 197.003L20.5708 195.946C20.5708 195.946 19.7222 198.352 19.7798 199.357C19.9638 202.576 23.0093 206.404 23.0093 206.404C23.0093 206.404 36.6856 223.346 46.0536 223.871C50.3606 224.113 60.0103 204.46 60.0103 204.46L53.1029 199.423Z" fill="#F5D6B2"/>
<path d="M21.3176 199.929C21.275 199.956 20.9203 199.47 20.5931 198.807C20.2641 198.144 20.0933 197.567 20.1406 197.55C20.1903 197.531 20.4366 198.07 20.7609 198.724C21.0833 199.377 21.3625 199.901 21.3176 199.929Z" fill="#F1C28C"/>
<path d="M55.2172 193.005C55.2172 193.005 64.2993 196.837 57.3578 212.89L46.3622 206.407L55.2172 193.005Z" fill="#007BC0"/>
<path d="M55.4006 193.29C55.4006 193.301 55.2951 193.319 55.0973 193.344C54.9008 193.377 54.6041 193.369 54.2488 193.504C53.5248 193.688 52.5426 194.233 51.6401 195.236C49.7943 197.227 48.2517 200.705 46.684 204.532C46.4461 205.106 46.2112 205.671 45.9889 206.207L45.9199 206.012C49.195 207.806 52.0362 209.507 54.03 210.8C55.0278 211.444 55.8177 211.98 56.3535 212.362C56.6225 212.551 56.8263 212.703 56.9635 212.808C57.1008 212.913 57.1697 212.971 57.1637 212.979C57.1517 212.997 56.8449 212.807 56.2899 212.456C55.6936 212.084 54.8948 211.585 53.9192 210.976C51.8996 209.733 49.0458 208.067 45.7713 206.284L45.649 206.217L45.7024 206.088C45.9241 205.552 46.1578 204.986 46.3952 204.412C47.9641 200.584 49.548 197.086 51.4795 195.084C52.4234 194.076 53.4631 193.537 54.2176 193.386C54.5874 193.267 54.893 193.293 55.0938 193.281C55.2957 193.276 55.4006 193.279 55.4006 193.29Z" fill="#00446A"/>
<path d="M44.0155 194.224C41.6783 194.224 39.7923 192.314 39.8181 189.977C39.8343 188.519 39.8589 187.256 39.8589 187.256C39.8589 187.256 36.4849 186.943 36.2374 183.604C35.9899 180.266 36.096 172.557 36.096 172.557C39.8613 170.656 44.3601 170.942 47.8551 173.304L48.3735 173.654L48.2135 190.066C48.1907 192.369 46.3179 194.224 44.0155 194.224Z" fill="#F5D6B2"/>
<path d="M39.7738 181.546C39.7726 181.582 39.4831 181.607 39.0151 181.619C38.9569 181.62 38.8892 181.624 38.8083 181.605C38.728 181.588 38.6291 181.523 38.5902 181.426C38.5165 181.232 38.5896 181.065 38.6255 180.923C38.719 180.609 38.8131 180.292 38.912 179.959C39.3327 178.596 39.7288 177.508 39.7971 177.529C39.8654 177.55 39.5796 178.672 39.1589 180.035C39.0534 180.366 38.9521 180.681 38.8527 180.993C38.8005 181.14 38.7616 181.271 38.7879 181.344C38.8011 181.409 38.8982 181.43 39.0193 181.436C39.4867 181.471 39.775 181.511 39.7738 181.546Z" fill="#00446A"/>
<path d="M41.3001 181.962C41.7622 181.647 40.0231 182.745 39.084 182.757C39.084 182.757 39.6743 183.583 40.6158 183.171C41.5932 182.743 41.3001 181.962 41.3001 181.962Z" fill="#FDFDFD"/>
<path d="M39.8499 187.208C39.8499 187.208 41.9719 187.249 44.1293 185.701C44.1293 185.701 43.2484 188.17 39.8954 188.074L39.8499 187.208Z" fill="#F1C28C"/>
<path d="M47.5105 177.346C47.5722 177.323 49.6242 177.056 49.4306 179.479C49.237 181.903 46.8537 180.906 46.8549 180.835C46.8561 180.766 47.5105 177.346 47.5105 177.346Z" fill="#F5D6B2"/>
<path d="M47.6651 180.044C47.6765 180.037 47.7047 180.077 47.7736 180.116C47.8407 180.153 47.9582 180.185 48.0888 180.147C48.3525 180.074 48.6006 179.685 48.6473 179.249C48.6713 179.029 48.642 178.815 48.5778 178.635C48.5179 178.452 48.413 178.32 48.286 178.286C48.1601 178.246 48.0624 178.316 48.0277 178.382C47.9899 178.447 48.0013 178.496 47.9882 178.5C47.981 178.505 47.9396 178.455 47.9666 178.357C47.9804 178.309 48.0133 178.254 48.0738 178.212C48.1356 178.17 48.2231 178.152 48.3124 178.169C48.4981 178.197 48.6528 178.383 48.7235 178.58C48.8044 178.78 48.8427 179.02 48.8158 179.268C48.7612 179.755 48.4748 180.192 48.1164 180.265C47.9426 180.295 47.8042 180.233 47.7353 180.17C47.6651 180.104 47.6567 180.049 47.6651 180.044Z" fill="#F1C28C"/>
<path d="M36.3578 172.758C35.5326 172.554 34.9501 171.695 34.9806 170.845C35.0112 169.996 35.5973 169.215 36.3704 168.862C37.1435 168.508 38.0676 168.557 38.8448 168.902C39.0791 167.667 40.2879 166.695 41.544 166.73C42.8001 166.765 43.9525 167.804 44.1185 169.049C44.1994 168.404 44.9288 168.043 45.5778 168.005C46.2256 167.966 46.9196 168.156 47.3403 168.65C47.761 169.144 47.8029 169.972 47.3247 170.41C48.0474 170.329 48.8103 170.479 49.3982 170.907C49.9861 171.335 50.3744 172.057 50.3199 172.782C50.266 173.507 49.7272 174.194 49.0153 174.342C48.7702 174.393 48.4747 174.406 48.3429 174.619C48.2698 174.737 48.2716 174.884 48.2757 175.023C48.2991 175.824 48.3225 176.626 48.3459 177.427C47.9222 177.214 47.3858 177.521 47.1809 177.948C46.9753 178.375 47.0101 178.874 47.0484 179.346C46.8429 179.656 46.3239 179.564 46.0992 179.268C45.875 178.972 45.8606 178.573 45.8564 178.201C45.8403 176.913 45.8235 175.624 45.8073 174.335C45.4286 174.545 44.9419 174.545 44.5632 174.335C44.1844 174.125 43.9274 173.712 43.9052 173.279C43.361 173.802 42.5766 174.064 41.8269 173.973C41.0778 173.881 40.379 173.438 39.9769 172.8C39.5777 173.116 39.1732 173.436 38.7082 173.643C38.2431 173.85 37.7038 173.937 37.2226 173.771C36.7413 173.605 36.3446 173.146 36.3524 172.637C36.4087 172.588 36.4657 172.54 36.522 172.492" fill="#7B4303"/>
<path d="M37.2315 177.626C37.2273 177.868 37.4149 178.067 37.6504 178.071C37.8853 178.075 38.0801 177.883 38.0843 177.641C38.0885 177.4 37.9009 177.2 37.666 177.197C37.4305 177.192 37.2357 177.385 37.2315 177.626Z" fill="#00446A"/>
<path d="M36.5316 177.142C36.5855 177.2 36.905 176.931 37.3646 176.913C37.8237 176.889 38.1647 177.128 38.2132 177.066C38.2372 177.039 38.1814 176.933 38.0328 176.825C37.8866 176.717 37.6385 176.615 37.352 176.629C37.0662 176.642 36.8271 176.765 36.6904 176.885C36.5514 177.007 36.5052 177.117 36.5316 177.142Z" fill="#00446A"/>
<path d="M42.226 177.627C42.2218 177.868 42.4094 178.067 42.6449 178.071C42.8798 178.075 43.074 177.883 43.0782 177.642C43.0824 177.4 42.8948 177.2 42.6599 177.197C42.4244 177.192 42.2302 177.385 42.226 177.627Z" fill="#00446A"/>
<path d="M41.6177 177.23C41.6717 177.288 41.9917 177.019 42.4507 177.001C42.9098 176.977 43.2508 177.217 43.2993 177.154C43.3233 177.127 43.2682 177.021 43.1189 176.913C42.9727 176.805 42.7246 176.704 42.4382 176.717C42.1523 176.73 41.9132 176.853 41.7766 176.973C41.6381 177.095 41.5914 177.205 41.6177 177.23Z" fill="#00446A"/>
</g>
<rect x="0.5" y="0.5" width="327" height="347" rx="15.5" stroke="#B0D6EB"/>
<defs>
<clipPath id="clip0_1585_7130">
<rect width="328" height="348" rx="16" fill="white"/>
</clipPath>
</defs>
</svg>
