<svg width="24" height="24" viewBox="0 0 24 24" fill="none" xmlns="http://www.w3.org/2000/svg">
<path d="M9.49645 3.41098C6.72145 3.39504 3.94363 3.94536 1.23145 5.00145L1.4091 5.94833H17.0714L17.2589 5.00614C14.7136 3.94114 12.1074 3.42645 9.49645 3.41098ZM20.4886 5.86395C19.1527 5.86395 18.0746 6.94676 18.0746 8.27801C18.0746 9.60458 19.1527 10.6874 20.4886 10.6874C21.8152 10.6874 22.898 9.60458 22.898 8.27801C22.898 6.94676 21.8152 5.86395 20.4886 5.86395ZM20.4886 6.83895C21.2761 6.83895 21.923 7.48583 21.923 8.27801C21.923 9.0702 21.2761 9.71239 20.4886 9.71239C19.7011 9.71239 19.0543 9.0702 19.0543 8.27801C19.0543 7.48583 19.7011 6.83895 20.4886 6.83895ZM1.53285 7.05457V8.02958H16.9449V7.05457H1.53285ZM1.61395 9.15458V20.5593H2.59035V9.15458H1.61395ZM15.8668 9.15458V20.5593H16.8464V9.15458H15.8668ZM19.9964 11.7561V20.5499H20.9714V11.7561H19.9964ZM5.15113 16.0968C4.3791 16.0968 3.75191 16.7249 3.75191 17.4983V18.9843H5.64332V20.578H6.61832V18.9843H11.8636V20.578H12.8386V18.9843H14.7277V17.4983C14.7277 16.7249 14.1043 16.0968 13.3308 16.0968H5.15113Z" fill="black"/>
</svg>
