<svg width="43" height="43" viewBox="0 0 43 43" fill="none" xmlns="http://www.w3.org/2000/svg">
<path fill-rule="evenodd" clip-rule="evenodd" d="M26.7997 8.80693C28.942 9.73495 30.3888 11.2219 31.2848 12.434C32.4982 14.0741 32.355 16.1088 31.6723 17.6846L30.766 19.7767C31.1177 20.2967 31.4394 20.795 31.7199 21.2478L32.1997 22.0354L32.2839 22.1765C32.5275 22.5901 32.7684 23.0068 32.9942 23.4316C33.3352 24.0733 33.0865 24.8956 32.4418 25.2367C32.1294 25.4021 31.7642 25.4366 31.4263 25.3328C31.0885 25.2289 30.8057 24.9952 30.6401 24.683C30.2794 24.0147 29.8968 23.3586 29.493 22.7155L25.88 31.0559C25.2595 32.4882 24.0955 33.6153 22.644 34.1894C21.1925 34.7634 19.5725 34.7374 18.1402 34.1169L14.2593 32.4358C12.8271 31.8153 11.6999 30.6513 11.1259 29.1998C10.5518 27.7483 10.5779 26.1282 11.1983 24.696L14.8113 16.3556C14.0682 16.5045 13.3253 16.6665 12.5927 16.865C12.2514 16.958 11.8872 16.9116 11.5801 16.7361C11.273 16.5606 11.0482 16.2702 10.9552 15.9289C10.8622 15.5877 10.9085 15.2234 11.0841 14.9163C11.2596 14.6092 11.5499 14.3844 11.8912 14.2914C12.3574 14.1679 12.8255 14.0568 13.2956 13.9509L13.9784 13.8036C14.5914 13.6767 15.3101 13.5405 16.0838 13.418L16.9907 11.3247C17.6738 9.7476 19.0596 8.25259 21.086 8.01591C22.5831 7.84054 24.6586 7.87944 26.7997 8.80693ZM26.7042 22.4447C25.6363 22.867 24.7573 23.5847 24.2919 24.6589L22.5202 28.749C22.239 29.398 21.7116 29.9087 21.0539 30.1688C20.3963 30.4289 19.6622 30.4171 19.0132 30.1359L16.5663 29.0759C15.9173 28.7948 15.4066 28.2674 15.1465 27.6097C14.8864 26.952 14.8982 26.218 15.1793 25.569L16.9511 21.4789C17.4164 20.4047 17.3387 19.2726 16.9164 18.2047L13.6453 25.756C13.4773 26.1438 13.3873 26.561 13.3805 26.9836C13.3737 27.4062 13.4502 27.826 13.6057 28.2191C13.7611 28.6122 13.9924 28.9708 14.2865 29.2744C14.5805 29.5781 14.9315 29.8208 15.3193 29.9888L19.2002 31.67C19.588 31.838 20.0052 31.928 20.4278 31.9348C20.8504 31.9416 21.2703 31.8651 21.6633 31.7096C22.0564 31.5542 22.415 31.3228 22.7186 31.0288C23.0223 30.7348 23.265 30.3838 23.4331 29.9959L26.7042 22.4447ZM25.7397 11.2539C24.1529 10.5665 22.5824 10.5255 21.3957 10.6653C20.6129 10.7549 19.8796 11.3643 19.4381 12.3834L19.1413 13.0686C19.6811 13.0336 20.2235 13.0157 20.7547 13.0206C22.1111 13.0357 23.5223 13.1994 24.6797 13.7008C25.8371 14.2022 26.9218 15.1196 27.8601 16.1C28.2269 16.4842 28.585 16.8921 28.9291 17.3085L29.2259 16.6234C29.6669 15.6055 29.6098 14.6537 29.1408 14.019C28.4306 13.0589 27.3265 11.9413 25.7397 11.2539Z" fill="#FDFDFD"/>
<path d="M25.7397 11.2539C24.1529 10.5665 22.5824 10.5255 21.3957 10.6653C20.6129 10.7549 19.8796 11.3643 19.4381 12.3834L19.1413 13.0686C19.6811 13.0336 20.2235 13.0157 20.7547 13.0206C22.1111 13.0357 23.5223 13.1994 24.6797 13.7008C25.8371 14.2022 26.9218 15.1196 27.8601 16.1C28.2269 16.4842 28.585 16.8921 28.9291 17.3085L29.2259 16.6234C29.6669 15.6055 29.6098 14.6537 29.1408 14.019C28.4306 13.0589 27.3265 11.9413 25.7397 11.2539Z" fill="#FDFDFD"/>
<path d="M26.7042 22.4447C25.6363 22.867 24.7573 23.5847 24.2919 24.6589L22.5202 28.749C22.239 29.398 21.7116 29.9087 21.0539 30.1688C20.3963 30.4289 19.6622 30.4171 19.0132 30.1359L16.5663 29.0759C15.9173 28.7948 15.4066 28.2674 15.1465 27.6097C14.8864 26.952 14.8982 26.218 15.1793 25.569L16.9511 21.4789C17.4164 20.4047 17.3387 19.2726 16.9164 18.2047L13.6453 25.756C13.4773 26.1438 13.3873 26.561 13.3805 26.9836C13.3737 27.4062 13.4502 27.826 13.6057 28.2191C13.7611 28.6122 13.9924 28.9708 14.2865 29.2744C14.5805 29.5781 14.9315 29.8208 15.3193 29.9888L19.2002 31.67C19.588 31.838 20.0052 31.928 20.4278 31.9348C20.8504 31.9416 21.2703 31.8651 21.6633 31.7096C22.0564 31.5542 22.415 31.3228 22.7186 31.0288C23.0223 30.7348 23.265 30.3838 23.4331 29.9959L26.7042 22.4447Z" fill="#FDFDFD"/>
<path fill-rule="evenodd" clip-rule="evenodd" d="M26.7992 8.8076C28.9415 9.73562 30.3883 11.2226 31.2844 12.4346C32.4977 14.0747 32.3545 16.1095 31.6718 17.6853L30.7655 19.7774C31.1172 20.2974 31.4389 20.7957 31.7194 21.2485L32.1992 22.0361L32.2834 22.1772C32.5271 22.5908 32.7679 23.0075 32.9937 23.4322C33.3347 24.074 33.086 24.8962 32.4413 25.2374C32.1289 25.4027 31.7637 25.4373 31.4258 25.3334C31.088 25.2296 30.8052 24.9959 30.6396 24.6836C30.2789 24.0154 29.8963 23.3592 29.4925 22.7162L25.8795 31.0566C25.2591 32.4889 24.095 33.616 22.6436 34.1901C21.1921 34.7641 19.572 34.738 18.1397 34.1176L14.2588 32.4364C12.8266 31.816 11.6994 30.652 11.1254 29.2005C10.5513 27.749 10.5774 26.1289 11.1979 24.6966L14.8108 16.3562C14.0678 16.5051 13.3248 16.6672 12.5922 16.8656C12.2509 16.9587 11.8867 16.9123 11.5796 16.7368C11.2725 16.5612 11.0477 16.2709 10.9547 15.9296C10.8617 15.5883 10.908 15.2241 11.0836 14.917C11.2591 14.6099 11.5494 14.3851 11.8907 14.2921C12.3569 14.1686 12.825 14.0575 13.2951 13.9516L13.978 13.8042C14.5909 13.6774 15.3096 13.5412 16.0834 13.4187L16.9902 11.3253C17.6733 9.74827 19.0591 8.25327 21.0855 8.01658C22.5826 7.84121 24.6581 7.88011 26.7992 8.8076ZM26.7037 22.4453C25.6358 22.8677 24.7568 23.5854 24.2914 24.6596L22.5197 28.7497C22.2385 29.3986 21.7111 29.9093 21.0534 30.1694C20.3958 30.4295 19.6617 30.4177 19.0127 30.1366L16.5658 29.0766C15.9168 28.7955 15.4061 28.2681 15.146 27.6104C14.8859 26.9527 14.8977 26.2186 15.1788 25.5697L16.9506 21.4796C17.416 20.4054 17.3383 19.2732 16.9159 18.2054L13.6448 25.7566C13.4768 26.1445 13.3868 26.5616 13.38 26.9843C13.3732 27.4069 13.4497 27.8267 13.6052 28.2198C13.7606 28.6128 13.992 28.9714 14.286 29.2751C14.58 29.5787 14.931 29.8215 15.3188 29.9895L19.1997 31.6707C19.5875 31.8387 20.0047 31.9286 20.4273 31.9354C20.8499 31.9422 21.2698 31.8657 21.6628 31.7103C22.0559 31.5548 22.4145 31.3235 22.7181 31.0295C23.0218 30.7354 23.2645 30.3845 23.4326 29.9966L26.7037 22.4453ZM25.7392 11.2545C24.1524 10.5671 22.5819 10.5262 21.3952 10.666C20.6125 10.7556 19.8791 11.3649 19.4377 12.3841L19.1409 13.0692C19.6806 13.0342 20.223 13.0164 20.7542 13.0213C22.1106 13.0363 23.5218 13.2001 24.6792 13.7015C25.8366 14.2029 26.9213 15.1203 27.8596 16.1007C28.2265 16.4848 28.5845 16.8928 28.9286 17.3092L29.2254 16.6241C29.6664 15.6061 29.6093 14.6544 29.1403 14.0196C28.4301 13.0596 27.3261 11.9419 25.7392 11.2545Z" fill="#E07A06"/>
</svg>
