<svg width="24" height="24" viewBox="0 0 24 24" fill="none" xmlns="http://www.w3.org/2000/svg">
  <g clip-path="url(#clip0_82_3575)">
    <g clip-path="url(#clip1_82_3575)">
      <path d="M17 11.3335H15V12.6668H17V11.3335Z" fill="black" />
      <path d="M9.36699 9.44686C10.5493 7.51206 12.1623 5.87627 14.0803 4.66686C14.9664 4.10529 15.9765 3.76916 17.0223 3.68781C18.0682 3.60646 19.1181 3.78238 20.0803 4.20019C20.922 4.5972 21.6544 5.19311 22.2142 5.93647C22.7741 6.67983 23.1445 7.54829 23.2937 8.46686C23.347 8.78019 23.387 9.08019 23.427 9.37353C24.0512 9.4747 24.6191 9.79437 25.0294 10.2755C25.4397 10.7566 25.6657 11.3679 25.667 12.0002V16.0869C25.667 16.4405 25.5265 16.7796 25.2765 17.0297C25.0264 17.2797 24.6873 17.4202 24.3337 17.4202V12.0002C24.3337 11.6466 24.1932 11.3074 23.9431 11.0574C23.6931 10.8073 23.3539 10.6669 23.0003 10.6669H10.5137C9.22878 10.6686 7.99704 11.1798 7.0885 12.0884C6.17995 12.9969 5.66876 14.2287 5.66699 15.5135V16.0002H7.00032C7.28189 15.3136 7.80639 14.7547 8.47374 14.4302C9.14109 14.1056 9.90457 14.0382 10.6185 14.2406C11.3324 14.4431 11.9468 14.9014 12.3444 15.5279C12.742 16.1545 12.895 16.9055 12.7742 17.6377C12.6534 18.3699 12.2672 19.032 11.6894 19.4976C11.1116 19.9632 10.3826 20.1998 9.64144 20.1622C8.90031 20.1246 8.19898 19.8154 7.67126 19.2937C7.14354 18.7719 6.82639 18.0742 6.78032 17.3335H5.66699C5.31337 17.3335 4.97423 17.1931 4.72418 16.943C4.47413 16.693 4.33366 16.3538 4.33366 16.0002V15.5135C4.33634 14.0748 4.84037 12.682 5.75902 11.5748C6.67767 10.4675 7.9535 9.71507 9.36699 9.44686ZM19.667 9.33353H22.3803C22.3803 9.12686 22.3203 8.91353 22.2803 8.66686C22.1651 7.9345 21.8646 7.24377 21.4071 6.66034C20.9497 6.0769 20.3507 5.62016 19.667 5.33353V9.33353ZM18.3337 9.33353V5.05353C17.089 4.8919 15.8268 5.16508 14.7603 5.82686C13.3045 6.73365 12.048 7.92665 11.067 9.33353H18.3337ZM9.80033 18.9202C10.13 18.9202 10.4522 18.8224 10.7263 18.6393C11.0004 18.4562 11.214 18.1959 11.3401 17.8913C11.4663 17.5868 11.4993 17.2517 11.435 16.9284C11.3707 16.6051 11.2119 16.3081 10.9788 16.075C10.7457 15.8419 10.4488 15.6832 10.1255 15.6189C9.80217 15.5546 9.46706 15.5876 9.16252 15.7137C8.85798 15.8399 8.59768 16.0535 8.41454 16.3276C8.23141 16.6017 8.13366 16.9239 8.13366 17.2535C8.13366 17.6956 8.30925 18.1195 8.62181 18.432C8.93438 18.7446 9.3583 18.9202 9.80033 18.9202Z" fill="black" />
      <path d="M17.553 16.0001C17.8346 15.3135 18.3591 14.7546 19.0264 14.4301C19.6938 14.1056 20.4572 14.0381 21.1712 14.2406C21.8851 14.443 22.4995 14.9013 22.8971 15.5279C23.2947 16.1544 23.4477 16.9055 23.3269 17.6376C23.2061 18.3698 22.8199 19.0319 22.2421 19.4975C21.6643 19.9631 20.9352 20.1997 20.1941 20.1621C19.453 20.1245 18.7517 19.8153 18.2239 19.2936C17.6962 18.7719 17.3791 18.0741 17.333 17.3335H13.7997V17.1668C13.8129 16.7735 13.7679 16.3803 13.6663 16.0001H17.553ZM20.333 18.9201C20.6626 18.9201 20.9849 18.8224 21.259 18.6392C21.533 18.4561 21.7467 18.1958 21.8728 17.8913C21.9989 17.5867 22.032 17.2516 21.9676 16.9283C21.9033 16.605 21.7446 16.308 21.5115 16.0749C21.2784 15.8419 20.9815 15.6831 20.6582 15.6188C20.3349 15.5545 19.9997 15.5875 19.6952 15.7137C19.3907 15.8398 19.1304 16.0534 18.9472 16.3275C18.7641 16.6016 18.6663 16.9238 18.6663 17.2535C18.6663 17.6955 18.8419 18.1194 19.1545 18.432C19.4671 18.7445 19.891 18.9201 20.333 18.9201Z" fill="black" />
    </g>
  </g>
  <defs>
    <clipPath id="clip0_82_3575">
      <rect width="18" height="24" fill="white" transform="matrix(-1 0 0 1 21 0)" />
    </clipPath>
    <clipPath id="clip1_82_3575">
      <rect width="24" height="24" fill="white" transform="matrix(-1 0 0 1 27 0)" />
    </clipPath>
  </defs>
</svg>