 <svg width="24" height="24" viewBox="0 0 24 24" fill="none" xmlns="http://www.w3.org/2000/svg">
   <g clip-path="url(#clip0_82_3576)">
     <g clip-path="url(#clip1_82_3576)">
       <path d="M7 11.3335H9V12.6668H7V11.3335Z" fill="black" />
       <path d="M14.633 9.44686C13.4507 7.51206 11.8377 5.87627 9.91967 4.66686C9.03361 4.10529 8.02355 3.76916 6.97767 3.68781C5.9318 3.60646 4.88191 3.78238 3.91967 4.20019C3.07801 4.5972 2.34564 5.19311 1.78579 5.93647C1.22595 6.67983 0.855468 7.54829 0.706341 8.46686C0.653008 8.78019 0.613008 9.08019 0.573008 9.37353C-0.051162 9.4747 -0.619074 9.79437 -1.02937 10.2755C-1.43967 10.7566 -1.66565 11.3679 -1.66699 12.0002V16.0869C-1.66699 16.4405 -1.52652 16.7796 -1.27647 17.0297C-1.02642 17.2797 -0.687281 17.4202 -0.333659 17.4202V12.0002C-0.333659 11.6466 -0.193183 11.3074 0.0568655 11.0574C0.306914 10.8073 0.646053 10.6669 0.999675 10.6669H13.4863C14.7712 10.6686 16.003 11.1798 16.9115 12.0884C17.82 12.9969 18.3312 14.2287 18.333 15.5135V16.0002H16.9997C16.7181 15.3136 16.1936 14.7547 15.5263 14.4302C14.8589 14.1056 14.0954 14.0382 13.3815 14.2406C12.6676 14.4431 12.0532 14.9014 11.6556 15.5279C11.258 16.1545 11.105 16.9055 11.2258 17.6377C11.3466 18.3699 11.7328 19.032 12.3106 19.4976C12.8884 19.9632 13.6174 20.1998 14.3586 20.1622C15.0997 20.1246 15.801 19.8154 16.3287 19.2937C16.8565 18.7719 17.1736 18.0742 17.2197 17.3335H18.333C18.6866 17.3335 19.0258 17.1931 19.2758 16.943C19.5259 16.693 19.6663 16.3538 19.6663 16.0002V15.5135C19.6637 14.0748 19.1596 12.682 18.241 11.5748C17.3223 10.4675 16.0465 9.71507 14.633 9.44686ZM4.33301 9.33353H1.61967C1.61967 9.12686 1.67967 8.91353 1.71967 8.66686C1.83486 7.9345 2.13544 7.24377 2.59285 6.66034C3.05026 6.0769 3.6493 5.62016 4.33301 5.33353V9.33353ZM5.66634 9.33353V5.05353C6.91098 4.8919 8.17324 5.16508 9.23968 5.82686C10.6955 6.73365 11.952 7.92665 12.933 9.33353H5.66634ZM14.1997 18.9202C13.87 18.9202 13.5478 18.8224 13.2737 18.6393C12.9996 18.4562 12.786 18.1959 12.6599 17.8913C12.5337 17.5868 12.5007 17.2517 12.565 16.9284C12.6293 16.6051 12.7881 16.3081 13.0212 16.075C13.2543 15.8419 13.5512 15.6832 13.8745 15.6189C14.1978 15.5546 14.5329 15.5876 14.8375 15.7137C15.142 15.8399 15.4023 16.0535 15.5855 16.3276C15.7686 16.6017 15.8663 16.9239 15.8663 17.2535C15.8663 17.6956 15.6907 18.1195 15.3782 18.432C15.0656 18.7446 14.6417 18.9202 14.1997 18.9202Z" fill="black" />
       <path d="M6.447 16.0001C6.16543 15.3135 5.64094 14.7546 4.97358 14.4301C4.30623 14.1056 3.54275 14.0381 2.82883 14.2406C2.1149 14.443 1.50052 14.9013 1.10291 15.5279C0.705298 16.1544 0.5523 16.9055 0.67311 17.6376C0.793919 18.3698 1.18008 19.0319 1.7579 19.4975C2.33572 19.9631 3.06475 20.1997 3.80588 20.1621C4.54701 20.1245 5.24834 19.8153 5.77606 19.2936C6.30378 18.7719 6.62093 18.0741 6.667 17.3335H10.2003V17.1668C10.1871 16.7735 10.2321 16.3803 10.3337 16.0001H6.447ZM3.667 18.9201C3.33736 18.9201 3.01513 18.8224 2.74105 18.6392C2.46696 18.4561 2.25334 18.1958 2.1272 17.8913C2.00105 17.5867 1.96804 17.2516 2.03235 16.9283C2.09666 16.605 2.2554 16.308 2.48848 16.0749C2.72157 15.8419 3.01854 15.6831 3.34185 15.6188C3.66515 15.5545 4.00026 15.5875 4.3048 15.7137C4.60935 15.8398 4.86964 16.0534 5.05278 16.3275C5.23591 16.6016 5.33366 16.9238 5.33366 17.2535C5.33366 17.6955 5.15807 18.1194 4.84551 18.432C4.53295 18.7445 4.10902 18.9201 3.667 18.9201Z" fill="black" />
     </g>
   </g>
   <defs>
     <clipPath id="clip0_82_3576">
       <rect width="18" height="24" fill="white" transform="translate(3)" />
     </clipPath>
     <clipPath id="clip1_82_3576">
       <rect width="24" height="24" fill="white" transform="translate(-3)" />
     </clipPath>
   </defs>
 </svg>