<svg width="24" height="24" viewBox="0 0 24 24" fill="none" xmlns="http://www.w3.org/2000/svg">
<g clip-path="url(#clip0_1795_16265)">
<path d="M12.6996 9.2C13.2566 9.2 13.7907 8.97875 14.1845 8.58492C14.5784 8.1911 14.7996 7.65695 14.7996 7.1C14.7996 6.54305 14.5784 6.0089 14.1845 5.61508C13.7907 5.22125 13.2566 5 12.6996 5C12.1427 5 11.6085 5.22125 11.2147 5.61508C10.8209 6.0089 10.5996 6.54305 10.5996 7.1C10.5996 7.65695 10.8209 8.1911 11.2147 8.58492C11.6085 8.97875 12.1427 9.2 12.6996 9.2Z" fill="black"/>
<path d="M9.90039 13.6898V26.35C9.90039 26.6285 10.011 26.8955 10.2079 27.0925C10.4048 27.2894 10.6719 27.4 10.9504 27.4C11.2289 27.4 11.4959 27.2894 11.6929 27.0925C11.8898 26.8955 12.0004 26.6285 12.0004 26.35V19.7C12.0004 19.5143 12.0741 19.3363 12.2054 19.205C12.3367 19.0737 12.5147 19 12.7004 19C12.886 19 13.0641 19.0737 13.1954 19.205C13.3266 19.3363 13.4004 19.5143 13.4004 19.7V26.35C13.4004 26.6285 13.511 26.8955 13.7079 27.0925C13.9048 27.2894 14.1719 27.4 14.4504 27.4C14.7289 27.4 14.9959 27.2894 15.1929 27.0925C15.3898 26.8955 15.5004 26.6285 15.5004 26.35V14.45C15.5004 14.3572 15.5373 14.2682 15.6029 14.2025C15.6685 14.1369 15.7576 14.1 15.8504 14.1C15.9432 14.1 16.0322 14.1369 16.0979 14.2025C16.1635 14.2682 16.2004 14.3572 16.2004 14.45V17.95C16.2004 18.2285 16.311 18.4955 16.5079 18.6925C16.7048 18.8894 16.9719 19 17.2504 19C17.5289 19 17.7959 18.8894 17.9929 18.6925C18.1898 18.4955 18.3004 18.2285 18.3004 17.95V14.1C18.3004 12.9861 17.8579 11.9178 17.0702 11.1302C16.2826 10.3425 15.2143 9.9 14.1004 9.9H10.2308C10.0135 9.89977 9.79925 9.84896 9.60499 9.7516L9.14299 9.5206C8.95022 9.42428 8.78803 9.27624 8.67455 9.09304C8.56107 8.90984 8.50077 8.6987 8.50039 8.4832V6.05C8.50039 5.77152 8.38977 5.50445 8.19285 5.30754C7.99594 5.11062 7.72887 5 7.45039 5C7.17191 5 6.90484 5.11062 6.70793 5.30754C6.51102 5.50445 6.40039 5.77152 6.40039 6.05V8.9662C6.40039 9.9672 6.96599 10.8842 7.86199 11.3308L9.20039 12C9.64839 12.448 9.90039 13.0556 9.90039 13.6898Z" fill="black"/>
</g>
<defs>
<clipPath id="clip0_1795_16265">
<rect width="14" height="14" fill="white" transform="translate(5 5)"/>
</clipPath>
</defs>
</svg>
